<?xml version="1.0" encoding="UTF-8" standalone="no"?>
<svg
   xmlns:dc="http://purl.org/dc/elements/1.1/"
   xmlns:cc="http://creativecommons.org/ns#"
   xmlns:rdf="http://www.w3.org/1999/02/22-rdf-syntax-ns#"
   xmlns:svg="http://www.w3.org/2000/svg"
   xmlns="http://www.w3.org/2000/svg"
   xmlns:sodipodi="http://sodipodi.sourceforge.net/DTD/sodipodi-0.dtd"
   xmlns:inkscape="http://www.inkscape.org/namespaces/inkscape"
   viewBox="0 0 222.10461 113.53283"
   version="1.1"
   id="svg75"
   sodipodi:docname="2017 logo 1 llf-01-cropped.svg"
   width="222.10461"
   height="113.53283"
   inkscape:version="0.92.3 (2405546, 2018-03-11)">
  <metadata
     id="metadata79">
    <rdf:RDF>
      <cc:Work
         rdf:about="">
        <dc:format>image/svg+xml</dc:format>
        <dc:type
           rdf:resource="http://purl.org/dc/dcmitype/StillImage" />
        <dc:title>2017 logo 1 llf</dc:title>
      </cc:Work>
    </rdf:RDF>
  </metadata>
  <sodipodi:namedview
     pagecolor="#ffffff"
     bordercolor="#666666"
     borderopacity="1"
     objecttolerance="10"
     gridtolerance="10"
     guidetolerance="10"
     inkscape:pageopacity="0"
     inkscape:pageshadow="2"
     inkscape:window-width="1660"
     inkscape:window-height="1017"
     id="namedview77"
     showgrid="false"
     fit-margin-top="0"
     fit-margin-left="0"
     fit-margin-right="0"
     fit-margin-bottom="0"
     inkscape:zoom="1.0658174"
     inkscape:cx="110.95383"
     inkscape:cy="47.859767"
     inkscape:window-x="0"
     inkscape:window-y="0"
     inkscape:window-maximized="0"
     inkscape:current-layer="svg75" />
  <defs
     id="defs4">
    <style
       id="style2">.cls-1{fill:none;}.cls-2{fill:#00953b;}.cls-3{fill:#80bc00;}.cls-4{fill:#007934;}.cls-5{fill:#fff;}</style>
  </defs>
  <title
     id="title6">2017 logo 1 llf</title>
  <g
     id="Layer_1"
     data-name="Layer 1"
     transform="translate(-6.7961723,-5.3269376)">
    <path
       class="cls-1"
       d="M 89.54,6.25 H 89 l 0.23,0.13 z"
       id="path8"
       inkscape:connector-curvature="0"
       style="fill:none" />
    <path
       class="cls-2"
       d="m 52.79,40.78 -0.43,-0.12 0.25,0.14 h 0.19 z"
       id="path10"
       inkscape:connector-curvature="0"
       style="fill:#00953b" />
    <path
       class="cls-3"
       d="m 213.89,73.11 -0.7,-0.19 0.42,0.23 h 0.3 a 0.14,0.14 0 0 0 -0.02,-0.04 z"
       id="path12"
       inkscape:connector-curvature="0"
       style="fill:#80bc00" />
    <path
       class="cls-3"
       d="m 220.74,57.44 -0.45,-0.12 0.27,0.15 h 0.19 z"
       id="path14"
       inkscape:connector-curvature="0"
       style="fill:#80bc00" />
    <path
       class="cls-4"
       d="m 49.9,55.72 c 0,0 2.83,-1.59 12,-3.28 C 71.07,50.75 78.07,50 78.07,50 c 0,0 -13,0.57 -16.88,1.53 -3.88,0.96 -4.66,0.29 -4.66,0.29 l 1.51,-1 C 59,50 60.11,49.18 60.35,48 L 60.3,47.74 v -0.06 l -0.2,-0.12 c -2.74,-0.06 -26.31,9.83 -26,9.38 0.48,-0.63 2.13,-2 2.34,-2.85 0.25,-1 0.06,-1.71 0.53,-2.58 0.35,-0.65 0.31,-0.29 0.87,-0.73 a 1.9,1.9 0 0 0 0.54,-1.13 c -0.27,-0.08 -1.52,-0.49 -1.59,-0.72 -0.07,-0.23 0.65,-1.18 0.64,-1.68 a 1.56,1.56 0 0 0 0.8,-0.63 c 1,-0.11 0.76,-1.39 0.8,-2.13 a 7.83,7.83 0 0 0 0.86,-0.75 7.2,7.2 0 0 0 1,-0.78 c 0.15,-0.18 0,-0.47 0.18,-0.68 0.18,-0.21 0.32,0 0.52,0 h 0.08 l 0.2,-0.08 c 0.33,-0.34 0.12,-1 0.19,-1.41 0.4,0 0.82,0 1.22,0 0.52,-0.82 0.25,-1.13 1.15,-1.7 a 9.85,9.85 0 0 0 0.91,-0.54 c 0.28,-0.21 0.39,-0.66 0.64,-0.85 0.25,-0.19 0.76,-0.16 1.05,-0.28 0.29,-0.12 0.54,-0.46 0.89,-0.54 0.88,-0.21 1.73,0.65 2,-0.61 0.58,-0.28 1.59,-0.13 1.6,-1 a 3.79,3.79 0 0 1 2,0.15 9.52,9.52 0 0 0 2.12,-0.25 c 0.8,0 1.45,-0.12 2,0.42 L 58,37 h 2.12 l 2.12,2.53 c 1.19,-0.59 1.9,1.27 2.24,2 a 10.24,10.24 0 0 0 1.79,2.67 1.82,1.82 0 0 0 1.6,0.62 c 0.57,0 1.62,0 1.23,-0.78 -0.3,-0.63 -2.14,-1.2 -2.72,-1.73 -0.24,-0.22 -0.45,-0.47 -0.67,-0.68 a 6.52,6.52 0 0 1 -0.76,-0.66 2.78,2.78 0 0 1 -0.64,-2 3.4,3.4 0 0 1 0.6,-2.07 c 0.31,-0.41 1.51,-1.15 1.64,-0.08 h 0.15 c 0.31,1 1,1.27 1.8,1.76 a 9.9,9.9 0 0 1 1.88,1.77 c 0.29,0.27 0.81,0.34 1.17,0.61 a 4.82,4.82 0 0 1 0.77,1 c 0.39,0.56 1.25,1 1.69,1.6 7.21,-3.1 15.87,-5.84 24.15,-6 v 0 c 0.18,0 0.35,0 0.52,0 h 1 c 0.45,0 0.9,0 1.34,0.06 h 0.17 l 0.9,0.07 A 31.37,31.37 0 0 1 110.59,39 53.86,53.86 0 1 0 53,112.5 C 31.78,98.81 27.36,63.45 49.9,55.72 Z"
       id="path16"
       inkscape:connector-curvature="0"
       style="fill:#007934" />
    <polygon
       class="cls-5"
       points=""
       id="polygon18"
       style="fill:#ffffff" />
    <path
       class="cls-3"
       d="M 88.8,70.32 V 45.17 h 14.74 a 10.22,10.22 0 0 1 6,1.59 5.15,5.15 0 0 1 2.26,4.46 c 0,2.38 -1.34,4.14 -4,5.26 q 5.53,1.89 5.53,6.59 a 6.93,6.93 0 0 1 -2.11,5.22 8.35,8.35 0 0 1 -6,2 z M 97.65,55.59 H 100 q 4.07,0 4.06,-3.3 c 0,-2.18 -1.3,-3.27 -3.92,-3.27 h -2.49 z m 0,10.88 h 2.53 q 4.59,0 4.59,-3.65 0,-3.37 -4.37,-3.38 h -2.75 z"
       id="path20"
       inkscape:connector-curvature="0"
       style="fill:#80bc00" />
    <path
       class="cls-3"
       d="m 136.21,60.29 a 9.79,9.79 0 0 1 -0.13,1.63 h -12.59 a 3.6,3.6 0 0 0 1.46,2.6 5.52,5.52 0 0 0 3.79,1.3 9,9 0 0 0 3.69,-0.73 13.27,13.27 0 0 0 2.57,-1.4 l 1.44,3.14 a 9.76,9.76 0 0 1 -3.74,2.82 13,13 0 0 1 -5.19,1 11.23,11.23 0 0 1 -8.11,-2.89 9.67,9.67 0 0 1 -3,-7.31 9.91,9.91 0 0 1 2.8,-7.1 9.47,9.47 0 0 1 7.19,-3 9.7,9.7 0 0 1 7,2.71 9.6,9.6 0 0 1 2.82,7.23 z m -9.71,-5.67 q -3.37,0 -3.38,4.4 h 6.71 q 0,-4.39 -3.33,-4.4 z"
       id="path22"
       inkscape:connector-curvature="0"
       style="fill:#80bc00" />
    <path
       class="cls-3"
       d="M 140.11,70.32 V 45.17 h 7.69 v 25.15 z"
       id="path24"
       inkscape:connector-curvature="0"
       style="fill:#80bc00" />
    <path
       class="cls-3"
       d="m 150.73,53.12 h 2.89 v -1 a 7.07,7.07 0 0 1 2,-5.35 c 1.33,-1.3 3.31,-2 5.92,-2 a 9.24,9.24 0 0 1 3.24,0.45 v 5 a 3.83,3.83 0 0 0 -1.27,-0.23 2.06,2.06 0 0 0 -1.72,0.63 4.15,4.15 0 0 0 -0.48,2.37 h 3.47 V 58 h -3.47 v 12.32 h -7.7 V 58 h -2.89 z"
       id="path26"
       inkscape:connector-curvature="0"
       style="fill:#80bc00" />
    <path
       class="cls-3"
       d="m 178.1,56.64 a 3.84,3.84 0 0 0 -2.35,-0.56 q -3.47,0 -7.89,3.23 v -5.67 a 14.59,14.59 0 0 1 9.28,-3.29 10.67,10.67 0 0 1 6.27,1.72 5.9,5.9 0 0 1 2.46,5.22 v 5.93 c 0,0.89 0.17,1.47 0.52,1.73 a 3.34,3.34 0 0 0 1.88,0.4 l -1.44,5.26 h -1.52 q -4.06,0 -5.46,-2 a 10.16,10.16 0 0 1 -6.45,2 7.68,7.68 0 0 1 -4.06,-1 4.11,4.11 0 0 1 -2.08,-3.78 4.38,4.38 0 0 1 1.34,-3.21 c 0.89,-0.91 2.85,-1.72 5.89,-2.46 q 4.08,-1 4.41,-1.64 a 2.47,2.47 0 0 0 -0.8,-1.88 z m 0.8,5.09 a 5.4,5.4 0 0 1 -2.14,1 11.52,11.52 0 0 0 -2.76,1.06 1.93,1.93 0 0 0 -0.89,1.74 2.31,2.31 0 0 0 0.56,1.55 2.05,2.05 0 0 0 1.66,0.65 5,5 0 0 0 2,-0.45 6.17,6.17 0 0 0 1.49,-0.88 v -4.67 z"
       id="path28"
       inkscape:connector-curvature="0"
       style="fill:#80bc00" />
    <path
       class="cls-3"
       d="m 190.15,63.11 c 2.34,1.8 4.36,2.71 6.07,2.71 1.35,0 2,-0.51 2,-1.52 0,-0.59 -0.54,-1.14 -1.59,-1.64 l -2.44,-1.21 q -4.07,-2 -4.07,-5.32 a 5.11,5.11 0 0 1 2,-4.15 q 2,-1.63 5.94,-1.63 a 15.56,15.56 0 0 1 3.49,0.4 18.81,18.81 0 0 1 3.45,1.16 V 57 a 17.4,17.4 0 0 0 -3.34,-1.53 6.8,6.8 0 0 0 -1.95,-0.31 c -1.23,0 -1.84,0.44 -1.84,1.34 0,0.69 0.64,1.29 1.91,1.78 l 2.06,0.78 a 6.7,6.7 0 0 1 3.16,2.2 5.84,5.84 0 0 1 1,3.51 5.3,5.3 0 0 1 -2,4.12 8.07,8.07 0 0 1 -5.56,1.73 15.56,15.56 0 0 1 -8.26,-1.93 z"
       id="path30"
       inkscape:connector-curvature="0"
       style="fill:#80bc00" />
    <path
       class="cls-3"
       d="m 207.46,53.1 9.37,-8.22 h 1.69 v 5.78 h 6.07 v 4.88 h -6.07 v 6.05 a 2.75,2.75 0 0 0 0.54,1.86 2.37,2.37 0 0 0 1.84,0.61 8,8 0 0 0 4.26,-1.44 v 5.85 a 11,11 0 0 1 -6.72,2.15 8.36,8.36 0 0 1 -5.69,-1.7 q -1.94,-1.71 -1.93,-5.31 v -8.07 h -3.36 z"
       id="path32"
       inkscape:connector-curvature="0"
       style="fill:#80bc00" />
    <path
       class="cls-3"
       d="m 161.8,88.8 c 0,-1.79 -2.52,-2.26 -6,-2.37 -0.11,-3.45 -0.58,-6 -2.37,-6 -1.79,0 -2.26,2.52 -2.37,6 -3.44,0.11 -6,0.58 -6,2.37 0,1.79 2.52,2.26 6,2.37 0.11,3.45 0.58,6 2.37,6 1.79,0 2.26,-2.52 2.37,-6 3.45,-0.11 6,-0.58 6,-2.37"
       id="path34"
       inkscape:connector-curvature="0"
       style="fill:#80bc00" />
    <path
       class="cls-3"
       d="m 186.84,88.8 c 0,-4.3 -3,-8.06 -7.46,-8.06 -4.59,0 -7.34,3.65 -7.34,8 v 0.11 c 0,4.31 3,8.06 7.45,8.06 4.6,0 7.35,-3.65 7.35,-8 z M 179.38,104 A 14.94,14.94 0 0 1 164.11,88.91 V 88.8 a 15.09,15.09 0 0 1 15.38,-15.2 14.94,14.94 0 0 1 15.28,15.09 V 88.8 A 15.09,15.09 0 0 1 179.38,104"
       id="path36"
       inkscape:connector-curvature="0"
       style="fill:#80bc00" />
    <path
       class="cls-3"
       d="m 221,88.91 c 0,4.3 -2.74,8 -7.34,8 -4.44,0 -7.45,-3.75 -7.45,-8.06 v -0.11 c 0,-4.3 2.74,-8 7.34,-8 4.44,0 7.45,3.76 7.45,8.06 z M 213.62,73.6 a 15.8,15.8 0 0 0 -7.46,1.82 v -1.78 h -8.06 v 39.7 h 8.06 v -11.1 A 15.86,15.86 0 0 0 213.51,104 15.09,15.09 0 0 0 228.9,88.8 V 88.69 A 14.94,14.94 0 0 0 213.62,73.6 Z"
       id="path38"
       inkscape:connector-curvature="0"
       style="fill:#80bc00" />
    <path
       class="cls-3"
       d="m 100.35,104.1 a 16.82,16.82 0 0 1 -7.82,-1.87 14.71,14.71 0 0 1 -7,-7.74 v 0 l -0.09,-0.22 c 0,-0.07 0,-0.14 -0.07,-0.21 v 0 A 15.23,15.23 0 0 1 84.49,88.93 V 88.7 a 15.06,15.06 0 0 1 13.8,-15.14 19.31,19.31 0 0 1 2.17,-0.13 16.32,16.32 0 0 1 10.69,3.81 c -0.18,0.22 -0.35,0.43 -0.51,0.66 a 18.3,18.3 0 0 0 -2.86,5.85 8.84,8.84 0 0 0 -6.86,-3.18 8.17,8.17 0 1 0 0,16.31 8.86,8.86 0 0 0 6.86,-3.17 18.24,18.24 0 0 0 2.86,5.88 l 0.49,0.63 a 16.38,16.38 0 0 1 -10.78,3.88 z"
       id="path40"
       inkscape:connector-curvature="0"
       style="fill:#80bc00" />
    <path
       class="cls-3"
       d="m 135,88.8 c 0,-4.3 -3,-8.06 -7.46,-8.06 -4.59,0 -7.34,3.65 -7.34,8 v 0.11 c 0,4.31 3,8.06 7.45,8.06 4.6,0 7.35,-3.65 7.35,-8 z M 127.53,104 A 14.94,14.94 0 0 1 112.26,88.91 V 88.8 a 15.09,15.09 0 0 1 15.38,-15.2 14.94,14.94 0 0 1 15.28,15.09 V 88.8 A 15.09,15.09 0 0 1 127.53,104"
       id="path42"
       inkscape:connector-curvature="0"
       style="fill:#80bc00" />
    <path
       class="cls-4"
       d="M 64.84,118.67 V 107.9 h 2.3 v 10.77 z"
       id="path44"
       inkscape:connector-curvature="0"
       style="fill:#007934" />
    <path
       class="cls-4"
       d="m 68.7,115 a 3.49,3.49 0 0 1 1.16,-2.73 4.43,4.43 0 0 1 3.07,-1.05 4.06,4.06 0 0 1 2.91,1.05 3.57,3.57 0 0 1 1.16,2.73 3.51,3.51 0 0 1 -1.19,2.81 4.42,4.42 0 0 1 -2.9,1 4.26,4.26 0 0 1 -3,-1.06 A 3.61,3.61 0 0 1 68.7,115 Z m 2.45,0 q 0,2.43 1.74,2.43 c 1.09,0 1.63,-0.82 1.63,-2.47 0,-1.65 -0.55,-2.4 -1.66,-2.4 -1.11,0 -1.71,0.83 -1.71,2.44 z"
       id="path46"
       inkscape:connector-curvature="0"
       style="fill:#007934" />
    <path
       class="cls-4"
       d="m 81.53,115.39 1.54,-4 h 2.45 l -3.34,7.45 h -1.29 l -3.35,-7.45 H 80 Z"
       id="path48"
       inkscape:connector-curvature="0"
       style="fill:#007934" />
    <path
       class="cls-4"
       d="m 93.76,114.91 v 0.49 h -5.2 a 2,2 0 0 0 0.65,1.49 2.46,2.46 0 0 0 1.72,0.56 3.94,3.94 0 0 0 2.68,-1.1 v 1.49 a 5.35,5.35 0 0 1 -3.1,1 4.53,4.53 0 0 1 -3.21,-1 3.58,3.58 0 0 1 -1.11,-2.72 3.67,3.67 0 0 1 3.81,-3.91 3.59,3.59 0 0 1 3.72,3.7 z m -2.53,-1.83 a 1.37,1.37 0 0 0 -1.1,-0.5 1.52,1.52 0 0 0 -1,0.39 1.75,1.75 0 0 0 -0.48,1.23 h 3 a 1.7,1.7 0 0 0 -0.42,-1.12 z"
       id="path50"
       inkscape:connector-curvature="0"
       style="fill:#007934" />
    <path
       class="cls-4"
       d="m 99.26,114.64 a 2.29,2.29 0 1 1 3.92,1.65 2.26,2.26 0 0 1 -1.63,0.64 2.29,2.29 0 0 1 -2.29,-2.29 z"
       id="path52"
       inkscape:connector-curvature="0"
       style="fill:#007934" />
    <path
       class="cls-4"
       d="M 109.77,118.67 V 107.9 h 2.3 v 10.77 z"
       id="path54"
       inkscape:connector-curvature="0"
       style="fill:#007934" />
    <path
       class="cls-4"
       d="m 113.63,115 a 3.49,3.49 0 0 1 1.16,-2.73 4.42,4.42 0 0 1 3.07,-1.05 4.06,4.06 0 0 1 2.91,1.05 3.57,3.57 0 0 1 1.12,2.76 3.48,3.48 0 0 1 -1.2,2.81 4.38,4.38 0 0 1 -2.9,1 4.25,4.25 0 0 1 -3,-1.06 3.61,3.61 0 0 1 -1.16,-2.78 z m 2.45,0 q 0,2.43 1.74,2.43 c 1.08,0 1.63,-0.82 1.63,-2.47 0,-1.65 -0.56,-2.4 -1.66,-2.4 -1.1,0 -1.71,0.83 -1.71,2.44 z"
       id="path56"
       inkscape:connector-curvature="0"
       style="fill:#007934" />
    <path
       class="cls-4"
       d="m 129.76,116.66 v 1.68 a 6.79,6.79 0 0 1 -2.41,0.48 4.41,4.41 0 0 1 -3.1,-1 3.56,3.56 0 0 1 -1.13,-2.74 3.61,3.61 0 0 1 1.15,-2.74 4.1,4.1 0 0 1 3,-1.1 6.56,6.56 0 0 1 2.42,0.48 v 1.7 a 3.91,3.91 0 0 0 -1.83,-0.48 2.36,2.36 0 0 0 -1.64,0.57 2,2 0 0 0 -0.61,1.54 2.07,2.07 0 0 0 0.61,1.59 2.16,2.16 0 0 0 1.54,0.57 3.49,3.49 0 0 0 1.08,-0.18 z"
       id="path58"
       inkscape:connector-curvature="0"
       style="fill:#007934" />
    <path
       class="cls-4"
       d="m 135.3,113.79 c 0,-0.69 -0.42,-1 -1.26,-1 a 3.88,3.88 0 0 0 -2.71,1.17 v -1.84 a 6.05,6.05 0 0 1 3.21,-0.88 q 3.06,0 3.06,2.25 v 3.2 c 0,0.41 0.13,0.62 0.4,0.62 a 1.77,1.77 0 0 0 0.85,-0.44 v 1.28 a 4,4 0 0 1 -2.15,0.7 1.18,1.18 0 0 1 -1.29,-0.86 4.35,4.35 0 0 1 -2.41,0.86 2.15,2.15 0 0 1 -1.46,-0.53 1.63,1.63 0 0 1 -0.61,-1.26 1.9,1.9 0 0 1 0.67,-1.55 9.08,9.08 0 0 1 2.73,-1.19 l 1,-0.3 z m 0,1.35 a 5.87,5.87 0 0 0 -1.67,0.81 0.92,0.92 0 0 0 -0.36,0.71 0.8,0.8 0 0 0 0.22,0.57 0.75,0.75 0 0 0 0.58,0.22 1.82,1.82 0 0 0 1.23,-0.55 z"
       id="path60"
       inkscape:connector-curvature="0"
       style="fill:#007934" />
    <path
       class="cls-4"
       d="M 139.81,118.67 V 107.9 h 2.29 v 10.77 z"
       id="path62"
       inkscape:connector-curvature="0"
       style="fill:#007934" />
    <path
       class="cls-4"
       d="m 148,114.64 a 2.29,2.29 0 0 1 2.29,-2.29 2.32,2.32 0 0 1 2.28,2.29 2.19,2.19 0 0 1 -0.66,1.65 2.24,2.24 0 0 1 -1.62,0.64 2.21,2.21 0 0 1 -1.63,-0.67 2.23,2.23 0 0 1 -0.66,-1.62 z"
       id="path64"
       inkscape:connector-curvature="0"
       style="fill:#007934" />
    <path
       class="cls-4"
       d="m 157.75,111.37 h 1 V 111 a 3.24,3.24 0 0 1 0.84,-2.32 3.19,3.19 0 0 1 2.41,-0.89 9.88,9.88 0 0 1 1.4,0.16 v 1.86 a 8.38,8.38 0 0 0 -1,-0.1 c -0.93,0 -1.39,0.42 -1.39,1.27 v 0.43 h 1 v 1.57 h -1 v 5.73 h -2.3 v -5.73 h -1 z"
       id="path66"
       inkscape:connector-curvature="0"
       style="fill:#007934" />
    <path
       class="cls-4"
       d="m 162.85,115 a 3.49,3.49 0 0 1 1.16,-2.73 4.43,4.43 0 0 1 3.07,-1.05 4.06,4.06 0 0 1 2.91,1.05 3.57,3.57 0 0 1 1.12,2.76 3.48,3.48 0 0 1 -1.2,2.81 4.38,4.38 0 0 1 -2.9,1 4.25,4.25 0 0 1 -3,-1.06 3.61,3.61 0 0 1 -1.16,-2.78 z m 2.45,0 q 0,2.43 1.74,2.43 c 1.09,0 1.63,-0.82 1.63,-2.47 0,-1.65 -0.56,-2.4 -1.66,-2.4 -1.1,0 -1.71,0.83 -1.71,2.44 z"
       id="path68"
       inkscape:connector-curvature="0"
       style="fill:#007934" />
    <path
       class="cls-4"
       d="m 172.27,115 a 3.46,3.46 0 0 1 1.16,-2.73 4.4,4.4 0 0 1 3.07,-1.05 4.05,4.05 0 0 1 2.9,1.05 3.57,3.57 0 0 1 1.13,2.76 3.48,3.48 0 0 1 -1.2,2.81 4.4,4.4 0 0 1 -2.9,1 4.26,4.26 0 0 1 -3,-1.06 3.6,3.6 0 0 1 -1.16,-2.78 z m 2.44,0 q 0,2.43 1.74,2.43 c 1.09,0 1.63,-0.82 1.63,-2.47 0,-1.65 -0.55,-2.4 -1.66,-2.4 -1.11,0 -1.71,0.83 -1.71,2.44 z"
       id="path70"
       inkscape:connector-curvature="0"
       style="fill:#007934" />
    <path
       class="cls-4"
       d="m 187.09,111.71 v -3.81 h 2.3 v 10.77 h -2.3 v -0.59 a 3.36,3.36 0 0 1 -2.09,0.74 3.11,3.11 0 0 1 -2.41,-1 4,4 0 0 1 -0.94,-2.78 3.91,3.91 0 0 1 1,-2.7 3.32,3.32 0 0 1 2.59,-1.08 4.52,4.52 0 0 1 1.85,0.45 z m -3.09,3.22 a 2.82,2.82 0 0 0 0.47,1.74 1.56,1.56 0 0 0 1.27,0.61 2.18,2.18 0 0 0 1.37,-0.65 v -3.43 a 2.16,2.16 0 0 0 -1.34,-0.44 1.56,1.56 0 0 0 -1.29,0.59 2.42,2.42 0 0 0 -0.48,1.58 z"
       id="path72"
       inkscape:connector-curvature="0"
       style="fill:#007934" />
  </g>
</svg>
