<svg id="Calque_1" data-name="Calque 1" xmlns="http://www.w3.org/2000/svg" viewBox="0 0 337.96 154.12"><defs><style>.cls-1{fill:#e8471e;}.cls-2{fill:#491f18;}</style></defs><title>logo-fondblanc</title><path class="cls-1" d="M167.78,140.55a2.49,2.49,0,0,0,.47,1.26,2.72,2.72,0,0,0,2.19.76,4.7,4.7,0,0,0,1.51-.2,1.43,1.43,0,0,0,1.1-1.42,1,1,0,0,0-.54-.94,5.82,5.82,0,0,0-1.71-.57l-1.33-.29a8.28,8.28,0,0,1-2.69-.94,3,3,0,0,1-1.24-2.66,3.53,3.53,0,0,1,1.21-2.74,5.18,5.18,0,0,1,3.57-1.09,5.47,5.47,0,0,1,3.35,1,3.66,3.66,0,0,1,1.45,3h-2.47a1.76,1.76,0,0,0-1-1.57,3.39,3.39,0,0,0-1.53-.31,2.91,2.91,0,0,0-1.62.4,1.27,1.27,0,0,0-.61,1.12,1.05,1.05,0,0,0,.6,1,7.41,7.41,0,0,0,1.63.51l2.15.51a5.48,5.48,0,0,1,2.12.89,3,3,0,0,1,1.1,2.51,3.52,3.52,0,0,1-1.3,2.79,5.49,5.49,0,0,1-3.68,1.11,6,6,0,0,1-3.81-1.1,3.63,3.63,0,0,1-1.39-3Z" transform="translate(-7.01 -11.04)"/><path class="cls-1" d="M179,132.06h2.61v7.54a4.27,4.27,0,0,0,.3,1.85,2.49,2.49,0,0,0,4,0,4.27,4.27,0,0,0,.3-1.85v-7.54h2.61v7.55a6.33,6.33,0,0,1-.61,3q-1.13,2-4.32,2t-4.32-2a6.33,6.33,0,0,1-.61-3Z" transform="translate(-7.01 -11.04)"/><path class="cls-1" d="M201.28,139a4.68,4.68,0,0,1-3.08.9h-2.56v4.42H193.1V132.06h5.27a4.25,4.25,0,0,1,2.91.95,3.71,3.71,0,0,1,1.08,2.94A3.81,3.81,0,0,1,201.28,139Zm-2-4.42a2.07,2.07,0,0,0-1.37-.41h-2.31v3.62H198a2,2,0,0,0,1.37-.44,1.8,1.8,0,0,0,.49-1.4A1.69,1.69,0,0,0,199.32,134.6Z" transform="translate(-7.01 -11.04)"/><path class="cls-1" d="M215.21,134.24h-6.5v2.61h6V139h-6v3.16h6.8v2.21H206.2V132.06h9Z" transform="translate(-7.01 -11.04)"/><path class="cls-1" d="M227.08,132.38a3,3,0,0,1,1.15.86,3.82,3.82,0,0,1,.62,1,3.44,3.44,0,0,1,.23,1.29,3.68,3.68,0,0,1-.44,1.72,2.47,2.47,0,0,1-1.46,1.2,2.3,2.3,0,0,1,1.2,1,4,4,0,0,1,.35,1.92v.82a6.25,6.25,0,0,0,.07,1.14,1,1,0,0,0,.47.7v.31h-2.83q-.12-.41-.17-.66a6,6,0,0,1-.11-1.06l0-1.14a2.32,2.32,0,0,0-.41-1.57,2.07,2.07,0,0,0-1.46-.39h-2.51v4.81h-2.51V132.06h5.87A5.35,5.35,0,0,1,227.08,132.38Zm-5.3,1.82v3.3h2.76a2.94,2.94,0,0,0,1.23-.2,1.38,1.38,0,0,0,.73-1.38,1.55,1.55,0,0,0-.7-1.5,2.54,2.54,0,0,0-1.19-.22Z" transform="translate(-7.01 -11.04)"/><path class="cls-1" d="M232.33,138.46H237v2.25h-4.65Z" transform="translate(-7.01 -11.04)"/><path class="cls-1" d="M248.77,132.06h3.69v12.28h-2.39V136q0-.36,0-1t0-1l-2.33,10.31h-2.49L243,134q0,.35,0,1t0,1v8.31h-2.39V132.06h3.73l2.24,9.66Z" transform="translate(-7.01 -11.04)"/><path class="cls-1" d="M260.06,132.06H263l4.34,12.28h-2.78l-.81-2.52h-4.52l-.83,2.52h-2.68Zm-.17,7.64H263l-1.55-4.83Z" transform="translate(-7.01 -11.04)"/><path class="cls-1" d="M278.44,132.38a3,3,0,0,1,1.15.86,3.82,3.82,0,0,1,.62,1,3.44,3.44,0,0,1,.23,1.29,3.68,3.68,0,0,1-.44,1.72,2.47,2.47,0,0,1-1.46,1.2,2.3,2.3,0,0,1,1.2,1,4,4,0,0,1,.35,1.92v.82a6.24,6.24,0,0,0,.07,1.14,1,1,0,0,0,.47.7v.31H277.8q-.12-.41-.17-.66a6,6,0,0,1-.11-1.06l0-1.14a2.32,2.32,0,0,0-.41-1.57,2.07,2.07,0,0,0-1.46-.39h-2.51v4.81h-2.51V132.06h5.87A5.35,5.35,0,0,1,278.44,132.38Zm-5.3,1.82v3.3h2.76a2.94,2.94,0,0,0,1.23-.2,1.38,1.38,0,0,0,.73-1.38,1.55,1.55,0,0,0-.7-1.5,2.54,2.54,0,0,0-1.19-.22Z" transform="translate(-7.01 -11.04)"/><path class="cls-1" d="M285.77,133.34a5.73,5.73,0,0,1,8.26.52,4.43,4.43,0,0,1,.84,2.29H292.3a3.49,3.49,0,0,0-.63-1.33,2.79,2.79,0,0,0-4.19.33,5.51,5.51,0,0,0-.79,3.19,4.84,4.84,0,0,0,.84,3.09,2.62,2.62,0,0,0,2.12,1,2.41,2.41,0,0,0,2-.88,3.88,3.88,0,0,0,.64-1.42h2.55a5.53,5.53,0,0,1-1.69,3.27,4.9,4.9,0,0,1-3.47,1.26,5.21,5.21,0,0,1-4.12-1.7,8.06,8.06,0,0,1,.21-9.64Z" transform="translate(-7.01 -11.04)"/><path class="cls-1" d="M298.61,144.34V132.06h2.55v4.68h4.77v-4.68h2.55v12.28h-2.55v-5.48h-4.77v5.48Z" transform="translate(-7.01 -11.04)"/><path class="cls-1" d="M321.73,134.24h-6.5v2.61h6V139h-6v3.16H322v2.21h-9.31V132.06h9Zm-1.6-5.65-2.53,2.49h-1.72l1.6-2.49Z" transform="translate(-7.01 -11.04)"/><path class="cls-1" d="M174.17,159.5a4.68,4.68,0,0,1-3.08.9h-2.56v4.41H166V152.54h5.27a4.25,4.25,0,0,1,2.91.95,3.71,3.71,0,0,1,1.08,2.94A3.81,3.81,0,0,1,174.17,159.5Zm-2-4.42a2.07,2.07,0,0,0-1.37-.41h-2.31v3.62h2.31a2,2,0,0,0,1.37-.44,1.8,1.8,0,0,0,.49-1.4A1.69,1.69,0,0,0,172.21,155.08Z" transform="translate(-7.01 -11.04)"/><path class="cls-1" d="M182.52,152.54h2.9l4.34,12.28H187l-.81-2.52h-4.52l-.83,2.52h-2.68Zm-.17,7.64h3.14l-1.55-4.83Z" transform="translate(-7.01 -11.04)"/><path class="cls-1" d="M200.91,152.85a3,3,0,0,1,1.15.86,3.82,3.82,0,0,1,.62,1,3.44,3.44,0,0,1,.23,1.29,3.68,3.68,0,0,1-.44,1.72A2.47,2.47,0,0,1,201,159a2.3,2.3,0,0,1,1.2,1,4,4,0,0,1,.35,1.92v.82a6.25,6.25,0,0,0,.07,1.14,1,1,0,0,0,.47.7v.31h-2.83q-.12-.41-.17-.66a6,6,0,0,1-.11-1.06l0-1.14a2.32,2.32,0,0,0-.41-1.57,2.07,2.07,0,0,0-1.46-.39H195.6v4.81H193.1V152.54H199A5.35,5.35,0,0,1,200.91,152.85Zm-5.3,1.82V158h2.76a2.94,2.94,0,0,0,1.23-.2,1.38,1.38,0,0,0,.73-1.38,1.55,1.55,0,0,0-.7-1.5,2.54,2.54,0,0,0-1.19-.22Z" transform="translate(-7.01 -11.04)"/><path class="cls-1" d="M216,152.54v2.17h-3.67v10.1h-2.58v-10.1H206v-2.17Z" transform="translate(-7.01 -11.04)"/><path class="cls-1" d="M221.53,164.82H219V152.54h2.55Z" transform="translate(-7.01 -11.04)"/><path class="cls-1" d="M226.81,153.82a5.73,5.73,0,0,1,8.26.52,4.43,4.43,0,0,1,.84,2.29h-2.57a3.49,3.49,0,0,0-.63-1.33,2.79,2.79,0,0,0-4.19.33,5.51,5.51,0,0,0-.79,3.19,4.84,4.84,0,0,0,.84,3.09,2.62,2.62,0,0,0,2.12,1,2.4,2.4,0,0,0,2-.88,3.88,3.88,0,0,0,.64-1.42h2.55a5.53,5.53,0,0,1-1.69,3.27,4.9,4.9,0,0,1-3.47,1.26,5.21,5.21,0,0,1-4.12-1.7,8.06,8.06,0,0,1,.21-9.64Z" transform="translate(-7.01 -11.04)"/><path class="cls-1" d="M242,164.82h-2.55V152.54H242Z" transform="translate(-7.01 -11.04)"/><path class="cls-1" d="M254.36,159.5a4.68,4.68,0,0,1-3.08.9h-2.56v4.41h-2.55V152.54h5.27a4.25,4.25,0,0,1,2.91.95,3.71,3.71,0,0,1,1.08,2.94A3.81,3.81,0,0,1,254.36,159.5Zm-2-4.42a2.07,2.07,0,0,0-1.37-.41h-2.31v3.62H251a2,2,0,0,0,1.37-.44,1.8,1.8,0,0,0,.49-1.4A1.69,1.69,0,0,0,252.4,155.08Z" transform="translate(-7.01 -11.04)"/><path class="cls-1" d="M262.71,152.54h2.9L270,164.82h-2.78l-.81-2.52h-4.52l-.83,2.52h-2.68Zm-.17,7.64h3.14l-1.55-4.83Z" transform="translate(-7.01 -11.04)"/><path class="cls-1" d="M282.15,152.54v2.17h-3.67v10.1h-2.58v-10.1H272.2v-2.17Z" transform="translate(-7.01 -11.04)"/><path class="cls-1" d="M287.7,164.82h-2.55V152.54h2.55Z" transform="translate(-7.01 -11.04)"/><path class="cls-1" d="M291.8,152.55h8.76v2.16h-6.21v2.82h5.44v2.13h-5.44v5.15H291.8Z" transform="translate(-7.01 -11.04)"/><path class="cls-1" d="M84.11,139.91a4.75,4.75,0,0,1-2.72-6.14l4.4-10.24a4.75,4.75,0,0,1,8.86,3.41l-4.41,10.24a4.74,4.74,0,0,1-6.13,2.72" transform="translate(-7.01 -11.04)"/><path class="cls-1" d="M112.93,152.59a4.75,4.75,0,0,1-3.48-5.74l4.35-18.67a4.74,4.74,0,1,1,9.22,2.25l-4.34,18.67a4.75,4.75,0,0,1-4.33,3.61,4.85,4.85,0,0,1-1.41-.13" transform="translate(-7.01 -11.04)"/><path class="cls-1" d="M66.58,68.68C63.4,72,58.43,69,58.43,69c-4.79-2.86-10.3-5.66-10.3-5.66a5.94,5.94,0,0,0-2.55-.66A5.47,5.47,0,0,0,42,64.23a20.23,20.23,0,0,0-4.23,5.62,65,65,0,0,0-6,17.69,54.28,54.28,0,0,0-1.14,9.62,10.33,10.33,0,0,0,.08,1.46h0l0,.12a5.56,5.56,0,0,0,.29.6,16.78,16.78,0,0,0,1.37,2A48.65,48.65,0,0,0,37.62,107,70.54,70.54,0,0,0,52.42,117.8c3.25,1.72,6.24,2.58,7.73,2.54a2.2,2.2,0,0,0,1.08-.19c.08-.06.14,0,.36-.51,5.89-13.57,14.48-28.28,21.52-40.34a23,23,0,0,1,5.65-6.75,12.69,12.69,0,0,1,7.77-2.77,13.32,13.32,0,0,1,6.11,1.56,21.45,21.45,0,0,1,5.27,4,52.24,52.24,0,0,1,8.59,12.2,25,25,0,0,1,5.9-5.29,13.67,13.67,0,0,1,7.18-2.12,14.56,14.56,0,0,1,6.85,1.82,27.1,27.1,0,0,1,6.33,4.89c.8.81,1.59,1.65,2.36,2.5.78-1.33,1.53-2.63,2.26-3.91,3.12-5.42,5.78-10.25,8.73-14,2-2.44,4.13-4.64,7.39-5.69a7.17,7.17,0,0,1,2.14-.31,12.4,12.4,0,0,1,3.83.7,28.49,28.49,0,0,1,3.75,1.57,61.07,61.07,0,0,1,8.34,5.14,68.55,68.55,0,0,1,16.1,15.94c2.78,4.12,4.86,8.59,4.9,13.54a14.62,14.62,0,0,1-2.91,8.85,21,21,0,0,1-8.43,6.38,39.18,39.18,0,0,1-16.13,3.83,29.57,29.57,0,0,1-13.58-3.3,43.35,43.35,0,0,1-10.36-7.66c-1.71-1.67-3.31-3.4-4.84-5.13q-1,1.44-2,2.88a30.81,30.81,0,0,1-6.38,6.77,12.69,12.69,0,0,1-7.51,2.71A11.91,11.91,0,0,1,123.1,115a25.81,25.81,0,0,1-5.16-5.62c-.79-1.12-1.56-2.31-2.33-3.57l-.14.24a20.17,20.17,0,0,1-5.32,6.11,11.77,11.77,0,0,1-6.92,2.32,14.24,14.24,0,0,1-8-2.71,32.11,32.11,0,0,1-6.08-5.6,83.53,83.53,0,0,1-6-8A282.29,282.29,0,0,0,70.3,123.42,10.41,10.41,0,0,1,66,128.35a11.53,11.53,0,0,1-5.87,1.49h0a22.33,22.33,0,0,1-8-1.72,49.91,49.91,0,0,1-7.88-4,84.45,84.45,0,0,1-14.38-11.32,45.76,45.76,0,0,1-6.56-7.8,13.25,13.25,0,0,1-2-4.73,18.73,18.73,0,0,1-.22-3.08,71,71,0,0,1,2.25-15.67,65.71,65.71,0,0,1,6.89-17.74A23.92,23.92,0,0,1,38.64,55a14.11,14.11,0,0,1,6.95-1.87c2.22,0,6.63,1.58,6.63,1.58,10.28,4.31,17.54,10.64,14.37,14m87.36,30.93c3.73,4.2,7.63,7.87,11.86,10a20,20,0,0,0,9.27,2.26,29.69,29.69,0,0,0,12.22-3,11.7,11.7,0,0,0,4.72-3.39,5.05,5.05,0,0,0,1-3.18,14,14,0,0,0-2.41-6.89,43.84,43.84,0,0,0-6.79-8.28c-5.45-5.39-12.38-10-16.29-11.61a10.84,10.84,0,0,0-1.64-.56,10.42,10.42,0,0,0-2.4,2.36,67,67,0,0,0-5,7.63c-2,3.49-4.3,7.59-6.94,12,.76.9,1.53,1.8,2.31,2.67M123.77,101a24.6,24.6,0,0,0,5.1,6.5c.87.65,1.24.69,1.49.69a3.39,3.39,0,0,0,1.88-.86,21.82,21.82,0,0,0,4.33-4.71q1.74-2.39,3.33-4.81c-1.33-1.56-2.62-3-3.88-4.25A17.74,17.74,0,0,0,132,90.3a5,5,0,0,0-2.39-.71,4.16,4.16,0,0,0-2.23.73,15.24,15.24,0,0,0-3.33,3,42.42,42.42,0,0,0-2.65,3.42c.83,1.52,1.64,2.93,2.41,4.2M94.09,97.14a30.84,30.84,0,0,0,6.5,6.77,5,5,0,0,0,2.64,1.08,2.22,2.22,0,0,0,1.37-.53,10.93,10.93,0,0,0,2.72-3.29c1-1.71,2-3.36,3-4.94l-1.52-2.93A55,55,0,0,0,103,84a15.9,15.9,0,0,0-4.67-4.21,3.85,3.85,0,0,0-1.76-.51,3.2,3.2,0,0,0-2,.81,13.83,13.83,0,0,0-3.23,4l-2.82,4.84c1.76,2.73,3.66,5.62,5.61,8.2" transform="translate(-7.01 -11.04)"/><path class="cls-1" d="M147.17,162.84a4.74,4.74,0,0,1-4.52-5l2.44-53.19a4.75,4.75,0,0,1,9.48.43l-2.44,53.19a4.74,4.74,0,0,1-4.07,4.48,4.67,4.67,0,0,1-.88,0" transform="translate(-7.01 -11.04)"/><path class="cls-1" d="M17.12,59.84l-9-11.19a4.75,4.75,0,0,1,7.31-6.05l9,11.19a4.75,4.75,0,0,1-7.31,6" transform="translate(-7.01 -11.04)"/><path class="cls-1" d="M38.71,40.93l1.13-25.35a4.74,4.74,0,0,1,9.48.42L48.2,41.35a4.75,4.75,0,0,1-9.48-.42" transform="translate(-7.01 -11.04)"/><path class="cls-2" d="M202.66,62.27a4.69,4.69,0,0,1-1-6.57l11.42-15.83a4.69,4.69,0,1,1,7.53,5.6L209.23,61.3a4.69,4.69,0,0,1-6.57,1" transform="translate(-7.01 -11.04)"/><path class="cls-2" d="M217.27,120.73a15.38,15.38,0,0,1-4.76-4.09A25.42,25.42,0,0,1,208,105.4c-1.43-8.14-.76-17.42-.22-25.23v0c0-.17,0-.33,0-.47.64-7.88,3.52-14.19,7.93-18.38a20.41,20.41,0,0,1,15.89-5.62,24,24,0,0,1,16.48,9.1c2.2,2.71,4.15,5.24,5.77,7.62a32.1,32.1,0,0,1,3.75,6.93,12,12,0,0,1,.77,5,8.38,8.38,0,0,1-1.7,4.45A9.5,9.5,0,0,1,253,91.7c-2.78,1.2-5.85,1.5-9.76,1.46a231.53,231.53,0,0,0-24.57.77l-.4,0a4.76,4.76,0,0,1-1.61-.1c0,.87,0,1.73,0,2.58.12,5,.84,9.52,2.15,12.34a7.26,7.26,0,0,0,3,3.61,6.57,6.57,0,0,0,2.65.73,19.92,19.92,0,0,0,8.41-1.65A74.78,74.78,0,0,0,247,103.91a80.68,80.68,0,0,0,17.71-15.31,63.22,63.22,0,0,0,7.83-11.82,46.73,46.73,0,0,1,3.23-5.66,8.15,8.15,0,0,1,3.52-2.85,6.69,6.69,0,0,1,3-.44,8.67,8.67,0,0,1,4.14,1.59,23.59,23.59,0,0,1,3.24,2.74c2.22,2.17,4.88,5.19,8.54,9.37A4.75,4.75,0,0,1,291,87.77c-3-3.41-5.27-6-7-7.78-.62-.66-1.18-1.2-1.65-1.63-.88,1.62-2.13,4.19-3.94,7.21-4.21,7-11.65,16.67-26.27,26.26a84,84,0,0,1-15.94,8.53,29,29,0,0,1-12.56,2.23h0a16,16,0,0,1-6.39-1.86m5-52.5c-2.45,2.33-4.5,6.22-5,12.3,0,.12,0,.22,0,.31v0c-.09,1.21-.18,2.45-.26,3.7l.23,0a232.49,232.49,0,0,1,26.14-.87,22.76,22.76,0,0,0,4.48-.28,6.57,6.57,0,0,0,1-.26c0-.15-.09-.33-.17-.54a17.45,17.45,0,0,0-1.45-2.9,83,83,0,0,0-6.51-8.86,14.47,14.47,0,0,0-9.9-5.63,10.88,10.88,0,0,0-8.56,3" transform="translate(-7.01 -11.04)"/><path class="cls-2" d="M324.72,120.47a21.83,21.83,0,0,1-4-.72,35.75,35.75,0,0,1-17.21-10.43c-.54-.6-1-1.17-1.47-1.73a39.44,39.44,0,0,1-6.24,5.83,16.51,16.51,0,0,1-11.05,3.52c-4.17-.34-8-2.61-11.43-6.22-5.68-6-10.52-10.26-11.57-11.17l-.22-.18a4.75,4.75,0,0,1,6.13-7.25,170,170,0,0,1,12.57,12.09c2.42,2.54,4.1,3.17,5.31,3.27s2.68-.31,4.72-1.76A36.83,36.83,0,0,0,296.87,99c4.71-5.86,9.6-13.72,14.93-20.28a27.58,27.58,0,0,1,5-5,10.82,10.82,0,0,1,7.28-2.23,11.24,11.24,0,0,1,4.75,1.57,19.73,19.73,0,0,1,4.08,3.3,65,65,0,0,1,8.33,11.46,24.58,24.58,0,0,1,3.65,14.78,20.17,20.17,0,0,1-6.08,13.07,18,18,0,0,1-14,4.81h-.09m-14.19-17.52a26.18,26.18,0,0,0,12.69,7.65,12.62,12.62,0,0,0,2.29.41,8.49,8.49,0,0,0,6.79-2.25,10.69,10.69,0,0,0,3.14-6.95,15.1,15.1,0,0,0-2.31-9.07,70.93,70.93,0,0,0-5.57-8.13A14.79,14.79,0,0,0,324,81.26a1.85,1.85,0,0,0-.74-.3s-.14-.08-.94.46a19,19,0,0,0-3.19,3.29c-3.59,4.39-7.25,9.91-11,15.13a23.38,23.38,0,0,0,2.4,3.12" transform="translate(-7.01 -11.04)"/></svg>