<?xml version="1.0" encoding="utf-8"?>
<!-- Generator: Adobe Illustrator 24.0.1, SVG Export Plug-In . SVG Version: 6.00 Build 0)  -->
<svg version="1.1" xmlns="http://www.w3.org/2000/svg" xmlns:xlink="http://www.w3.org/1999/xlink" x="0px" y="0px"
	 viewBox="0 0 1295.4 329.1" style="enable-background:new 0 0 1295.4 329.1;" xml:space="preserve">
<style type="text/css">
	.st0{display:none;}
	.st1{display:inline;fill:#161616;stroke:#000000;stroke-miterlimit:10;}
	.st2{display:inline;}
	.st3{fill:#FF960B;}
	.st4{fill:#FFFFFF;}
	.st5{fill:#515151;}
	.st6{fill:#E6821E;}
	.st7{fill:#B43C0F;}
	.st8{fill:#666666;}
	.st9{fill:#999999;}
</style>
<g id="Ne_pas_altérer" class="st0">
</g>
<g id="Calque_1" class="st0">
	<g class="st2">
		<g>
			<path class="st3" d="M98.6,161c61.6-81.2,41.6-101.9,0.3-161C37.3,81.2,57.3,102,98.6,161"/>
			<path class="st3" d="M105.2,248c96.9-31.5,92.4-59.9,92.1-132C100.4,147.4,105,175.9,105.2,248"/>
			<path class="st3" d="M92.3,248C-4.6,216.5-0.1,188,0.2,115.9C97.1,147.4,92.5,175.9,92.3,248"/>
		</g>
		<g>
			<path class="st3" d="M401.5,165.1c0,5.6-0.3,10.2-1.3,14.5h-3.3h-27.1h-98.3c5.9,22.4,25.7,38.3,48.8,38.3
				c10.9,0,20.1-3,27.7-8.6H389c-14.2,23.8-39.6,38.6-68.6,38.6c-43.9,0-80.5-36.6-80.5-82.8S276.4,82,320.3,82
				C365.2,82,401.5,118.9,401.5,165.1z M271.5,150.3h98.3c-5.9-21.8-26.1-38.3-49.5-38.3C296.9,112,277.8,128.2,271.5,150.3z"/>
			<path class="st3" d="M424.3,329.1V82.3H454v18.5c14.2-11.5,31.3-18.5,51.1-18.5c43.9,0,79.9,37.3,79.9,82.8
				c0,45.9-36,82.5-79.9,82.5c-19.8,0-37-6.9-51.1-18.5v100H424.3z M454,158.2v13.5c3.6,26.1,24.7,45.9,51.1,45.9
				c28,0,50.8-23.8,50.8-52.5c0-29-22.8-52.8-50.8-52.8C478.7,112.3,457.6,132.8,454,158.2z"/>
			<path class="st3" d="M622.6,18.6c8.2,0,15.5,7.3,15.5,15.5c0,8.6-7.3,15.5-15.5,15.5c-8.6,0-15.5-6.9-15.5-15.5
				C607.1,25.9,614,18.6,622.6,18.6z M637.8,247h-29.7V82.3h29.7V247z"/>
			<path d="M775.7,200.8l13.9,29.4l-3.3,1.3c-14.2,10.2-30,15.5-46.9,15.5c-45.9,0-82.5-36.6-82.5-82.5c0-45.5,36.6-81.8,82.5-81.8
				c16.8,0,32.7,4.9,46.9,14.8l3.3,1.6l-13.9,28.4l-4.6-3.3c-8.9-7.6-20.1-11.2-31.7-11.2c-28.7,0-51.8,23.4-51.8,51.5
				c0,28.7,23.1,51.8,51.8,51.8c11.5,0,23.4-4.3,32.7-11.9L775.7,200.8z"/>
			<path d="M963.8,165.1c0,5.6-0.3,10.2-1.3,14.5h-3.3h-27.1h-98.3c5.9,22.4,25.7,38.3,48.8,38.3c10.9,0,20.1-3,27.7-8.6h40.9
				c-14.2,23.8-39.6,38.6-68.6,38.6c-43.9,0-80.5-36.6-80.5-82.8S838.7,82,882.6,82C927.5,82,963.8,118.9,963.8,165.1z M833.8,150.3
				h98.3c-5.9-21.8-26.1-38.3-49.5-38.3C859.2,112,840,128.2,833.8,150.3z"/>
			<path d="M1013.3,102.4c14.2-11.5,31.3-18.8,51.1-18.8v29c-28.7,0-48.5,23.8-51.1,51.8v82.8h-29.7V82h29.7V102.4z"/>
			<path d="M1100.7,18.6c8.2,0,15.5,7.3,15.5,15.5c0,8.6-7.3,15.5-15.5,15.5c-8.6,0-15.5-6.9-15.5-15.5
				C1085.2,25.9,1092.1,18.6,1100.7,18.6z M1115.9,247h-29.7V82.3h29.7V247z"/>
			<path d="M1295.4,164.8c0,45.9-36,82.2-79.9,82.2c-44.2,0-80.2-36.3-80.2-82.2c0-45.5,36-82.2,80.2-82.2
				C1259.4,82.6,1295.4,119.3,1295.4,164.8z M1266.4,164.8c0-28.7-22.8-52.1-50.8-52.1c-28.4,0-51.1,23.4-51.1,52.1
				c0,28.7,22.8,52.1,51.1,52.1C1243.6,216.9,1266.4,193.5,1266.4,164.8z"/>
		</g>
	</g>
</g>
<g id="Layer_3">
	<path class="st6" d="M91,110c-1.6,15.1,6.6,31.6,18.6,41.9c11.5,9.9,29.5,13.7,43.7,7.8c2.3-0.9,3.8-2.4,5.7-0.3
		c1.5,1.6,1.4,4.2,0.1,5.8c-3.7,4.2-15,4.9-20.1,5c-15.9,0.3-33-4.6-45.4-14.7C68.3,134.8,67.9,95.3,92,73.6
		c12.1-10.9,28.6-15.7,44.9-14.6c8,0.5,15.6,2.4,22.6,6.1c2.6,1.4,13.5,6.5,8.9,10.8c-2.5,2.4-5.5-0.9-7.5-2.3
		c-3.2-2.3-6.6-4.1-10.4-5.2c-8.7-2.5-18.6-1.7-27,1.5C106.5,76.5,92.8,92.7,91,110z"/>
	<path class="st7" d="M74.3,217.9c13.7,10.6,31.5,17.3,48.8,17.4c7.6,0,14.9-1.4,22-4.1c4.4-1.6,11.6-6.2,15-0.3
		c6,10.6-16.6,14.3-22.3,15.5c-15,3.2-30,2.6-45-0.7C62.4,238.9,34.6,221,18.2,194C-14.5,140.4,7.7,66.7,65.6,41.4
		c28.3-12.3,62.4-12.3,91.5-3.1c9.3,3,29.8,10.2,34.4,20.2c1.7,3.7,0.3,8.6-3.3,10.8c-4.8,3-6.7-0.6-10.4-3.6
		c-22.9-18.7-58.1-21.3-84.6-9c-27.7,12.8-51.7,39.3-57.1,68.4C30.1,158.6,46.6,196.4,74.3,217.9z"/>
	<path class="st6" d="M215.3,253.6c-15.6,0-27.1-4.1-34.5-12.4c-7.4-8.3-11-20.8-11-37.5c0-19.2,4.4-34.2,13.4-44.9
		c8.9-10.7,21.8-16,38.5-16c15.6,0,27.1,4.1,34.5,12.4c7.4,8.3,11,20.8,11,37.6c0,19.2-4.5,34.1-13.4,44.8
		C245,248.2,232.1,253.6,215.3,253.6z M219.4,239.1c8.2,0,14.2-3.1,17.8-9.3c3.7-6.2,5.5-15.7,5.5-28.7c0-14.8-1.9-25.9-5.7-33.1
		c-3.8-7.2-10.3-10.8-19.5-10.8c-8.2,0-14.2,3.1-17.8,9.3c-3.7,6.2-5.5,15.8-5.5,28.8c0,14.8,1.9,25.8,5.7,33
		C203.7,235.5,210.2,239.1,219.4,239.1z"/>
	<path class="st6" d="M373.1,207.9c0,14.5,0.6,23.4,1.7,26.7c1.2,3.3,3.5,4.8,6.9,4.4c0.9,1.7,1.3,3.4,1.3,5.1
		c0,2.7-2.1,4.7-6.2,6.2c-4.1,1.4-8.1,2.2-12,2.2c-2.5,0-4.4-0.5-5.5-1.5c-1.2-1-3-3.7-5.4-8.2c-5.8,3.3-11.7,5.9-17.9,7.9
		c-6.2,1.9-12.6,2.9-19.4,2.9c-8.9,0-15.9-2.5-20.8-7.4c-4.9-4.9-7.4-14-7.4-27.2c0-25.7-0.1-41.4-0.4-46.9
		c-0.3-5.5-0.8-9.3-1.8-11.4c-0.9-2.1-2.2-3.4-3.7-3.9s-3.2-0.8-5-0.8c-0.9-1.5-1.4-3.2-1.4-5.1c0-2.5,1.8-4.3,5.3-5.2
		c3.5-0.9,8.4-1.4,14.7-1.4c5,0,8.4,0.3,10.2,0.9c1.8,0.6,3,1.6,3.5,3c0.5,1.4,0.7,6.1,0.7,14.2v40.8c0,14.8,1.6,24.4,4.9,29
		c3.3,4.5,7.8,6.8,13.7,6.8c4.1,0,8.1-0.9,12-2.6c3.9-1.7,6.5-4.1,7.8-7.2c1.3-3.1,2-9.1,2-17.9c0-20.6-0.1-33.6-0.3-38.9
		c-0.2-5.3-0.7-9.1-1.5-11.4c-0.8-2.3-1.9-3.7-3.3-4.2c-1.4-0.5-3.1-0.8-5.3-0.8c-0.9-1.5-1.4-3.2-1.4-5.1c0-2.5,1.9-4.3,5.6-5.2
		c3.7-0.9,8.3-1.4,13.9-1.4c5,0,8.4,0.3,10.2,0.9c1.8,0.6,3,1.7,3.5,3.3c0.5,1.6,0.7,6.4,0.7,14.5V207.9z"/>
	<path class="st6" d="M424,144.4c0.4,3,0.4,6.2,0,9.5c5.3-3.3,11.1-6,17.2-8.1c6.1-2.1,13-3.1,20.7-3.1c13.1,0,22.9,3.6,29.3,10.8
		c6.4,7.2,9.6,19.2,9.6,36c0,21.8-4.3,37.9-13,48.3c-8.7,10.5-21.5,15.7-38.5,15.7c-4.6,0-8.5-0.3-11.7-0.8
		c-3.2-0.5-5.8-1.1-7.9-1.7c0.1,13.8,0.4,26,0.9,36.8h14.2c0.9,1.9,1.3,3.9,1.3,6.1c0,1.9-0.4,3.3-1.2,4c-0.8,0.7-2.3,1.1-4.5,1.1
		h-44.7c-0.9-2.3-1.4-4.5-1.4-6.5c0-1.6,0.4-2.8,1.2-3.5c0.8-0.8,2.1-1.1,3.9-1.1h7.5c0.6-10.7,0.9-25.3,0.9-43.7v-46.1
		c0-21.3-0.8-33.6-2.5-37c-1.7-3.4-4.8-5.1-9.5-5.1c-0.9-2-1.4-4.1-1.4-6.3c0-1.9,0.8-3.2,2.3-3.7
		C397.9,145.5,407.1,144.9,424,144.4z M429.6,232.9c2.7,1.8,5.8,3.3,9.4,4.4c3.6,1.2,7.6,1.7,12,1.7c9.6,0,16.2-2.9,19.9-8.8
		c3.7-5.8,5.5-15.9,5.5-30.3c0-15.6-1.9-26.7-5.8-33.1c-3.9-6.4-10.1-9.7-18.7-9.7c-4.3,0-8.1,0.8-11.6,2.5c-3.5,1.7-6.2,4.5-8,8.4
		c-1.8,3.9-2.8,9.4-2.8,16.5V232.9z"/>
	<path class="st6" d="M566.2,142.7c13.4,0,23.4,3.2,29.8,9.5c6.5,6.3,9.7,16.8,9.7,31.4c0,6.4-1.2,10.9-3.5,13.4
		c-2.3,2.5-7.4,3.8-15.1,3.8h-47.8c0.1,11.8,2.5,21,7.1,27.7c4.6,6.7,12.7,10.1,24.3,10.1c10.8,0,20.9-2.8,30.2-8.4
		c3.1,3.1,4.7,6.4,4.7,9.8c0,4.8-4,8.2-11.9,10.2c-8,1.9-17,2.9-27,2.9c-18.5,0-31.7-3.9-39.7-11.7c-8-7.8-12.1-21-12.1-39.5
		c0-18.2,4.5-32.6,13.6-43.2C537.4,148,550,142.7,566.2,142.7z M562,157.2c-7.2,0-12.7,2.6-16.4,7.7c-3.7,5.2-5.8,13.2-6.2,24.2
		h11.1c11.8,0,19.9-0.2,24.2-0.7c4.3-0.5,6.8-1.2,7.5-2.3c0.7-1.1,1-3.1,1-6.1c0-7.1-1.8-12.7-5.4-16.8
		C574.2,159.2,569,157.2,562,157.2z"/>
	<path class="st6" d="M626.6,186.3h54.7c0.9,2.5,1.4,5.6,1.4,9.3c0,2.9-0.5,4.8-1.6,5.8c-1.1,1-3.1,1.5-5.9,1.5h-53.5
		c-0.9-3-1.3-6.1-1.3-9.3c0-3,0.5-4.9,1.6-5.8C622.9,186.8,624.5,186.3,626.6,186.3z"/>
	<path class="st7" d="M745.6,253.6c-17.7,0-30.3-3.7-37.8-11.2c-7.5-7.5-11.2-20.2-11.2-38.2c0-20,4.7-35.2,14.2-45.7
		c9.4-10.5,23.8-15.7,43.1-15.7c9.4,0,16.3,0.9,20.5,2.6c4.3,1.8,6.4,4.4,6.5,7.9c0,4.3-1.5,8.4-4.5,12.3c-10.8-5.6-20-8.4-27.7-8.4
		c-10,0-17.1,3.2-21.4,9.6c-4.2,6.4-6.3,16.4-6.3,30c0,14,2.1,24.5,6.2,31.6c4.1,7.1,11.6,10.6,22.5,10.6c8.3,0,17.9-2.8,28.9-8.3
		c2.4,3.3,3.6,6.7,3.6,10.2c0,4.1-3.7,7.2-11.2,9.4C763.4,252.5,755,253.6,745.6,253.6z"/>
	<path class="st7" d="M830.2,240.3h11.5c0.9,1.9,1.4,3.9,1.4,6.1c0,1.9-0.4,3.3-1.2,4c-0.8,0.7-2.3,1.1-4.6,1.1h-42.5
		c-0.9-2.3-1.3-4.5-1.3-6.5c0-1.6,0.4-2.8,1.1-3.5c0.8-0.8,2.1-1.1,3.9-1.1h8c0.5-10,0.8-21.8,0.8-35.3c0-16.4-0.1-27.4-0.4-32.9
		c-0.3-5.5-0.8-9.3-1.8-11.4c-0.9-2.1-2.3-3.4-3.9-3.9s-3.8-0.8-6.3-0.8c-0.9-1.5-1.4-3.3-1.4-5.3c0-3,1.4-4.8,4.2-5.4
		c2.8-0.6,8.3-1,16.3-1c5.7,0,9.6,0.3,11.6,0.8c2,0.5,3.2,1.6,3.5,3c0.3,1.5,0.4,4,0.4,7.6V205C829.5,218.5,829.7,230.3,830.2,240.3
		z M814.9,125.9c-4.7,0-8.1-1-10.4-2.9c-2.2-1.9-3.4-4.8-3.4-8.4c0.1-4,1.5-7.1,4.3-9.5c2.8-2.4,6.8-3.6,11.9-3.6
		c5,0,8.6,1,10.8,3.1c2.2,2.1,3.2,4.8,3.2,8.3c0,3.9-1.3,7-4,9.5C824.8,124.7,820.6,125.9,814.9,125.9z"/>
	<path class="st7" d="M854.9,149.8c0-1.9,0.8-3.2,2.3-3.7c1.5-0.5,11.1-1.1,28.7-1.7c0.4,3.3,0.4,7.7,0,13.3
		c8-5.4,15.7-9.2,23.1-11.2c7.4-2.1,14.1-3.1,20.2-3.1c2,0,3.4,0.2,4.1,0.7c0.7,0.5,1,1.5,1,3.1c0,3.1-0.5,6.4-1.5,9.9
		c-1,3.5-2.1,5.8-3.5,6.7c-1.4,0.9-3.6,1.7-6.8,2.2c-3.2,0.5-5,0.6-5.6,0.3c-0.5-0.3-2.2-2.3-4.9-5.9c-6.4,0-11.6,2-15.6,6.1
		c-4,4.1-5.9,12.3-5.9,24.6c0.1,22.1,0.4,38.6,0.9,49.3h15.2c0.9,1.9,1.3,3.9,1.3,6.1c0,1.9-0.4,3.3-1.2,4c-0.8,0.7-2.3,1.1-4.5,1.1
		h-45.7c-0.9-2.3-1.4-4.5-1.4-6.5c0-1.6,0.4-2.8,1.2-3.5c0.8-0.8,2.1-1.1,3.9-1.1h7.5c0.6-10.7,0.9-24.8,0.9-42.2
		c0-21.3-0.8-33.6-2.5-37c-1.7-3.4-4.8-5.1-9.5-5.1C855.3,154,854.9,151.9,854.9,149.8z"/>
	<path class="st7" d="M990.7,253.6c-17.7,0-30.3-3.7-37.8-11.2c-7.5-7.5-11.2-20.2-11.2-38.2c0-20,4.7-35.2,14.2-45.7
		c9.4-10.5,23.8-15.7,43.1-15.7c9.4,0,16.3,0.9,20.5,2.6c4.3,1.8,6.4,4.4,6.5,7.9c0,4.3-1.5,8.4-4.5,12.3c-10.8-5.6-20-8.4-27.7-8.4
		c-10,0-17.1,3.2-21.4,9.6c-4.2,6.4-6.3,16.4-6.3,30c0,14,2.1,24.5,6.2,31.6c4.1,7.1,11.6,10.6,22.5,10.6c8.3,0,17.9-2.8,28.9-8.3
		c2.4,3.3,3.6,6.7,3.6,10.2c0,4.1-3.7,7.2-11.2,9.4C1008.5,252.5,1000,253.6,990.7,253.6z"/>
	<path class="st7" d="M1131.6,207.9c0,14.5,0.6,23.4,1.7,26.7c1.2,3.3,3.5,4.8,6.9,4.4c0.9,1.7,1.3,3.4,1.3,5.1
		c0,2.7-2.1,4.7-6.2,6.2c-4.1,1.4-8.1,2.2-12,2.2c-2.5,0-4.4-0.5-5.5-1.5s-3-3.7-5.4-8.2c-5.8,3.3-11.7,5.9-17.9,7.9
		c-6.2,1.9-12.6,2.9-19.4,2.9c-8.9,0-15.9-2.5-20.8-7.4c-4.9-4.9-7.4-14-7.4-27.2c0-25.7-0.1-41.4-0.4-46.9
		c-0.3-5.5-0.8-9.3-1.8-11.4c-0.9-2.1-2.2-3.4-3.7-3.9s-3.2-0.8-5-0.8c-0.9-1.5-1.4-3.2-1.4-5.1c0-2.5,1.8-4.3,5.3-5.2
		c3.5-0.9,8.4-1.4,14.7-1.4c5,0,8.4,0.3,10.2,0.9c1.8,0.6,3,1.6,3.5,3c0.5,1.4,0.7,6.1,0.7,14.2v40.8c0,14.8,1.6,24.4,4.9,29
		c3.3,4.5,7.8,6.8,13.7,6.8c4.1,0,8.1-0.9,12-2.6c3.9-1.7,6.5-4.1,7.8-7.2c1.3-3.1,2-9.1,2-17.9c0-20.6-0.1-33.6-0.3-38.9
		c-0.2-5.3-0.7-9.1-1.5-11.4c-0.8-2.3-1.9-3.7-3.3-4.2c-1.4-0.5-3.1-0.8-5.3-0.8c-0.9-1.5-1.4-3.2-1.4-5.1c0-2.5,1.9-4.3,5.6-5.2
		c3.7-0.9,8.3-1.4,13.9-1.4c5,0,8.4,0.3,10.2,0.9c1.8,0.6,3,1.7,3.5,3.3c0.5,1.6,0.7,6.4,0.7,14.5V207.9z"/>
	<path class="st7" d="M1190.7,240.3h11.5c0.9,1.9,1.4,3.9,1.4,6.1c0,1.9-0.4,3.3-1.2,4c-0.8,0.7-2.3,1.1-4.6,1.1h-42.5
		c-0.9-2.3-1.3-4.5-1.3-6.5c0-1.6,0.4-2.8,1.1-3.5c0.8-0.8,2.1-1.1,3.9-1.1h8c0.5-10,0.8-21.8,0.8-35.3c0-16.4-0.1-27.4-0.4-32.9
		c-0.3-5.5-0.8-9.3-1.8-11.4c-0.9-2.1-2.3-3.4-3.9-3.9c-1.7-0.5-3.8-0.8-6.3-0.8c-0.9-1.5-1.4-3.3-1.4-5.3c0-3,1.4-4.8,4.2-5.4
		c2.8-0.6,8.3-1,16.3-1c5.7,0,9.5,0.3,11.6,0.8c2,0.5,3.2,1.6,3.5,3c0.3,1.5,0.4,4,0.4,7.6V205
		C1189.9,218.5,1190.2,230.3,1190.7,240.3z M1175.3,125.9c-4.7,0-8.1-1-10.4-2.9c-2.2-1.9-3.4-4.8-3.4-8.4c0.1-4,1.5-7.1,4.3-9.5
		c2.8-2.4,6.8-3.6,11.9-3.6c5,0,8.7,1,10.8,3.1c2.2,2.1,3.2,4.8,3.2,8.3c0,3.9-1.3,7-4,9.5C1185.2,124.7,1181,125.9,1175.3,125.9z"
		/>
	<path class="st7" d="M1219.7,145.4h7.4l8.8-30.7c3,0.9,5.6,2.1,7.7,3.4c2.1,1.3,3.7,2.8,4.7,4.6c1,1.8,1.5,7.9,1.5,18.3v4.4h35.6
		c0.9,2.4,1.3,4.9,1.3,7.6c0,2.1-0.4,3.5-1.2,4.2c-0.8,0.7-2.4,1-4.8,1h-30.9v51.1c0,12.2,1.1,20.2,3.4,24.1
		c2.2,3.9,5.6,5.9,10.1,6.1c4.5,0.2,10-1.3,16.6-4.4c1.6,2.4,2.4,5,2.4,7.8c0,3.8-2.1,6.4-6.3,7.7c-4.2,1.3-10.9,1.9-19.9,1.9
		c-9.9,0-17.1-2-21.6-6.1c-4.5-4-6.8-11.6-6.8-22.6v-25.4c0-13.8-0.4-27.2-1.2-40.2h-10.6c-0.9-2.6-1.3-5.1-1.3-7.6
		c0-1.8,0.4-3.1,1.2-3.9C1216.5,145.9,1217.9,145.4,1219.7,145.4z"/>
</g>
</svg>
