<?xml version="1.0" encoding="utf-8"?>
<!-- Generator: Adobe Illustrator 24.0.1, SVG Export Plug-In . SVG Version: 6.00 Build 0)  -->
<svg version="1.1" id="Calque_1" xmlns="http://www.w3.org/2000/svg" xmlns:xlink="http://www.w3.org/1999/xlink" x="0px" y="0px"
	 viewBox="0 0 1295.4 329.1" style="enable-background:new 0 0 1295.4 329.1;" xml:space="preserve">
<style type="text/css">
	.st0{fill:#E5B900;}
	.st1{fill:#FFFFFF;}
	.st2{fill:#005499;}
</style>
<g id="XMLID_29_">
	<g id="XMLID_44_">
		<path id="XMLID_51_" class="st0" d="M109.1,266.5c0,12-9.8,21.8-21.8,21.8l0,0c-12.1,0-21.8-9.8-21.8-21.8v-35.7
			c0-12,9.8-21.8,21.8-21.8l0,0c12.1,0,21.8,9.8,21.8,21.8V266.5z"/>
		<path id="XMLID_50_" class="st0" d="M144.9,96.1c0,12-9.8,21.8-21.8,21.8l0,0c-12.1,0-21.8-9.8-21.8-21.8V60.4
			c0-12,9.8-21.8,21.8-21.8l0,0c12.1,0,21.8,9.8,21.8,21.8V96.1z"/>
		<path id="XMLID_49_" class="st0" d="M158.7,162.5c0,12.6-10.2,22.8-22.8,22.8H84.3c-12.6,0-22.8-10.2-22.8-22.8l0,0
			c0-12.6,10.2-22.8,22.8-22.8h51.6C148.5,139.7,158.7,149.9,158.7,162.5L158.7,162.5z"/>
		<path id="XMLID_48_" class="st0" d="M214.3,145.6c0,10.9-8.9,19.8-19.8,19.8l0,0c-11,0-19.8-8.9-19.8-19.8V94.1
			c0-10.9,8.9-19.8,19.8-19.8l0,0c11,0,19.8,8.9,19.8,19.8V145.6z"/>
		<path id="XMLID_47_" class="st0" d="M20.8,250.7L20.8,250.7C9.3,250.7,0,241.4,0,229.9l0-53.5c0-11.5,9.3-20.8,20.8-20.8h0
			c11.5,0,20.8,9.3,20.8,20.8v53.5C41.7,241.4,32.3,250.7,20.8,250.7z"/>
		<path id="XMLID_46_" class="st0" d="M184.5,242.8c0,12-9.8,21.8-21.8,21.8l0,0c-12.1,0-21.8-9.8-21.8-21.8v-17.8
			c0-12,9.8-21.8,21.8-21.8l0,0c12.1,0,21.8,9.8,21.8,21.8V242.8z"/>
		<path id="XMLID_45_" class="st0" d="M67.5,106c0,12-9.8,21.8-21.8,21.8l0,0c-12.1,0-21.8-9.8-21.8-21.8V88.2
			c0-12,9.8-21.8,21.8-21.8l0,0c12.1,0,21.8,9.8,21.8,21.8V106z"/>
	</g>
	<g id="XMLID_62_">
		<path id="XMLID_126_" class="st2" d="M517.6,108.8c-11.6,0-21.4,3.2-31.8,9.1c-4.8,2.8-8.5,5.9-10.9,9.4v-15.8H453v179h21.9v-69.2
			c2.4,3.5,6.4,6.7,11.6,9.7c10.3,5.9,20.7,9,31.9,9c18.3,0,33.7-6.5,46.5-19.3c12.9-12.9,19.2-28.4,19.2-46.3
			c0-17.9-6.6-33.5-19.4-46.3C551.7,115.3,535.9,108.8,517.6,108.8z M563.6,174.5c0,12.5-4.5,23.5-13.4,32.6
			c-8.9,9.1-19.7,13.7-32.2,13.7c-12.5,0-23.5-4.6-32.6-13.8c-9.1-9.1-13.8-20-13.8-32.5c0-12.4,4.6-23.4,13.8-32.7
			c9.1-9.3,20.1-14,32.5-14c12.4,0,23.2,4.7,32.2,13.8C559.1,151,563.6,162,563.6,174.5z"/>
		<rect id="XMLID_125_" x="621.2" y="84.8" class="st2" width="21.9" height="123.8"/>
		<path id="XMLID_73_" class="st2" d="M1060.1,47.2c-18.2,0-33.9,6.5-46.8,19.3c-12.9,12.8-19.5,28.2-19.5,45.8
			c0,17.3,6.4,32.4,19.1,45.5c12.5,13,28,19.2,46,19.2h2.3c18.2,0,33.7-6.2,46.1-19.1c12.5-13.1,18.9-28.4,18.9-45.9
			c0-17.6-6.5-32.9-19.3-45.7C1094,53.6,1078.3,47.2,1060.1,47.2z M1106,113c0,12.5-4.5,23.5-13.4,32.6
			c-8.9,9.1-19.7,13.7-32.2,13.7c-12.5,0-23.5-4.6-32.6-13.8c-9.1-9.1-13.8-20.1-13.8-32.5c0-12.4,4.6-23.4,13.8-32.8
			c9.1-9.3,20.1-14,32.5-14c12.4,0,23.2,4.7,32.2,13.8C1101.4,89.4,1106,100.4,1106,113z"/>
		<path id="XMLID_52_" class="st2" d="M903.2,102.4c-18.2,0-33.9,6.5-46.8,19.3c-12.9,12.8-19.5,28.2-19.5,45.8
			c0,17.3,6.4,32.4,19.1,45.5c12.5,13,28,19.2,46,19.2h2.3c18.2,0,33.7-6.2,46.1-19.1c12.5-13.1,18.9-28.4,18.9-45.9
			c0-17.6-6.5-32.9-19.3-45.7C937.1,108.8,921.4,102.4,903.2,102.4z M949.1,168.2c0,12.5-4.5,23.5-13.4,32.6
			c-8.9,9.1-19.7,13.7-32.2,13.7c-12.5,0-23.5-4.6-32.6-13.8c-9.1-9.1-13.8-20.1-13.8-32.5c0-12.4,4.6-23.4,13.8-32.8
			c9.1-9.3,20.1-14,32.5-14c12.4,0,23.2,4.7,32.2,13.8C944.5,144.6,949.1,155.7,949.1,168.2z"/>
		<path id="XMLID_70_" class="st2" d="M1275.9,97.5L1275.9,97.5c-12.8-12.8-28.6-19.3-46.9-19.3c-11.6,0-21.2,3.2-31.6,9.1
			c-4.8,2.8-5.9,5.9-10.7,9.4V80h-21.9v179.6h21.9v-68.8c4.9,3.5,6.2,6.7,11.4,9.7c10.3,5.9,20.7,9,31.8,9
			c18.4,0,33.6-6.5,46.5-19.3c12.9-12.9,19.1-28.4,19.1-46.3C1295.4,125.9,1288.7,110.3,1275.9,97.5z M1275.1,143.9
			c0,12.5-4.5,23.5-13.4,32.6c-8.9,9.1-19.7,13.7-32.2,13.7c-12.5,0-23.5-4.6-32.6-13.8c-9.1-9.1-13.8-20.1-13.8-32.5
			c0-12.4,4.6-23.4,13.8-32.7c9.1-9.3,20.1-14,32.5-14c12.4,0,23.2,4.7,32.2,13.8C1270.5,120.4,1275.1,131.4,1275.1,143.9z"/>
		<path id="XMLID_69_" class="st2" d="M789,172.1c-9.3,12.5-23.5,19.6-39,19.6c-26.7,0-48.5-21.7-48.5-48.5s21.8-48.5,48.5-48.5
			c14.3,0,27.8,6.3,37.1,17.2l2.4,2.8l15.6-13.1l-2.4-2.8c-13.1-15.5-32.3-24.4-52.6-24.4c-38,0-68.9,30.9-68.9,68.8
			S712.1,212,750,212c21.7,0,42.4-10.4,55.3-27.8l2.2-3l-16.3-12.1L789,172.1z"/>
		<path id="XMLID_64_" class="st2" d="M409.5,88c-13.1-15.5-32.3-24.4-52.6-24.4c-38,0-68.9,30.9-68.9,68.8
			c0,37.9,30.9,68.8,68.9,68.8c21.7,0,42.4-10.4,55.3-27.8l2.2-3l-16.4-12.1l-2.2,3c-9.3,12.5-23.5,19.6-39,19.6
			c-9.5,0-18.6-2.7-26.5-7.9l85.5-77.4L409.5,88z M386.9,94.3l-70.8,64.2c-5-7.8-7.7-16.7-7.7-26.1c0-26.7,21.8-48.5,48.5-48.5
			C367.9,84,378.4,87.6,386.9,94.3z"/>
		<circle id="XMLID_63_" class="st2" cx="632.6" cy="52.9" r="13"/>
	</g>
</g>
</svg>
