<svg id="96b047ee-92c4-4a44-b7f2-f8d8fe1d8ec1" data-name="Layer 1" xmlns="http://www.w3.org/2000/svg" viewBox="0 0 269.05 109.49"><title>logo</title><ellipse cx="183.93" cy="36.94" rx="2.64" ry="1.29" transform="translate(44.59 162.56) rotate(-53.4)" style="fill:#fff"/><ellipse cx="136.06" cy="29.64" rx="5.05" ry="2.5" transform="translate(103.15 164.94) rotate(-88.62)" style="fill:#fff"/><ellipse cx="147.27" cy="32.62" rx="5.05" ry="2.5" transform="translate(42.24 140.88) rotate(-58.35)" style="fill:#fff"/><ellipse cx="155.46" cy="40.84" rx="5.05" ry="2.5" transform="translate(-0.92 78.01) rotate(-28.09)" style="fill:#fff"/><ellipse cx="155.25" cy="69.2" rx="2.5" ry="5.05" transform="translate(13.58 163.11) rotate(-57.56)" style="fill:#fff"/><ellipse cx="146.92" cy="77.27" rx="2.5" ry="5.05" transform="translate(-19.08 75.98) rotate(-27.3)" style="fill:#fff"/><ellipse cx="135.65" cy="80.04" rx="5.05" ry="2.5" transform="translate(48.69 211.36) rotate(-87.03)" style="fill:#fff"/><ellipse cx="124.52" cy="76.75" rx="5.05" ry="2.5" transform="translate(-7.92 138.84) rotate(-56.77)" style="fill:#fff"/><ellipse cx="116.56" cy="68.3" rx="5.05" ry="2.5" transform="translate(-18.23 59.19) rotate(-26.5)" style="fill:#fff"/><ellipse cx="117.39" cy="39.96" rx="2.5" ry="5.05" transform="translate(18.58 114.89) rotate(-55.97)" style="fill:#fff"/><ellipse cx="125.95" cy="32.12" rx="2.5" ry="5.05" transform="translate(-1.47 57.82) rotate(-25.71)" style="fill:#fff"/><ellipse cx="145.3" cy="20.29" rx="4.43" ry="2.19" transform="translate(121.82 165.11) rotate(-88.74)" style="fill:#fff"/><ellipse cx="159.97" cy="29.2" rx="4.43" ry="2.19" transform="translate(51.44 150.29) rotate(-58.48)" style="fill:#fff"/><ellipse cx="158.49" cy="81.94" rx="2.19" ry="4.43" transform="translate(4.51 172.08) rotate(-57.68)" style="fill:#fff"/><ellipse cx="143.29" cy="89.91" rx="2.19" ry="4.43" transform="translate(-25.31 76.08) rotate(-27.42)" style="fill:#fff"/><ellipse cx="126.15" cy="89.13" rx="4.43" ry="2.19" transform="translate(30.86 210.69) rotate(-87.15)" style="fill:#fff"/><ellipse cx="111.73" cy="79.82" rx="4.43" ry="2.19" transform="translate(-16.16 129.8) rotate(-56.89)" style="fill:#fff"/><ellipse cx="114.5" cy="27.13" rx="2.19" ry="4.43" transform="translate(28.11 107.03) rotate(-56.1)" style="fill:#fff"/><ellipse cx="129.92" cy="19.59" rx="2.19" ry="4.43" transform="translate(4.45 58.57) rotate(-25.83)" style="fill:#fff"/><ellipse cx="153.18" cy="14.06" rx="1.88" ry="3.81" transform="translate(-0.29 3.66) rotate(-1.37)" style="fill:#fff"/><ellipse cx="169.91" cy="27.79" rx="3.81" ry="1.88" transform="translate(63.47 163.12) rotate(-61.1)" style="fill:#fff"/><ellipse cx="173.72" cy="75.36" rx="3.81" ry="1.88" transform="translate(-0.75 1.74) rotate(-0.57)" style="fill:#fff"/><ellipse cx="159.76" cy="91.9" rx="1.88" ry="3.81" transform="translate(0.79 185.17) rotate(-60.31)" style="fill:#fff"/><ellipse cx="139.37" cy="99.15" rx="1.88" ry="3.81" transform="translate(-30.92 83.1) rotate(-30.04)" style="fill:#fff"/><ellipse cx="118.1" cy="95.13" rx="3.81" ry="1.88" transform="translate(22.51 212.87) rotate(-89.78)" style="fill:#fff"/><ellipse cx="101.75" cy="80.95" rx="3.81" ry="1.88" transform="translate(-19.62 127.57) rotate(-59.52)" style="fill:#fff"/><ellipse cx="99.1" cy="33.29" rx="1.88" ry="3.81" transform="translate(64.06 131.78) rotate(-88.99)" style="fill:#fff"/><ellipse cx="113.51" cy="17.14" rx="1.88" ry="3.81" transform="translate(39.93 105.25) rotate(-58.72)" style="fill:#fff"/><ellipse cx="134.1" cy="10.46" rx="1.88" ry="3.81" transform="translate(11.22 65.16) rotate(-28.46)" style="fill:#fff"/><ellipse cx="161.64" cy="12.09" rx="3.22" ry="1.58" transform="translate(143.3 173.13) rotate(-87.78)" style="fill:#fff"/><ellipse cx="178.21" cy="30.35" rx="3.22" ry="1.58" transform="translate(56.9 164.38) rotate(-57.52)" style="fill:#fff"/><ellipse cx="175.58" cy="83.84" rx="1.58" ry="3.22" transform="translate(82.62 254.78) rotate(-86.99)" style="fill:#fff"/><ellipse cx="157.09" cy="100.17" rx="1.58" ry="3.22" transform="translate(-12.84 176.54) rotate(-56.72)" style="fill:#fff"/><ellipse cx="132.89" cy="104.94" rx="1.58" ry="3.22" transform="translate(-32.84 70.2) rotate(-26.46)" style="fill:#fff"/><ellipse cx="109.59" cy="96.88" rx="3.22" ry="1.58" transform="translate(5.65 199.79) rotate(-86.19)" style="fill:#fff"/><ellipse cx="93.53" cy="78.16" rx="3.22" ry="1.58" transform="translate(-23.61 111.85) rotate(-55.93)" style="fill:#fff"/><ellipse cx="97.47" cy="24.76" rx="1.58" ry="3.22" transform="translate(64.98 119.93) rotate(-85.4)" style="fill:#fff"/><ellipse cx="116.41" cy="8.95" rx="1.58" ry="3.22" transform="translate(42.52 99.35) rotate(-55.14)" style="fill:#fff"/><ellipse cx="140.73" cy="4.85" rx="1.58" ry="3.22" transform="translate(11.01 59.64) rotate(-24.87)" style="fill:#fff"/><ellipse cx="88" cy="71.41" rx="2.64" ry="1.29" transform="translate(-22.54 96.42) rotate(-51.81)" style="fill:#fff"/><ellipse cx="87.71" cy="42.17" rx="2.64" ry="1.29" transform="translate(-9.36 35.16) rotate(-21.54)" style="fill:#fff"/><ellipse cx="169.9" cy="14.9" rx="2.64" ry="1.29" transform="translate(136.32 182.11) rotate(-83.66)" style="fill:#fff"/><ellipse cx="172.65" cy="92.06" rx="1.29" ry="2.64" transform="translate(59.86 251.94) rotate(-82.87)" style="fill:#fff"/><ellipse cx="150.42" cy="105.79" rx="1.29" ry="2.64" transform="translate(-24.98 161.03) rotate(-52.6)" style="fill:#fff"/><ellipse cx="124.3" cy="106.43" rx="1.29" ry="2.64" transform="translate(-31.12 55.23) rotate(-22.34)" style="fill:#fff"/><ellipse cx="101.41" cy="93.83" rx="2.64" ry="1.29" transform="translate(-5.51 181.33) rotate(-82.07)" style="fill:#fff"/><ellipse cx="100.63" cy="16.62" rx="1.29" ry="2.64" transform="translate(68.94 113.57) rotate(-81.28)" style="fill:#fff"/><ellipse cx="123.23" cy="3.52" rx="1.29" ry="2.64" transform="translate(42.97 97.1) rotate(-51.02)" style="fill:#fff"/><ellipse cx="149.36" cy="3.6" rx="1.29" ry="2.64" transform="translate(8.42 53.15) rotate(-20.75)" style="fill:#fff"/><ellipse cx="175.58" cy="20.23" rx="2.12" ry="1.03" transform="translate(127.95 190.43) rotate(-80.94)" style="fill:#fff"/><ellipse cx="183.1" cy="76.58" rx="2.12" ry="1.03" transform="matrix(0.94, -0.35, 0.35, 0.94, -15.21, 68.66)" style="fill:#fff"/><ellipse cx="167.24" cy="97.67" rx="1.03" ry="2.12" transform="translate(42.39 245.73) rotate(-80.14)" style="fill:#fff"/><ellipse cx="142.92" cy="107.91" rx="1.03" ry="2.12" transform="translate(-31.69 147.66) rotate(-49.88)" style="fill:#fff"/><ellipse cx="116.75" cy="104.49" rx="1.03" ry="2.12" transform="translate(-28.3 45.26) rotate(-19.62)" style="fill:#fff"/><ellipse cx="95.88" cy="88.35" rx="2.12" ry="1.03" transform="translate(-8.67 166.25) rotate(-79.35)" style="fill:#fff"/><ellipse cx="89.76" cy="31.81" rx="2.12" ry="1.03" transform="translate(-5.46 30.66) rotate(-18.82)" style="fill:#fff"/><ellipse cx="106.19" cy="11.16" rx="1.03" ry="2.12" transform="translate(74.18 113.03) rotate(-78.56)" style="fill:#fff"/><ellipse cx="130.79" cy="1.61" rx="1.03" ry="2.12" transform="translate(42.57 98.18) rotate(-48.29)" style="fill:#fff"/><ellipse cx="156.85" cy="5.75" rx="1.03" ry="2.12" transform="translate(5.92 48.83) rotate(-18.03)" style="fill:#fff"/><ellipse cx="13.9" cy="33.08" rx="5.65" ry="2.56" transform="translate(-19.43 19.8) rotate(-45.47)" style="fill:#fff"/><path d="M37.13,42.21h4.14l-.12,5.34a10.4,10.4,0,0,1,9.66-5.88c6.78,0,12,5.52,12,12.9s-5.28,13-12.06,13a10.37,10.37,0,0,1-9.48-5.64V79.77H37.13ZM58.49,54.57c0-5.34-3.36-9.18-8.58-9.18s-8.82,3.84-8.82,9.18,3.54,9.3,8.82,9.3S58.49,60,58.49,54.57Z" style="fill:#fff"/><path d="M73.85,32.07a3,3,0,1,1,6,0,3,3,0,0,1-6,0Zm.9,10.14H79V67.05h-4.2Z" style="fill:#fff"/><path d="M90.89,54.63a12.74,12.74,0,0,1,12.9-13,11.9,11.9,0,0,1,9.78,4.44l-3,2.46a8,8,0,0,0-6.78-3.18c-5.28,0-8.58,4-8.58,9.24s3.3,9.24,8.58,9.24a8.73,8.73,0,0,0,7.14-3.24l2.88,2.46c-2.34,2.82-5.4,4.44-10,4.44A12.69,12.69,0,0,1,90.89,54.63Z" style="fill:#fff"/><path d="M136.55,64a10.15,10.15,0,0,0,7.86-3.3L147,63.21c-2.28,2.58-5.58,4.32-10.44,4.32-8.16,0-13.44-5.64-13.44-12.9a12.73,12.73,0,0,1,12.84-13c8,0,12.78,6.12,12.48,14.34H127.31C127.85,60.75,131.09,64,136.55,64Zm7.68-11.16c-.36-4.26-3.06-7.62-8.28-7.62-4.74,0-7.92,3.06-8.58,7.62Z" style="fill:#fff"/><path d="M160.13,42.21h4.2l-.12,5.1a9.51,9.51,0,0,1,8.94-5.64c5.52,0,9.3,3.78,9.3,10.26V67.05h-4.2V52.41c0-4.38-2-6.9-6.18-6.9-4.62,0-7.74,2.94-7.74,7.86V67.05h-4.2Z" style="fill:#fff"/><path d="M196.73,59.55V45.75h-3.84V42.21h3.84v-13h4.14v13h7v3.54h-7V59.61c0,3.3,1.14,4.32,2.94,4.32a4.52,4.52,0,0,0,3.36-1.44l2.28,2.64a8.07,8.07,0,0,1-6.06,2.46C199.61,67.59,196.73,65.43,196.73,59.55Z" style="fill:#fff"/><path d="M220,42.21h4.2L224,47.07c1.56-3.78,4.32-5.34,7.26-5.34a7.23,7.23,0,0,1,4.32,1.2L234,46.59a5.8,5.8,0,0,0-3.42-1c-3.54,0-6.42,2.52-6.42,8.34V67.05H220Z" style="fill:#fff"/><path d="M257.15,64a10.15,10.15,0,0,0,7.86-3.3l2.58,2.52c-2.28,2.58-5.58,4.32-10.44,4.32-8.16,0-13.44-5.64-13.44-12.9a12.73,12.73,0,0,1,12.84-13c8,0,12.78,6.12,12.48,14.34H247.91C248.45,60.75,251.69,64,257.15,64Zm7.68-11.16c-.36-4.26-3.06-7.62-8.28-7.62-4.74,0-7.92,3.06-8.58,7.62Z" style="fill:#fff"/><path d="M13.5,64a10.19,10.19,0,0,0,7.89-3.31L24,63.19c-2.29,2.59-5.6,4.34-10.48,4.34-8.2,0-13.5-5.66-13.5-13a12.78,12.78,0,0,1,12.9-13c8,0,12.83,6.14,12.53,14.4H4.22C4.76,60.72,8,64,13.5,64Zm7.71-11.2c-.36-4.28-3.07-7.66-8.31-7.66-4.77,0-8,3.08-8.62,7.66Z" style="fill:#fff"/><ellipse cx="183.93" cy="36.94" rx="2.64" ry="1.29" transform="translate(44.59 162.56) rotate(-53.4)" style="fill:#00ab80"/><ellipse cx="136.06" cy="29.64" rx="5.05" ry="2.5" transform="translate(103.15 164.94) rotate(-88.62)" style="fill:#0086b2"/><ellipse cx="147.27" cy="32.62" rx="5.05" ry="2.5" transform="translate(42.24 140.88) rotate(-58.35)" style="fill:#0086b2"/><ellipse cx="155.46" cy="40.84" rx="5.05" ry="2.5" transform="translate(-0.92 78.01) rotate(-28.09)" style="fill:#0086b2"/><ellipse cx="155.25" cy="69.2" rx="2.5" ry="5.05" transform="translate(13.58 163.11) rotate(-57.56)" style="fill:#0086b2"/><ellipse cx="146.92" cy="77.27" rx="2.5" ry="5.05" transform="translate(-19.08 75.98) rotate(-27.3)" style="fill:#0086b2"/><ellipse cx="135.65" cy="80.04" rx="5.05" ry="2.5" transform="translate(48.69 211.36) rotate(-87.03)" style="fill:#0086b2"/><ellipse cx="124.52" cy="76.75" rx="5.05" ry="2.5" transform="translate(-7.92 138.84) rotate(-56.77)" style="fill:#0086b2"/><ellipse cx="116.56" cy="68.3" rx="5.05" ry="2.5" transform="translate(-18.23 59.19) rotate(-26.5)" style="fill:#0086b2"/><ellipse cx="117.39" cy="39.96" rx="2.5" ry="5.05" transform="translate(18.58 114.89) rotate(-55.97)" style="fill:#0086b2"/><ellipse cx="125.95" cy="32.12" rx="2.5" ry="5.05" transform="translate(-1.47 57.82) rotate(-25.71)" style="fill:#0086b2"/><ellipse cx="145.3" cy="20.29" rx="4.43" ry="2.19" transform="translate(121.82 165.11) rotate(-88.74)" style="fill:#008daa"/><ellipse cx="159.97" cy="29.2" rx="4.43" ry="2.19" transform="translate(51.44 150.29) rotate(-58.48)" style="fill:#008daa"/><ellipse cx="158.49" cy="81.94" rx="2.19" ry="4.43" transform="translate(4.51 172.08) rotate(-57.68)" style="fill:#008daa"/><ellipse cx="143.29" cy="89.91" rx="2.19" ry="4.43" transform="translate(-25.31 76.08) rotate(-27.42)" style="fill:#008daa"/><ellipse cx="126.15" cy="89.13" rx="4.43" ry="2.19" transform="translate(30.86 210.69) rotate(-87.15)" style="fill:#008daa"/><ellipse cx="111.73" cy="79.82" rx="4.43" ry="2.19" transform="translate(-16.16 129.8) rotate(-56.89)" style="fill:#008daa"/><ellipse cx="114.5" cy="27.13" rx="2.19" ry="4.43" transform="translate(28.11 107.03) rotate(-56.1)" style="fill:#008daa"/><ellipse cx="129.92" cy="19.59" rx="2.19" ry="4.43" transform="translate(4.45 58.57) rotate(-25.83)" style="fill:#008daa"/><ellipse cx="153.18" cy="14.06" rx="1.88" ry="3.81" transform="translate(-0.29 3.66) rotate(-1.37)" style="fill:#0094a0"/><ellipse cx="169.91" cy="27.79" rx="3.81" ry="1.88" transform="translate(63.47 163.12) rotate(-61.1)" style="fill:#0094a0"/><ellipse cx="173.72" cy="75.36" rx="3.81" ry="1.88" transform="translate(-0.75 1.74) rotate(-0.57)" style="fill:#0094a0"/><ellipse cx="159.76" cy="91.9" rx="1.88" ry="3.81" transform="translate(0.79 185.17) rotate(-60.31)" style="fill:#0094a0"/><ellipse cx="139.37" cy="99.15" rx="1.88" ry="3.81" transform="translate(-30.92 83.1) rotate(-30.04)" style="fill:#0094a0"/><ellipse cx="118.1" cy="95.13" rx="3.81" ry="1.88" transform="translate(22.51 212.87) rotate(-89.78)" style="fill:#0094a0"/><ellipse cx="101.75" cy="80.95" rx="3.81" ry="1.88" transform="translate(-19.62 127.57) rotate(-59.52)" style="fill:#0094a0"/><ellipse cx="99.1" cy="33.29" rx="1.88" ry="3.81" transform="translate(64.06 131.78) rotate(-88.99)" style="fill:#0094a0"/><ellipse cx="113.51" cy="17.14" rx="1.88" ry="3.81" transform="translate(39.93 105.25) rotate(-58.72)" style="fill:#0094a0"/><ellipse cx="134.1" cy="10.46" rx="1.88" ry="3.81" transform="translate(11.22 65.16) rotate(-28.46)" style="fill:#0094a0"/><ellipse cx="161.64" cy="12.09" rx="3.22" ry="1.58" transform="translate(143.3 173.13) rotate(-87.78)" style="fill:#009b96"/><ellipse cx="178.21" cy="30.35" rx="3.22" ry="1.58" transform="translate(56.9 164.38) rotate(-57.52)" style="fill:#009b96"/><ellipse cx="175.58" cy="83.84" rx="1.58" ry="3.22" transform="translate(82.62 254.78) rotate(-86.99)" style="fill:#009b96"/><ellipse cx="157.09" cy="100.17" rx="1.58" ry="3.22" transform="translate(-12.84 176.54) rotate(-56.72)" style="fill:#009b96"/><ellipse cx="132.89" cy="104.94" rx="1.58" ry="3.22" transform="translate(-32.84 70.2) rotate(-26.46)" style="fill:#009b96"/><ellipse cx="109.59" cy="96.88" rx="3.22" ry="1.58" transform="translate(5.65 199.79) rotate(-86.19)" style="fill:#009b96"/><ellipse cx="93.53" cy="78.16" rx="3.22" ry="1.58" transform="translate(-23.61 111.85) rotate(-55.93)" style="fill:#009b96"/><ellipse cx="97.47" cy="24.76" rx="1.58" ry="3.22" transform="translate(64.98 119.93) rotate(-85.4)" style="fill:#009b96"/><ellipse cx="116.41" cy="8.95" rx="1.58" ry="3.22" transform="translate(42.52 99.35) rotate(-55.14)" style="fill:#009b96"/><ellipse cx="140.73" cy="4.85" rx="1.58" ry="3.22" transform="translate(11.01 59.64) rotate(-24.87)" style="fill:#009b96"/><ellipse cx="88" cy="71.41" rx="2.64" ry="1.29" transform="translate(-22.54 96.42) rotate(-51.81)" style="fill:#00a28b"/><ellipse cx="87.71" cy="42.17" rx="2.64" ry="1.29" transform="translate(-9.36 35.16) rotate(-21.54)" style="fill:#00a28b"/><ellipse cx="169.9" cy="14.9" rx="2.64" ry="1.29" transform="translate(136.32 182.11) rotate(-83.66)" style="fill:#00a28b"/><ellipse cx="172.65" cy="92.06" rx="1.29" ry="2.64" transform="translate(59.86 251.94) rotate(-82.87)" style="fill:#00a28b"/><ellipse cx="150.42" cy="105.79" rx="1.29" ry="2.64" transform="translate(-24.98 161.03) rotate(-52.6)" style="fill:#00a28b"/><ellipse cx="124.3" cy="106.43" rx="1.29" ry="2.64" transform="translate(-31.12 55.23) rotate(-22.34)" style="fill:#00a28b"/><ellipse cx="101.41" cy="93.83" rx="2.64" ry="1.29" transform="translate(-5.51 181.33) rotate(-82.07)" style="fill:#00a28b"/><ellipse cx="100.63" cy="16.62" rx="1.29" ry="2.64" transform="translate(68.94 113.57) rotate(-81.28)" style="fill:#00a28b"/><ellipse cx="123.23" cy="3.52" rx="1.29" ry="2.64" transform="translate(42.97 97.1) rotate(-51.02)" style="fill:#00a28b"/><ellipse cx="149.36" cy="3.6" rx="1.29" ry="2.64" transform="translate(8.42 53.15) rotate(-20.75)" style="fill:#00a28b"/><ellipse cx="175.58" cy="20.23" rx="2.12" ry="1.03" transform="translate(127.95 190.43) rotate(-80.94)" style="fill:#00ab80"/><ellipse cx="183.1" cy="76.58" rx="2.12" ry="1.03" transform="translate(-15.21 68.66) rotate(-20.41)" style="fill:#00ab80"/><ellipse cx="167.24" cy="97.67" rx="1.03" ry="2.12" transform="translate(42.39 245.73) rotate(-80.14)" style="fill:#00ab80"/><ellipse cx="142.92" cy="107.91" rx="1.03" ry="2.12" transform="translate(-31.69 147.66) rotate(-49.88)" style="fill:#00ab80"/><ellipse cx="116.75" cy="104.49" rx="1.03" ry="2.12" transform="matrix(0.94, -0.34, 0.34, 0.94, -28.3, 45.26)" style="fill:#00ab80"/><ellipse cx="95.88" cy="88.35" rx="2.12" ry="1.03" transform="translate(-8.67 166.25) rotate(-79.35)" style="fill:#00ab80"/><ellipse cx="89.76" cy="31.81" rx="2.12" ry="1.03" transform="translate(-5.46 30.66) rotate(-18.82)" style="fill:#00ab80"/><ellipse cx="106.19" cy="11.16" rx="1.03" ry="2.12" transform="translate(74.18 113.03) rotate(-78.56)" style="fill:#00ab80"/><ellipse cx="130.79" cy="1.61" rx="1.03" ry="2.12" transform="translate(42.57 98.18) rotate(-48.29)" style="fill:#00ab80"/><ellipse cx="156.85" cy="5.75" rx="1.03" ry="2.12" transform="translate(5.92 48.83) rotate(-18.03)" style="fill:#00ab80"/><ellipse cx="13.9" cy="33.08" rx="5.65" ry="2.56" transform="translate(-19.43 19.8) rotate(-45.47)" style="fill:#0086b2"/><path d="M37.13,42.21h4.14l-.12,5.34a10.4,10.4,0,0,1,9.66-5.88c6.78,0,12,5.52,12,12.9s-5.28,13-12.06,13a10.37,10.37,0,0,1-9.48-5.64V79.77H37.13ZM58.49,54.57c0-5.34-3.36-9.18-8.58-9.18s-8.82,3.84-8.82,9.18,3.54,9.3,8.82,9.3S58.49,60,58.49,54.57Z" style="fill:#603913"/><path d="M73.85,32.07a3,3,0,1,1,6,0,3,3,0,0,1-6,0Zm.9,10.14H79V67.05h-4.2Z" style="fill:#603913"/><path d="M90.89,54.63a12.74,12.74,0,0,1,12.9-13,11.9,11.9,0,0,1,9.78,4.44l-3,2.46a8,8,0,0,0-6.78-3.18c-5.28,0-8.58,4-8.58,9.24s3.3,9.24,8.58,9.24a8.73,8.73,0,0,0,7.14-3.24l2.88,2.46c-2.34,2.82-5.4,4.44-10,4.44A12.69,12.69,0,0,1,90.89,54.63Z" style="fill:#603913"/><path d="M136.55,64a10.15,10.15,0,0,0,7.86-3.3L147,63.21c-2.28,2.58-5.58,4.32-10.44,4.32-8.16,0-13.44-5.64-13.44-12.9a12.73,12.73,0,0,1,12.84-13c8,0,12.78,6.12,12.48,14.34H127.31C127.85,60.75,131.09,64,136.55,64Zm7.68-11.16c-.36-4.26-3.06-7.62-8.28-7.62-4.74,0-7.92,3.06-8.58,7.62Z" style="fill:#603913"/><path d="M160.13,42.21h4.2l-.12,5.1a9.51,9.51,0,0,1,8.94-5.64c5.52,0,9.3,3.78,9.3,10.26V67.05h-4.2V52.41c0-4.38-2-6.9-6.18-6.9-4.62,0-7.74,2.94-7.74,7.86V67.05h-4.2Z" style="fill:#603913"/><path d="M196.73,59.55V45.75h-3.84V42.21h3.84v-13h4.14v13h7v3.54h-7V59.61c0,3.3,1.14,4.32,2.94,4.32a4.52,4.52,0,0,0,3.36-1.44l2.28,2.64a8.07,8.07,0,0,1-6.06,2.46C199.61,67.59,196.73,65.43,196.73,59.55Z" style="fill:#603913"/><path d="M220,42.21h4.2L224,47.07c1.56-3.78,4.32-5.34,7.26-5.34a7.23,7.23,0,0,1,4.32,1.2L234,46.59a5.8,5.8,0,0,0-3.42-1c-3.54,0-6.42,2.52-6.42,8.34V67.05H220Z" style="fill:#603913"/><path d="M257.15,64a10.15,10.15,0,0,0,7.86-3.3l2.58,2.52c-2.28,2.58-5.58,4.32-10.44,4.32-8.16,0-13.44-5.64-13.44-12.9a12.73,12.73,0,0,1,12.84-13c8,0,12.78,6.12,12.48,14.34H247.91C248.45,60.75,251.69,64,257.15,64Zm7.68-11.16c-.36-4.26-3.06-7.62-8.28-7.62-4.74,0-7.92,3.06-8.58,7.62Z" style="fill:#603913"/><path d="M13.5,64a10.19,10.19,0,0,0,7.89-3.31L24,63.19c-2.29,2.59-5.6,4.34-10.48,4.34-8.2,0-13.5-5.66-13.5-13a12.78,12.78,0,0,1,12.9-13c8,0,12.83,6.14,12.53,14.4H4.22C4.76,60.72,8,64,13.5,64Zm7.71-11.2c-.36-4.28-3.07-7.66-8.31-7.66-4.77,0-8,3.08-8.62,7.66Z" style="fill:#603913"/></svg>