<?xml version="1.0" encoding="utf-8"?>
<!-- Generator: Adobe Illustrator 24.0.1, SVG Export Plug-In . SVG Version: 6.00 Build 0)  -->
<svg version="1.1" xmlns="http://www.w3.org/2000/svg" xmlns:xlink="http://www.w3.org/1999/xlink" x="0px" y="0px"
	 viewBox="0 0 1295.4 329.1" style="enable-background:new 0 0 1295.4 329.1;" xml:space="preserve">
<style type="text/css">
	.st0{display:none;}
	.st1{display:inline;fill:#161616;stroke:#000000;stroke-miterlimit:10;}
	.st2{fill:#FFFFFF;}
	.st3{fill:#1E8861;}
</style>
<g id="Ne_pas_altérer" class="st0">
</g>
<g id="Calque_1">
	<g>
		<polygon class="st3" points="31.3,20.6 31.3,144.3 100.1,144.3 100.1,160.1 13.5,160.1 13.5,20.6 31.3,20.6 		"/>
		<path class="st3" d="M200.2,114.7h-73.8c0.1,8.6,1.9,15.4,5.5,20.5c5.6,8.2,13.6,12.3,24.2,12.3c13,0,21.8-6.2,26.3-18.5h16
			c-2.1,10.5-6.9,18.7-14.4,24.5c-7.5,5.8-17,8.8-28.4,8.8c-15.2,0-26.8-5.2-34.9-15.6c-7.1-9.1-10.7-21.1-10.7-36
			c0-17.3,4.7-30.7,14-40.3c8.2-8.3,18.8-12.5,31.8-12.5c9.5,0,17.8,2.3,25,6.8c7.2,4.5,12.4,10.8,15.5,18.7
			c2.7,6.8,4.1,17,4.1,30.8V114.7L200.2,114.7z M183.1,101.7c0-8.7-2.6-15.8-7.7-21.1c-5.1-5.4-11.7-8.1-19.8-8.1
			c-8.2,0-14.8,2.6-20,7.9c-5.1,5.3-8,12.4-8.7,21.3H183.1L183.1,101.7z"/>
		<path class="st3" d="M275,20.6h17.7v102.5c0,11.8-3.4,21.2-10.3,28.3c-7.3,7.3-17.1,10.9-29.4,10.9c-12.5,0-22.2-3.8-29.2-11.3
			c-6.1-6.5-9.2-15-9.2-25.5v-10.1h18.1v6.8c0,16.8,7,25.1,20.9,25.1c7.7,0,13.4-2.9,17.1-8.6c2.9-4.4,4.3-11.8,4.3-22V20.6
			L275,20.6z"/>
		<path class="st3" d="M407.4,146.7v12.9c-4.4,1.6-7.9,2.3-10.3,2.3c-10.4,0-16-4.7-17-14.2c-7.1,9.7-18.5,14.6-34.1,14.6
			c-10.8,0-19.2-3-25.1-9c-5.2-5.2-7.8-11.9-7.8-20.1c0-9.4,3.3-16.6,9.9-21.6c3.8-2.9,11.6-5.7,23.6-8.4l32.7-7.4l0.2-8.4
			c0-10-7.5-15-22.6-15c-14.4,0-22.1,5.8-23.2,17.5h-16.2c0.4-8.8,2.6-15.6,6.6-20.3c6.9-7.9,18.1-11.9,33.5-11.9
			c25.1,0,37.6,9.1,37.6,27.3V141c0,4.9,2.1,7.4,6.4,7.4c0.5,0,1.9-0.4,4.1-1.2C406.6,147,407.1,146.8,407.4,146.7L407.4,146.7z
			 M379.5,108.9l-25.7,6.6c-9.2,2.3-15.6,4.7-19,7.2c-3.4,2.5-5.2,5.9-5.2,10.3c0,10.3,6.6,15.4,19.9,15.4c9.3,0,17.3-3.1,23.8-9.2
			c4.2-3.8,6.2-8.1,6.2-12.9V108.9L379.5,108.9z"/>
		<path class="st3" d="M423.5,60h14.8v18.3c5.8-13.8,15.1-20.7,27.7-20.7c1.6,0,3.4,0.2,5.7,0.6v16.4c-10.4,0.1-17.5,1.6-21.4,4.5
			c-7.1,5.2-10.7,14.9-10.7,29v52h-16V60L423.5,60z"/>
		<path class="st3" d="M569,20.6v139.5h-16v-13.8c-6.4,10.8-16.2,16.2-29.6,16.2c-14.7,0-26-5.3-33.9-16c-6.9-9.4-10.3-21.7-10.3-37
			c0-16.8,4.5-29.9,13.4-39.4c7.7-8.2,17.6-12.3,29.8-12.3c13.5,0,23.7,5.1,30.6,15.2V20.6H569L569,20.6z M525.2,72.6
			c-8.8,0-15.9,3.5-21.3,10.4c-5.4,6.9-8.1,16.1-8.1,27.6c0,11.8,3.1,21.1,9.4,27.9c5.3,6,12.1,9,20.3,9c8.5,0,15.2-3.3,20.2-9.9
			c5-6.6,7.5-15.6,7.5-26.9c0-12.3-2.9-21.9-8.6-28.8C539.4,75.7,533,72.6,525.2,72.6L525.2,72.6z"/>
		<path class="st3" d="M601.1,20.8c2.7,0,5,0.9,6.9,2.8c1.9,1.9,2.8,4.1,2.8,6.7c0,2.7-1,5-2.8,6.9c-1.9,1.9-4.2,2.8-6.9,2.8
			c-2.6,0-4.8-0.9-6.7-2.8c-1.9-1.9-2.8-4.2-2.8-6.9c0-2.6,0.9-4.8,2.8-6.7C596.3,21.8,598.5,20.8,601.1,20.8L601.1,20.8z M608.7,60
			v100.1h-15.8V60H608.7L608.7,60z"/>
		<path class="st3" d="M895.4,19.5c2.9,0,5.4,1,7.4,3c2,2,3,4.4,3,7.2c0,2.9-1,5.4-3,7.4c-2,2-4.5,3-7.4,3c-2.8,0-5.2-1-7.2-3
			c-2-2-3-4.5-3-7.4c0-2.8,1-5.2,3-7.2C890.2,20.5,892.6,19.5,895.4,19.5L895.4,19.5z"/>
		<path class="st3" d="M634.2,60H649v17c8.1-12.7,19.1-19.1,33.1-19.1c9.7,0,17.5,2.4,23.2,7.3c5.7,4.9,8.6,11.4,8.6,19.6v75.4
			h-15.8v-69c0-6-1.9-10.7-5.6-14.2c-3.7-3.5-8.7-5.3-15.1-5.3c-8.3,0-14.9,3.1-19.9,9.2c-4.9,6.1-7.4,14.2-7.4,24.4v54.9h-16V60
			L634.2,60z"/>
		<polygon class="st3" points="737.8,27.1 726.1,27.1 727.6,20.4 779.7,20.4 778.2,27.1 761,27.1 758.5,29 757.5,130.1 759.4,130.1 
			848.2,28.8 846.9,26.9 829.7,26.9 831.3,20.3 877.2,20.3 875.7,26.9 864.8,26.9 862.2,28.8 743.9,162.1 739.1,162.1 739.1,29 
			737.8,27.1 		"/>
		<path class="st3" d="M860.6,150.4c3.5-2.3,15.6-13.3,22.4-21.1h7.8c-8.2,9.4-23.2,24.8-32,30.8h-11.7c-5.3-3.5-5.6-11.7-1.6-22.6
			l25.7-61.6l-2.1-1.9c-1.6,1.4-7,6.6-19.7,21.8h-7.8c12.9-17.1,24-28.5,31.2-33.1h11.7c2.3,1,5.1,3.5,5.1,7.8c0,3.5-0.8,7-3.1,12.9
			l-28,65.1L860.6,150.4L860.6,150.4z"/>
		<path class="st3" d="M918.4,74c-1.6,1.4-6,6.6-13.8,17.9h-7.8c9.6-13.6,18.7-24.5,25.3-29.2h11.7c4.3,3.5,11.9,36.6,7.6,76
			l1.9,1.9c36.3-38.2,38.4-48.7,38.4-55.5c0-2.9-2-4.9-5.1-4.9h-8.2l-1.4-2l4.5-15.6h14.8c8.6,0,11.1,4.9,11.1,11.3
			c0,17.9-12.5,36.8-70.9,90l-2-2c4.7-55.7-0.4-80.9-4.3-88.1H918.4L918.4,74z"/>
		<path class="st3" d="M1070.6,115.3h-2.7c-16.4,29.2-33.7,46.8-52.2,46.8c-11.3,0-19.5-5.1-19.5-19.1c0-30.8,36.4-82.2,69.8-82.2
			c8.6,0,12.3,3.1,13.4,4.3h2l1.4-4.3h16.8l-24.9,86.1l2.1,2c2.3-2.3,9.7-10.9,16.6-19.5h7.8c-8.6,10.5-19.9,24.9-27.5,30.8h-11.7
			c-6.2-3.5-3.9-12.7,0-22.6L1070.6,115.3L1070.6,115.3z M1024.2,150c18.3,0,53.2-50.3,53.2-71.7c0-8.2-5.6-11.3-11.9-11.3
			c-21.8,0-49.9,51.1-49.9,73.3C1015.6,147.5,1019.3,150,1024.2,150L1024.2,150z"/>
		<path class="st3" d="M1170.7,151.9c0-4.1,1.6-9.2,4.1-16.6l13.6-39.6c1.9-5.5,4.1-12.1,4.1-15.6c0-3.9-1.4-6.6-5.3-6.6
			c-14.8,0-44.2,45.6-56.3,86.5h-14.8l24.2-84.2l-2.1-1.9c-1.6,1.4-8.8,8.6-17.5,21.4h-7.8c9.2-14.2,21.8-28.3,27.9-32.8h11.7
			c4.1,2.7,6.2,7.8-1,27.1l-9.2,24.6h2.7c7.6-18.1,28.3-53.6,53-53.6c9,0,13.6,6.2,13.6,13.3c0,5.9-3.3,14.6-7.2,25.7l-16.6,47.2
			l2.1,2c3.3-2,12.7-11.9,19.9-19.5h7.8c-8.2,9.6-22.4,24.9-30.8,30.8h-11.7C1172.6,159,1170.7,155.5,1170.7,151.9L1170.7,151.9z"/>
		<path class="st3" d="M1272.7,62.7h19.9l-2.1,7.8h-20.1l-22.2,76.4l2.1,2c3.1-2.3,14.6-14,21.6-21.4h7.8
			c-8.4,9.7-24,26.5-32.5,32.7h-11.7c-6.2-3.5-5.5-11.7-1.9-23l21.1-65.9h-16.4l-2.2-1.9l40.9-28.1h1.9L1272.7,62.7L1272.7,62.7z"/>
		<g>
			<path class="st3" d="M21,292.9h21.9c7.1,0,9.3-1.9,11.3-8.9l1.2-4.1h3.2l-4.7,18.2h-51l0.7-2.8h7.5l1.2-0.9l13.7-54.8l-0.6-0.8
				h-7.5l0.7-2.8h48.9l-4.5,17.4h-3.2l0.8-3.3c1.8-7.3,0.2-8.9-6.9-8.9H34l-5.7,22.7h19.2l1.1-0.8l1.5-6h3.1L48.7,275h-3.2l1.5-6
				l-0.6-0.8H27.2L21,292.9z M32.5,232.3l21-16.2l6,4.5l-25.3,12.9L32.5,232.3z"/>
			<path class="st3" d="M77.2,317.9H55.8l0.8-2.8h4.6l1.1-0.8l16.7-52l-0.9-0.8c-1,1-4.1,4.6-7,8.3h-3.3c3.6-4.5,8.5-10.6,11.7-13.1
				h5c1.8,1.5,1.1,5.1-0.7,9.6l-3.9,9.4h1.2c6.8-12.7,14.3-19.9,22.5-19.9c4.5,0,8,2.3,8,8.1c0,13-15.5,35-29.7,35
				c-3.6,0-6-1.8-6.5-2.8h-0.8l-4.5,18.2l0.6,0.8h7.7L77.2,317.9z M99.4,260.9c-7.8,0-22.5,21.3-22.5,30.4c0,3.6,2.3,4.9,5,4.9
				c9.3,0,21.2-21.7,21.2-31.2C103,261.9,101.4,260.9,99.4,260.9z"/>
		</g>
		<g>
			<path class="st3" d="M124.9,293.9c1.5-1,6.6-5.6,9.5-8.9h3.3c-3.5,4-9.9,10.5-13.6,13.1h-5c-2.2-1.5-2.4-5-0.7-9.6l9.8-26.2
				l-0.9-0.8c-0.7,0.6-3,2.8-8.4,9.3h-3.3c5.5-7.3,10.2-12.1,13.3-14.1h5c1,0.4,2.2,1.5,2.2,3.3c0,1.5-0.3,3-1.3,5.5L124,293.1
				L124.9,293.9z M132.8,235.9h9.1v9.1h-9.1V235.9z"/>
			<path class="st3" d="M180,267.9l-0.7,1.2l-8.1,1l0.2-3.8c0.3-4.9-0.7-7-3.9-7c-7.9,0-16.2,13.2-16.2,27.3c0,5.6,2.1,8.3,6.6,8.3
				c6.1,0,11.8-6.6,14.6-9.9h3.3c-3.3,4.3-10.1,13.9-20.9,13.9c-7,0-11.9-3.1-11.9-12.1c0-13.4,12.9-31,27.7-31
				C178.6,255.8,180.7,260.4,180,267.9z"/>
		</g>
		<g>
			<path class="st3" d="M219.3,263.4c0,7.3-6.7,11.3-27.1,15.1c-0.6,2.7-0.9,5.4-0.9,8.1c0,5.6,2.2,8.3,6.6,8.3
				c6.1,0,11.8-6.6,14.6-9.9h3.3c-3.3,4.3-10.1,13.9-20.8,13.9c-7.2,0-12-3.1-12-12.1c0-13.4,13.1-31,27-31
				C216.4,255.8,219.3,259.3,219.3,263.4z M193,275.5l0.7,0.7c16.4-4.6,18.6-8.9,18.6-13.6c0-2.6-1.3-4.3-4.1-4.3
				C202.4,258.3,196,265.9,193,275.5z"/>
			<path class="st3" d="M260,255.8l0.7,0.8l-2.2,7.4h-5c-8.5,0-16.7,16.3-22.5,34.1h-6.3l10-35.8l-0.9-0.8c-0.7,0.6-3.7,3.6-7.5,9.1
				h-3.3c3.9-6.1,9.3-12,11.8-13.9h5c1.7,1.2,1.8,3.4-0.9,11.6l-3.5,10.4h1.5c5.5-13.2,12-22,18.4-22.5L260,255.8z"/>
			<path class="st3" d="M267.8,293.9c1.5-1,6.6-5.6,9.5-8.9h3.3c-3.5,4-9.9,10.5-13.6,13.1h-5c-2.2-1.5-2.4-5-0.7-9.6l9.8-26.2
				l-0.9-0.8c-0.7,0.6-3,2.8-8.4,9.3h-3.3c5.5-7.3,10.2-12.1,13.3-14.1h5c1,0.4,2.2,1.5,2.2,3.3c0,1.5-0.3,3-1.3,5.5l-10.8,27.7
				L267.8,293.9z M275.8,235.9h9.1v9.1h-9.1V235.9z"/>
			<path class="st3" d="M322.6,263.4c0,7.3-6.7,11.3-27.1,15.1c-0.6,2.7-0.9,5.4-0.9,8.1c0,5.6,2.2,8.3,6.6,8.3
				c6.1,0,11.8-6.6,14.6-9.9h3.3c-3.3,4.3-10.1,13.9-20.8,13.9c-7.2,0-12-3.1-12-12.1c0-13.4,13.1-31,27-31
				C319.7,255.8,322.6,259.3,322.6,263.4z M296.3,275.5l0.7,0.7c16.4-4.6,18.6-8.9,18.6-13.6c0-2.6-1.3-4.3-4.1-4.3
				C305.7,258.3,299.3,265.9,296.3,275.5z"/>
		</g>
		<g>
			<path class="st3" d="M359.8,317.9h-21.5l0.8-2.8h4.6l1.1-0.8l16.7-52l-0.9-0.8c-1,1-4.1,4.6-7,8.3h-3.3
				c3.6-4.5,8.5-10.6,11.7-13.1h5c1.8,1.5,1.1,5.1-0.7,9.6l-3.9,9.4h1.2c6.8-12.7,14.3-19.9,22.5-19.9c4.5,0,8,2.3,8,8.1
				c0,13-15.5,35-29.7,35c-3.6,0-6-1.8-6.5-2.8h-0.8l-4.5,18.2l0.6,0.8h7.7L359.8,317.9z M381.9,260.9c-7.8,0-22.5,21.3-22.5,30.4
				c0,3.6,2.3,4.9,5,4.9c9.3,0,21.2-21.7,21.2-31.2C385.6,261.9,384,260.9,381.9,260.9z"/>
			<path class="st3" d="M427.8,279h-1.2c-7,12.4-14.3,19.9-22.2,19.9c-4.8,0-8.3-2.2-8.3-8.1c0-13.1,15.5-35,29.7-35
				c3.6,0,5.2,1.3,5.7,1.8h0.8l0.6-1.8h7.1l-10.6,36.6l0.9,0.8c1-1,4.1-4.6,7-8.3h3.3c-3.6,4.5-8.5,10.6-11.7,13.1h-5
				c-2.7-1.5-1.7-5.4,0-9.6L427.8,279z M408,293.7c7.8,0,22.6-21.4,22.6-30.5c0-3.5-2.4-4.8-5.1-4.8c-9.3,0-21.2,21.7-21.2,31.2
				C404.4,292.7,406,293.7,408,293.7z"/>
		</g>
		<g>
			<path class="st3" d="M483.2,255.8l0.7,0.8l-2.2,7.4h-5c-8.5,0-16.7,16.3-22.5,34.1h-6.3l10-35.8l-0.9-0.8
				c-0.7,0.6-3.7,3.6-7.5,9.1h-3.3c3.9-6.1,9.3-12,11.8-13.9h5c1.7,1.2,1.8,3.4-0.9,11.6l-3.5,10.4h1.5c5.5-13.2,12-22,18.4-22.5
				L483.2,255.8z"/>
			<path class="st3" d="M502.5,256.6h8.5l-0.9,3.3h-8.5l-9.4,32.5l0.9,0.8c1.3-1,6.2-6,9.2-9.1h3.3c-3.6,4.1-10.2,11.3-13.8,13.9h-5
				c-2.7-1.5-2.3-5-0.8-9.8l8.9-28h-7l-0.9-0.8l17.4-11.9h0.8L502.5,256.6z"/>
		</g>
		<g>
			<path class="st3" d="M520.7,293.9c1.5-1,6.6-5.6,9.5-8.9h3.3c-3.5,4-9.9,10.5-13.6,13.1h-5c-2.2-1.5-2.4-5-0.7-9.6l9.8-26.2
				l-0.9-0.8c-0.7,0.6-3,2.8-8.4,9.3h-3.3c5.5-7.3,10.2-12.1,13.3-14.1h5c1,0.4,2.2,1.5,2.2,3.3c0,1.5-0.3,3-1.3,5.5l-10.8,27.7
				L520.7,293.9z M528.6,235.9h9.1v9.1h-9.1V235.9z"/>
			<path class="st3" d="M575.8,267.9l-0.7,1.2l-8.1,1l0.2-3.8c0.3-4.9-0.7-7-3.9-7c-7.9,0-16.2,13.2-16.2,27.3
				c0,5.6,2.1,8.3,6.6,8.3c6.1,0,11.8-6.6,14.6-9.9h3.3c-3.3,4.3-10.1,13.9-20.9,13.9c-7,0-11.9-3.1-11.9-12.1
				c0-13.4,12.9-31,27.7-31C574.4,255.8,576.4,260.4,575.8,267.9z"/>
		</g>
		<g>
			<path class="st3" d="M588.7,293.9c1.5-1,6.6-5.6,9.5-8.9h3.3c-3.5,4-9.9,10.5-13.6,13.1h-5c-2.2-1.5-2.4-5-0.7-9.6l9.8-26.2
				l-0.9-0.8c-0.7,0.6-3,2.8-8.4,9.3h-3.3c5.5-7.3,10.2-12.1,13.3-14.1h5c1,0.4,2.2,1.5,2.2,3.3c0,1.5-0.3,3-1.3,5.5l-10.8,27.7
				L588.7,293.9z M596.7,235.9h9.1v9.1h-9.1V235.9z"/>
			<path class="st3" d="M617.5,317.9H596l0.8-2.8h4.6l1.1-0.8l16.7-52l-0.9-0.8c-1,1-4.1,4.6-7,8.3h-3.3c3.6-4.5,8.5-10.6,11.7-13.1
				h5c1.8,1.5,1.1,5.1-0.7,9.6l-3.9,9.4h1.2c6.8-12.7,14.3-19.9,22.5-19.9c4.5,0,8,2.3,8,8.1c0,13-15.5,35-29.7,35
				c-3.6,0-6-1.8-6.5-2.8h-0.8l-4.5,18.2l0.6,0.8h7.7L617.5,317.9z M639.6,260.9c-7.8,0-22.5,21.3-22.5,30.4c0,3.6,2.3,4.9,5,4.9
				c9.3,0,21.2-21.7,21.2-31.2C643.2,261.9,641.7,260.9,639.6,260.9z"/>
			<path class="st3" d="M685.3,279h-1.2c-7,12.4-14.3,19.9-22.2,19.9c-4.8,0-8.3-2.2-8.3-8.1c0-13.1,15.5-35,29.7-35
				c3.6,0,5.2,1.3,5.7,1.8h0.8l0.6-1.8h7.1l-10.6,36.6l0.9,0.8c1-1,4.1-4.6,7-8.3h3.3c-3.6,4.5-8.5,10.6-11.7,13.1h-5
				c-2.7-1.5-1.7-5.4,0-9.6L685.3,279z M665.5,293.7c7.8,0,22.6-21.4,22.6-30.5c0-3.5-2.4-4.8-5.1-4.8c-9.3,0-21.2,21.7-21.2,31.2
				C661.9,292.7,663.5,293.7,665.5,293.7z"/>
			<path class="st3" d="M722.2,256.6h8.5l-0.9,3.3h-8.5l-9.4,32.5l0.9,0.8c1.3-1,6.2-6,9.2-9.1h3.3c-3.6,4.1-10.2,11.3-13.8,13.9h-5
				c-2.7-1.5-2.3-5-0.8-9.8l8.9-28h-7l-0.9-0.8l17.4-11.9h0.8L722.2,256.6z"/>
			<path class="st3" d="M740.6,293.9c1.5-1,6.6-5.6,9.5-8.9h3.3c-3.5,4-9.9,10.5-13.6,13.1h-5c-2.2-1.5-2.4-5-0.7-9.6l9.8-26.2
				l-0.9-0.8c-0.7,0.6-3,2.8-8.4,9.3h-3.3c5.5-7.3,10.2-12.1,13.3-14.1h5c1,0.4,2.2,1.5,2.2,3.3c0,1.5-0.3,3-1.3,5.5l-10.8,27.7
				L740.6,293.9z M748.5,235.9h9.1v9.1h-9.1V235.9z"/>
			<path class="st3" d="M765.4,261.4c-0.7,0.6-2.6,2.8-5.9,7.6h-3.3c4.1-5.8,8-10.4,10.8-12.4h5c1.8,1.5,5.1,15.6,3.2,32.3l0.8,0.8
				c15.4-16.2,16.3-20.7,16.3-23.6c0-1.2-0.8-2.1-2.2-2.1h-3.5l-0.6-0.8l1.9-6.6h6.3c3.6,0,4.7,2.1,4.7,4.8
				c0,7.6-5.3,15.7-30.2,38.3l-0.8-0.8c2-23.7-0.2-34.4-1.8-37.5H765.4z"/>
		</g>
		<g>
			<path class="st3" d="M836.6,263.4c0,7.3-6.7,11.3-27.1,15.1c-0.6,2.7-0.9,5.4-0.9,8.1c0,5.6,2.2,8.3,6.6,8.3
				c6.1,0,11.9-6.6,14.6-9.9h3.3c-3.3,4.3-10.1,13.9-20.8,13.9c-7.2,0-12-3.1-12-12.1c0-13.4,13.1-31,27-31
				C833.8,255.8,836.6,259.3,836.6,263.4z M810.3,275.5l0.7,0.7c16.4-4.6,18.6-8.9,18.6-13.6c0-2.6-1.3-4.3-4.1-4.3
				C819.8,258.3,813.3,265.9,810.3,275.5z"/>
		</g>
	</g>
</g>
</svg>
