<?xml version="1.0" encoding="utf-8"?>
<!-- Generator: Adobe Illustrator 24.0.1, SVG Export Plug-In . SVG Version: 6.00 Build 0)  -->
<svg version="1.1" xmlns="http://www.w3.org/2000/svg" xmlns:xlink="http://www.w3.org/1999/xlink" x="0px" y="0px"
	 viewBox="0 0 330.6 329.1" style="enable-background:new 0 0 330.6 329.1;" xml:space="preserve">
<style type="text/css">
	.st0{display:none;}
	.st1{display:inline;fill:#161616;stroke:#000000;stroke-miterlimit:10;}
	.st2{fill:#D09522;}
	.st3{fill:#FFFFFF;}
</style>
<g id="Ne_pas_altérer" class="st0">
</g>
<g id="Calque_1">
	<g>
		<circle class="st2" cx="166.1" cy="164.6" r="164.5"/>
		<g>
			<g>
				<path class="st3" d="M162.5,118.4c0.9,0,1.7-0.2,2.4-0.6c0.8-0.4,1.5-1,2.1-1.7c0.2-0.3,0.5-0.5,0.7-0.8
					c0.2,0.9,0.6,1.6,1.3,2.1c0.9,0.7,2.1,1,3.7,1c1,0,1.9-0.2,2.9-0.7c0.9-0.5,1.8-1,2.6-1.7c0.8-0.7,1.5-1.5,2.2-2.3
					c0.7-0.8,1.2-1.6,1.6-2.3c0.1-0.1,0.1-0.2,0.1-0.3c0-0.1,0-0.2,0-0.3c0-0.3-0.1-0.6-0.4-0.8c-0.2-0.2-0.5-0.3-0.8-0.3
					c-0.2,0-0.4,0.1-0.6,0.2c-0.2,0.1-0.3,0.3-0.4,0.5c-0.3,0.5-0.7,1.1-1.2,1.8c-0.5,0.7-1.1,1.3-1.8,1.9c-0.7,0.6-1.4,1.1-2.2,1.5
					c-0.8,0.4-1.6,0.6-2.4,0.6c-0.5,0-0.9-0.1-1-0.2c-0.2-0.1-0.2-0.3-0.2-0.5c0-0.2,0.1-0.6,0.2-1c0.1-0.4,0.2-0.8,0.3-1.1
					c0.8-0.2,1.5-0.4,2.3-0.9c0.8-0.4,1.4-1,2.1-1.6c0.6-0.6,1.1-1.3,1.5-2.1c0.4-0.8,0.6-1.6,0.6-2.4c0-0.4-0.1-0.8-0.2-1.3
					c-0.1-0.4-0.3-0.8-0.5-1.2c-0.2-0.3-0.5-0.6-0.8-0.8c-0.3-0.2-0.7-0.3-1.2-0.3c-0.8,0-1.5,0.2-2.2,0.6c-0.6,0.4-1.3,0.9-1.8,1.6
					c-1.1,1.2-2,3-2.8,5.2c0,0,0,0.1-0.1,0.1c-0.7,1.3-1.4,2.4-2.1,3.3c-0.7,1-1.6,1.7-2.8,2.3c0.2-1,0.6-2.1,1-3.4
					c0.4-1.2,0.9-2.5,1.4-3.9c0.5-1.3,1-2.7,1.5-4.1c0.5-1.4,1-2.7,1.4-4c0.4-1.3,0.8-2.5,1-3.6c0.3-1.1,0.4-2.1,0.4-3
					c0-0.6-0.1-1.2-0.4-1.6c-0.3-0.4-0.7-0.6-1.4-0.6c-0.3,0-0.5,0.1-0.7,0.2c-0.2,0.1-0.3,0.3-0.4,0.5c-1.4,3.5-2.6,6.5-3.5,9
					c-0.9,2.5-1.7,4.7-2.4,6.7c-0.5,1.6-0.9,2.9-1.1,4.1c-0.2,1.1-0.3,2.1-0.3,2.9c0,0.9,0.2,1.7,0.6,2.3
					C161,118,161.6,118.4,162.5,118.4z M173.7,107.7c0.5-1,1-1.9,1.6-2.5c0.2,0.3,0.3,0.7,0.3,1.1c0,0.2,0,0.5-0.1,0.7
					c-0.1,0.2-0.1,0.4-0.2,0.6c-0.3,0.7-0.7,1.3-1.2,1.8c-0.5,0.5-1.1,1-1.7,1.3C172.7,109.7,173.2,108.7,173.7,107.7z"/>
				<path class="st3" d="M278.3,124c0.4,0,0.7-0.1,1.1-0.3c0.2,0,0.6-0.3,1.3-0.7c0.7-0.4,1.5-0.9,2.4-1.5c0.9-0.6,1.8-1.3,2.7-2
					c0.9-0.7,1.7-1.5,2.3-2.2c0.9-1.2,0.8-2.3-0.5-3.2c-0.5-0.4-1.1-0.6-1.7-0.5c-0.6,0.1-1.1,0.4-1.5,0.9c-0.4,0.5-0.9,1-1.5,1.6
					c-0.7,0.6-1.4,1.1-2.1,1.6c-0.7,0.5-1.4,0.9-2.1,1.3c-0.6,0.4-1.1,0.6-1.5,0.8c-0.6,0.3-0.9,0.8-1.1,1.4
					c-0.2,0.6-0.1,1.2,0.1,1.8C276.7,123.6,277.4,124,278.3,124z"/>
				<path class="st3" d="M291.3,140c-0.5-0.5-1-0.7-1.6-0.7c-0.4,0-0.8,0.1-1.1,0.3c-0.4,0.2-0.6,0.5-0.8,0.9
					c-0.6,1.1-1.4,2.3-2.5,3.6c-1,1.3-2.2,2.6-3.5,3.8c-1.3,1.2-2.8,2.2-4.3,3c-1.5,0.8-3.2,1.2-4.8,1.2c-1.1,0-1.8-0.1-2.1-0.3
					c-0.3-0.2-0.5-0.6-0.5-1c0-0.5,0.1-1.1,0.3-1.9c0.2-0.8,0.4-1.6,0.5-2.2c1.5-0.3,3-0.9,4.6-1.8c1.5-0.9,2.9-1.9,4.1-3.2
					c1.2-1.3,2.2-2.7,2.9-4.2c0.7-1.5,1.1-3.2,1.1-4.8c0-0.8-0.1-1.6-0.3-2.5c-0.2-0.9-0.5-1.6-1-2.3c-0.4-0.7-1-1.2-1.7-1.7
					c-0.7-0.4-1.5-0.6-2.4-0.6c-1.6,0-3.1,0.4-4.4,1.2c-1.3,0.8-2.5,1.9-3.7,3.2c-2.2,2.5-4.1,5.9-5.6,10.4
					c-0.1,0.1-0.1,0.2-0.2,0.3c-1.3,2.5-2.7,4.8-4.2,6.7s-3.3,3.4-5.5,4.5c0.4-1.6,0.8-3.2,1.5-4.9c0.6-1.6,1.3-3.2,1.9-4.9
					c0.6-1.6,1.1-3.3,1.6-5c0.4-1.7,0.6-3.4,0.6-5c0-1-0.1-1.9-0.3-2.7c-0.2-0.8-0.6-1.5-1.1-2.1c-0.5-0.6-1.1-1.1-1.9-1.4
					c-0.8-0.4-1.8-0.5-3-0.5c-1.9,0-4.1,1.3-6.6,3.8c0.5-1.5,1-3.3,1.7-5.4c0.7-2.1,1.3-4.2,2-6.3c0.6-2.1,1.2-4.2,1.6-6.1
					c0.5-1.9,0.7-3.5,0.7-4.7c0-0.8-0.2-1.5-0.6-2.2c-0.4-0.6-1.1-1-1.9-1c-0.9,0-1.9,0.6-2.8,1.8c-1,1.2-1.9,2.7-2.9,4.7
					c-1,2-2,4.2-3,6.8c-1,2.6-2,5.2-2.9,8c-1.1,3.3-2.2,6.6-3.1,9.8c-0.7,2.3-1.3,4.4-1.8,6.4c-0.6,1-1.3,2-2.2,3.2
					c-1,1.3-2.2,2.6-3.5,3.8c-1.3,1.2-2.8,2.2-4.3,3c-1.5,0.8-3.2,1.2-4.8,1.2c-1.1,0-1.8-0.1-2.1-0.3c-0.3-0.2-0.5-0.6-0.5-1.2
					c0-1.4,0.3-2.9,0.8-4.7c0.5-1.8,1.1-3.6,1.9-5.3c0.9-2.1,1.9-4.1,3-6c1.1-1.9,2.1-3.4,2.9-4.5c0.3,0.1,0.5,0.4,0.5,0.8
					c0.1,0.4,0.1,0.9,0.1,1.5c0,0.6,0,1-0.1,1.4c-0.1,0.4-0.1,0.7-0.1,1.1c0,0.6,0.2,1.1,0.7,1.6c0.4,0.5,1,0.7,1.6,0.7
					c0.6,0,1.1-0.2,1.4-0.5c0.3-0.3,0.6-0.7,0.7-1.2c0.2-0.5,0.2-1,0.3-1.6c0-0.6,0-1,0-1.4c0-0.9-0.1-1.7-0.3-2.6
					c-0.2-0.8-0.6-1.6-1-2.2c-0.5-0.6-1-1.1-1.7-1.5c-0.7-0.4-1.5-0.6-2.5-0.6c-1.8,0-3.4,0.4-4.8,1.3c-1.4,0.9-2.7,2-3.9,3.5
					c-1.1,1.4-2.1,3-3,4.8c-0.8,1.8-1.5,3.5-2,5.3c0,0.1-0.1,0.1-0.1,0.2c-1.3,2.5-2.7,4.8-4.2,6.7c-1.5,2-3.3,3.4-5.5,4.5
					c0.5-1.7,1.1-3.5,1.8-5.4c0.7-1.9,1.4-3.8,2-5.6c0.6-1.9,1.1-3.6,1.6-5.3c0.4-1.6,0.6-3,0.6-4.2c0-0.7-0.1-1.4-0.2-2.1
					c-0.1-0.7-0.4-1.4-0.7-1.9c-0.3-0.6-0.8-1.1-1.3-1.4c-0.6-0.4-1.3-0.5-2.2-0.5c-0.4,0-0.7,0.1-1,0.3c-0.3,0.2-0.5,0.4-0.8,0.6
					c-0.1,0.1-0.3,0.3-0.6,0.6c-0.3,0.3-0.7,0.6-1.3,1c-0.5,0.4-1.2,0.7-1.9,1c-0.8,0.3-1.6,0.5-2.6,0.6c0.5-1.4,1-2.8,1.5-4
					c0.5-1.2,0.8-2.5,0.8-3.8c0-0.9-0.3-1.7-0.8-2.4c-0.5-0.7-1.3-1-2.2-1c-1.2,0-2.3,0.3-3.4,0.9c-1.1,0.6-2,1.3-2.8,2.3
					c-0.8,0.9-1.5,2-2,3.2c-0.5,1.2-0.8,2.3-0.8,3.4c0,1.1,0.2,2.1,0.7,3c0.5,0.9,1.3,1.6,2.4,2c-0.8,1.6-1.5,3.1-2.2,4.6
					c-0.7,1.4-1.2,2.5-1.6,3.1c-1.3,2.5-2.7,4.8-4.2,6.7c-1.4,1.9-3.3,3.4-5.6,4.4c0.2-0.8,0.5-1.7,0.8-2.7c0.4-1,0.7-2,1-2.9
					c0.3-0.9,0.6-1.8,0.8-2.6c0.2-0.8,0.3-1.4,0.3-1.9c0-1.5-0.5-2.6-1.6-3.4c-1.1-0.8-2.3-1.2-3.8-1.2c-0.9,0-1.5,0.4-2,1.1
					c-0.4,0.6-1.1,1.5-2.2,3c-1.1,1.4-2.3,2.9-3.7,4.4c-1.3,1.5-2.6,2.9-3.9,4.2c-1.3,1.2-2.3,1.9-3,2.1v-0.5c0-1.7,0.2-3.5,0.7-5.4
					c0.5-1.9,1.1-3.8,1.9-5.7c0.8-1.9,1.7-3.7,2.7-5.4c1-1.7,2.1-3.3,3.3-4.6c0.4,0.4,0.6,1.1,0.6,2.2c0,0.3-0.1,0.7-0.2,1.1
					c-0.1,0.4-0.2,0.9-0.2,1.3c0,0.6,0.2,1.1,0.7,1.6c0.5,0.5,1,0.7,1.7,0.7c0.6,0,1-0.2,1.4-0.5c0.4-0.3,0.7-0.8,0.8-1.3
					c0.2-0.8,0.3-1.7,0.3-2.7c0-1.9-0.5-3.5-1.4-5c-0.9-1.4-2.3-2.1-4.3-2.1c-2.3,0-4.4,0.8-6.3,2.3c-1.9,1.5-3.5,3.5-4.9,5.9
					c-1.3,2.4-2.4,4.9-3.2,7.7c-0.8,2.8-1.1,5.3-1.1,7.7c0,2,0.6,3.8,1.7,5.3c1.1,1.5,2.8,2.2,4.9,2.2c1.3,0,2.8-0.6,4.5-1.8
					c1.7-1.2,3.7-3.1,6.2-5.8c-0.1,0.3-0.1,0.5-0.1,0.8s0,0.6,0,0.8c0,0.8,0.1,1.5,0.2,2.2c0.2,0.7,0.4,1.4,0.9,1.9
					c0.4,0.6,1,1,1.7,1.4c0.7,0.3,1.6,0.5,2.7,0.5c1.7,0,3.4-0.4,4.9-1.3c1.5-0.9,2.9-2,4.2-3.4c1.3-1.4,2.5-2.9,3.5-4.5
					c1.1-1.6,2-3.3,2.9-4.8c0.5-0.9,1.1-2.1,1.8-3.6c0.8-1.5,1.6-3.3,2.4-5.1c0.3,0.1,0.5,0.1,0.7,0.1s0.5,0,0.7,0
					c0.8,0,1.5-0.1,2.2-0.2c0.7-0.1,1.4-0.3,2-0.5c-1.3,3.9-2.4,7.2-3.2,10c-0.8,2.8-1.3,5.2-1.3,7.1c0,1.7,0.4,3.1,1.2,4.4
					c0.8,1.2,2.3,1.9,4.3,1.9c1.7,0,3.4-0.4,4.9-1.3c1.5-0.9,2.9-2,4.2-3.4c0.5-0.5,0.9-1,1.4-1.6c0.1,0.6,0.3,1.2,0.5,1.7
					c0.5,1,1.1,1.9,2,2.6c0.8,0.7,1.8,1.1,3,1.4c1.1,0.3,2.4,0.5,3.8,0.5c2,0,3.9-0.5,5.9-1.4c1.9-0.9,3.7-2.1,5.4-3.4
					c0.4-0.3,0.8-0.7,1.2-1c-0.3,1.5-0.5,2.5-0.5,2.9c0,0.8,0.2,1.4,0.6,2c0.4,0.6,1,0.9,1.9,0.9c0.6,0,1.3-0.4,1.9-1.1
					c0.7-0.7,1.4-1.8,2.2-3.1c0.8-1.3,1.7-2.9,2.6-4.7c0.9-1.8,2-3.8,3.1-5.9c1.2-2,2.3-3.7,3.3-5.1c1-1.4,1.9-2.5,2.7-3.4
					c0.8-0.9,1.5-1.6,2-2c0.6-0.5,1-0.8,1.4-1c-0.2,0.6-0.3,1.2-0.5,1.8c-0.2,0.6-0.4,1.2-0.7,1.9c-0.3,0.7-0.6,1.6-1,2.6
					c-0.4,1-0.8,2.3-1.3,3.8c-0.7,1.9-1.3,3.8-1.7,5.5c-0.4,1.7-0.6,3.3-0.6,4.7c0,1.6,0.4,2.9,1.1,3.9c0.4,0.5,0.9,1,1.7,1.5
					c0.8,0.5,1.8,0.7,3.1,0.7c1.7,0,3.4-0.4,4.9-1.3c1.5-0.9,2.9-2,4.2-3.4c0.5-0.5,0.9-1,1.4-1.6c0.4,1.8,1.2,3.2,2.5,4.2
					c1.8,1.3,4.3,2,7.3,2c1.9,0,3.8-0.5,5.7-1.4c1.9-0.9,3.6-2.1,5.3-3.5c1.6-1.4,3.1-2.9,4.4-4.6c1.3-1.6,2.4-3.2,3.2-4.6
					c0.1-0.2,0.2-0.4,0.2-0.5c0-0.2,0.1-0.3,0.1-0.5C292.1,141,291.8,140.5,291.3,140z M275.1,135.3c1-2.1,2.1-3.7,3.3-5.1
					c0.4,0.7,0.5,1.4,0.5,2.3c0,0.5-0.1,0.9-0.2,1.4c-0.1,0.5-0.3,0.9-0.4,1.2c-0.6,1.4-1.4,2.6-2.5,3.7c-1,1.1-2.1,1.9-3.3,2.5
					C273.3,139.4,274.2,137.4,275.1,135.3z"/>
				<path class="st3" d="M140.3,201c-0.3-0.2-0.6-0.3-0.9-0.2c-0.2,0.1-0.6,0.1-1.3,0.2c-0.6,0.1-1.3,0.1-2,0.1c-0.7,0-1.4,0-2.1,0
					c-0.7,0-1.2-0.1-1.5-0.2c-0.3-0.1-0.6-0.1-0.9,0.1c-0.3,0.2-0.5,0.4-0.6,0.8c-0.1,0.3-0.1,0.6,0.1,0.9c0.2,0.3,0.4,0.5,0.8,0.6
					c0.5,0.1,1.2,0.2,2,0.3c0.9,0,1.7,0,2.6,0c0.9,0,1.6-0.1,2.3-0.1c0.7-0.1,1-0.1,1.1-0.1c0.1,0,0.2,0,0.3-0.1
					c0.1,0,0.1-0.1,0.2-0.1c0.4-0.3,0.6-0.7,0.5-1.2C140.7,201.4,140.6,201.2,140.3,201z"/>
				<path class="st3" d="M227.6,224.8c-0.1,0-0.3,0-0.4,0.1c-0.2,0-0.3,0.1-0.4,0.1c-1.2,0.3-2.5,0.8-3.8,1.4
					c-1.3,0.7-2.6,1.3-3.8,1.7c-1.7,0.6-3.6,1.3-5.4,1.9c-1.9,0.6-3.8,1.2-5.8,1.6c-2,0.5-3.9,0.9-5.9,1.2c-1.9,0.3-3.9,0.4-5.7,0.4
					c-4,0-7.8-0.6-11.5-1.8c-3.7-1.2-7.3-2.6-10.9-4.2c2.2-3.4,4.3-7.1,6.1-10.9c1.8-3.8,3.5-7.7,5-11.7c1.5-4,2.9-8,4.2-12
					c1.3-4,2.6-8,3.8-11.9c0.1-0.3,0.4-1.1,0.8-2.4c0.4-1.3,0.9-2.6,1.4-4.1c0.5-1.4,0.9-2.8,1.3-3.9c0.4-1.2,0.6-1.8,0.6-1.9
					c0-0.6-0.2-1.1-0.6-1.5c-0.4-0.4-0.9-0.6-1.4-0.6c-1.1,0-2.2,0.6-3.3,1.7c-1.1,1.1-2.1,2.4-3.1,3.9c-1,1.5-1.8,3.1-2.5,4.7
					c-0.7,1.6-1.2,2.9-1.5,3.8c0.3-1.6,0.4-3.3,0.4-5.1c0-1.3-0.1-2.6-0.3-3.9c-0.2-1.3-0.7-2.6-1.3-3.6c-0.6-1.1-1.4-2-2.5-2.6
					c-1-0.7-2.3-1-3.9-1c-2.5,0-4.9,0.5-7.2,1.6c-2.4,1.1-4.6,2.5-6.6,4.4c-0.2,0.1-0.3,0.3-0.5,0.5c-0.3,0.2-0.7,0.4-1,0.7
					c-1.4,1-3.2,2.1-5.3,3.4c-2.1,1.2-4.6,2.3-7.3,3.4c-2.8,1-5.7,1.5-8.8,1.5c-1.1,0-2-0.2-2.7-0.6c-0.7-0.4-1.2-1-1.6-1.7
					c-0.4-0.7-0.6-1.5-0.8-2.4c-0.1-0.9-0.2-1.8-0.2-2.7c0-4,0.6-8.1,1.8-12.5c1.2-4.4,2.5-8.9,4-13.6c1.4-4.7,2.8-9.5,4-14.4
					c1.2-5,1.8-10,1.8-15.2c0-1.4-0.1-2.9-0.3-4.6c-0.2-1.7-0.6-3.3-1.2-4.8c-0.6-1.5-1.5-2.8-2.6-3.8c-1.1-1-2.6-1.5-4.4-1.5
					c-2.3,0-4.8,0.8-7.3,2.5c-2.5,1.6-5,3.6-7.4,6c-2.4,2.3-4.6,4.8-6.6,7.3c-2,2.5-3.7,4.7-5,6.4c-0.1-1-0.1-2.2-0.3-3.7
					c-0.1-1.5-0.3-3.1-0.6-4.7c-0.3-1.6-0.6-3.3-1.1-4.9c-0.5-1.6-1.1-3.1-1.8-4.4c-0.7-1.3-1.6-2.3-2.6-3.2c-1-0.8-2.2-1.2-3.6-1.2
					c-1.4,0-3,0.5-4.6,1.6c-1.6,1.1-3.2,2.5-4.8,4.2c-1.6,1.7-3.2,3.7-4.8,5.8c-1.6,2.2-3,4.3-4.4,6.4c-1.4,2.1-2.6,4.1-3.7,5.9
					c-1.1,1.9-2,3.4-2.6,4.6c0.3-1.5,0.5-3.1,0.8-4.6c0.3-1.5,0.4-3,0.4-4.6c0-1.4-0.1-2.7-0.4-4c-0.3-1.3-0.8-2.4-1.4-3.4
					c-0.7-1-1.5-1.8-2.6-2.4c-1.1-0.6-2.4-0.9-4-0.9c-2.6,0-5.1,0.6-7.5,1.7c-2.4,1.1-4.8,2.7-6.9,4.6c-2.2,1.9-4.2,4.1-6,6.6
					c-1.8,2.5-3.4,5-4.7,7.7c-1.3,2.7-2.3,5.4-3.1,8c-0.7,2.7-1.1,5.2-1.1,7.5c0,1.1,0.1,2.1,0.3,3.2c0.2,1,0.6,1.9,1.2,2.7
					c0.5,0.8,1.2,1.5,2.1,2c0.9,0.5,1.9,0.8,3.2,0.8c0.7,0,1.2-0.2,1.7-0.7c0.4-0.4,0.7-1,0.7-1.7c0-1-0.2-1.6-0.7-1.8
					c-0.5-0.2-1-0.3-1.5-0.4c-0.6-0.1-1.1-0.4-1.5-0.9c-0.5-0.5-0.7-1.6-0.7-3.2c0-1.9,0.3-4,1-6.3c0.6-2.3,1.5-4.6,2.7-7
					c1.1-2.3,2.5-4.6,4-6.8c1.5-2.2,3.2-4.1,5.1-5.8c1.9-1.7,3.8-3,5.9-4.1c2.1-1,4.1-1.5,6.3-1.5c0.3,0.3,0.4,0.7,0.4,1.3
					c0,0.6,0,1,0,1.4c0,1.3-0.2,2.8-0.5,4.6c-0.3,1.8-0.8,3.7-1.3,5.8c-0.5,2.1-1.1,4.2-1.8,6.4c-0.7,2.2-1.4,4.4-2,6.4
					c-0.7,2.1-1.4,4-2,5.8c-0.6,1.8-1.2,3.4-1.6,4.7c-0.4,1-0.9,2.5-1.5,4.3c-0.6,1.8-1.3,3.7-1.9,5.8c-0.6,2-1.2,3.9-1.7,5.8
					c-0.5,1.8-0.7,3.3-0.7,4.3c0,0.9,0.2,1.7,0.7,2.4c0.5,0.7,1.2,1.1,2.2,1.1c0.6,0,1.2-0.4,1.8-1.2c0.6-0.8,1.1-1.7,1.7-2.7
					c0.5-1,1-2,1.4-3c0.4-1,0.7-1.7,0.9-2.1l0.1-0.1c0.5-1.1,1.3-2.7,2.4-5c1.1-2.2,2.3-4.8,3.8-7.7c1.5-2.9,3.1-6,4.8-9.4
					c1.8-3.4,3.6-6.7,5.5-10.1c1.9-3.4,3.8-6.6,5.8-9.8c2-3.2,3.8-6,5.7-8.5c1.8-2.5,3.6-4.6,5.2-6.2c1.6-1.6,3.1-2.6,4.4-2.9
					c0.4,0.9,0.7,2.2,1,3.8c0.2,1.6,0.4,3.3,0.5,5.2c0.1,1.8,0.2,3.6,0.3,5.3c0.1,1.7,0.1,3.1,0.1,4.2c0,0.5,0,1.4,0,2.7
					c0,1.3,0,2.8-0.1,4.2c-0.1,1.5-0.1,2.9-0.2,4.1c-0.1,1.2-0.1,2-0.2,2.2c-0.4,1.3-0.9,2.7-1.5,3.9c-0.6,1.3-1.2,2.6-1.8,3.9
					c-0.6,1.3-1.2,2.7-1.8,4.1c-0.6,1.4-1.1,3-1.5,4.6c-0.5,1.7-0.8,3.4-1.2,5.1c-0.3,1.7-0.5,3.5-0.5,5.2c0,0.9,0.1,1.8,0.2,2.8
					c0.2,1,0.4,1.9,0.8,2.7c0.4,0.8,0.9,1.5,1.7,2c0.7,0.5,1.6,0.8,2.7,0.8c1.7,0,3.2-0.9,4.4-2.6c1.2-1.7,2.3-3.9,3.2-6.6
					c0.9-2.7,1.6-5.7,2.2-9c0.6-3.3,1-6.5,1.3-9.5c0.3-3.1,0.5-5.9,0.7-8.4c0.1-2.5,0.2-4.4,0.2-5.5c0.7-1,1.6-2.4,2.8-4.1
					c1.2-1.7,2.6-3.4,4.1-5.3c1.5-1.9,3.1-3.8,4.8-5.7c1.7-1.9,3.4-3.6,5.1-5.2c1.7-1.5,3.3-2.8,4.9-3.7c1.6-1,3-1.4,4.3-1.4
					c0.6,0,1.1,0.2,1.4,0.6c0.3,0.4,0.6,0.8,0.7,1.4c0.2,0.5,0.3,1.1,0.3,1.7c0.1,0.6,0.1,1.1,0.1,1.5c0,4.5-0.6,9-1.9,13.5
					c-1.3,4.5-2.7,9.1-4.3,13.7c-1.6,4.6-3,9.3-4.3,13.9c-1.3,4.7-1.9,9.5-1.9,14.3c0,2,0.2,4,0.6,6c0.4,2,1,3.9,2,5.6
					c0.9,1.7,2.2,3.1,3.7,4.1c1.5,1.1,3.5,1.6,5.9,1.6c3.4,0,6.6-0.5,9.5-1.4c1.6-0.5,3.3-1.1,4.9-1.8c-0.5,0.9-1,1.9-1.5,2.8
					c-1.2,2.6-2.2,5.2-2.9,7.7c-0.7,2.6-1.1,5-1.1,7.2c0,1.7,0.2,3.4,0.7,5c0.5,1.6,1.2,3,2.2,4.2c1,1.2,2.1,2.2,3.6,2.9
					c1.4,0.7,3.1,1.1,4.9,1.1c3.4,0,6.4-0.8,9.2-2.5c2.7-1.7,5.2-3.8,7.3-6.3c-1.2,3.7-2.4,7.4-3.7,11.1c-1.3,3.7-2.8,7.3-4.6,10.8
					c-1.1-0.4-2.1-0.8-3.2-1.1c-1.1-0.3-2.2-0.5-3.4-0.5c-1.1,0-2.3,0.2-3.3,0.5c-1.1,0.3-2,0.8-2.9,1.5c-0.8,0.6-1.5,1.5-2.1,2.4
					c-0.5,1-0.8,2.1-0.8,3.3c0,1.8,0.6,3.3,1.8,4.5c1.2,1.2,2.7,1.8,4.5,1.8c2.5,0,4.8-0.7,6.9-2c2.1-1.3,3.9-2.9,5.4-4.7l0.1,0.1
					c2,0.9,4,1.8,6,2.6c2,0.8,4,1.5,6,2.1c2,0.6,4.1,1.1,6.2,1.4c2.1,0.4,4.3,0.5,6.5,0.5c0.9,0,2.4-0.1,4.4-0.4
					c2-0.3,4.2-0.7,6.7-1.2c2.5-0.5,5-1.1,7.6-1.8c2.6-0.7,5-1.4,7.2-2.2c2.2-0.8,4-1.6,5.3-2.4c1.4-0.8,2.1-1.6,2.1-2.4
					c0-0.5-0.2-1-0.6-1.4C228.7,225,228.2,224.8,227.6,224.8z M100.8,159.9c-0.3,2.4-0.8,4.8-1.4,7.2c-0.2-0.4-0.2-0.7-0.2-1.1
					c0-0.4,0-0.7,0-1.1c0-2.2,0.3-4.3,0.8-6.3c0.5-2,1.1-4.1,1.6-6.1C101.4,155.1,101.1,157.5,100.8,159.9z M174.5,199.7
					c-1.8,2.3-3.8,4.2-6,5.8c-2.2,1.6-4.8,2.3-7.5,2.3c-1.6,0-2.8-0.3-3.6-1c-0.9-0.7-1.3-1.8-1.3-3.4c0-1.6,0.3-3.5,0.8-5.8
					c0.5-2.3,1.3-4.8,2.2-7.4c1-2.6,2.1-5.2,3.4-7.8c1.3-2.6,2.7-4.9,4.3-7c1.6-2.1,3.2-3.8,5-5.1c1.8-1.3,3.6-2,5.4-2
					c0.9,0,1.6,0.3,2.1,0.8c0.5,0.5,0.9,1.1,1.2,1.8c0.3,0.7,0.4,1.5,0.5,2.3c0.1,0.8,0.1,1.6,0.1,2.3c0,1.4-0.1,2.8-0.4,4.2
					c-0.3,1.4-0.4,2.7-0.4,4.1c0,0.6,0.3,1.1,1,1.3c0.6,0.3,1.2,0.3,1.7,0.2c-1,2.1-2.2,4.5-3.5,7.2
					C177.8,195,176.3,197.4,174.5,199.7z M164,231.9c-1.3,0.9-2.7,1.3-4.1,1.3c-0.7,0-1.4-0.2-2-0.5c-0.6-0.3-0.9-0.9-0.9-1.7
					c0-0.6,0.2-1.2,0.5-1.6c0.3-0.5,0.7-0.8,1.2-1.1c0.5-0.3,1-0.5,1.6-0.7c0.6-0.1,1.1-0.2,1.7-0.2c0.8,0,1.6,0.1,2.4,0.4
					c0.8,0.3,1.6,0.5,2.3,0.8C166.2,229.9,165.3,231.1,164,231.9z"/>
				<path class="st3" d="M266.3,192c0.4,0,0.8-0.1,1.2-0.3c0.4-0.2,0.7-0.4,1-0.6c0.3-0.3,0.6-0.6,0.7-0.9c0.2-0.4,0.3-0.7,0.3-1.1
					c0-0.5-0.1-0.8-0.4-1c-0.3-0.2-0.6-0.4-1.1-0.4c-0.4,0-0.8,0.1-1.2,0.2c-0.4,0.2-0.7,0.4-1,0.7c-0.3,0.3-0.6,0.6-0.8,0.9
					c-0.2,0.3-0.3,0.7-0.3,1.1c0,0.5,0.1,0.8,0.4,1.1C265.4,191.9,265.8,192,266.3,192z"/>
				<path class="st3" d="M286.3,201.1c-0.2,0-0.4,0.1-0.6,0.2c-0.2,0.1-0.3,0.3-0.4,0.5c-0.7,1.3-1.4,2.5-2.2,3.5
					c-0.8,1-1.7,1.8-2.9,2.4c0.2-0.9,0.4-1.7,0.8-2.6c0.3-0.9,0.7-1.7,1-2.6c0.3-0.9,0.6-1.7,0.8-2.6c0.2-0.9,0.3-1.8,0.3-2.6
					c0-0.5-0.1-1-0.2-1.4c-0.1-0.4-0.3-0.8-0.6-1.1c-0.3-0.3-0.6-0.6-1-0.8c-0.4-0.2-1-0.3-1.6-0.3c-0.5,0-1,0.1-1.5,0.4
					c-0.5,0.3-0.9,0.6-1.3,0.9c-0.4,0.4-0.8,0.8-1.1,1.2c-0.3,0.4-0.6,0.8-0.9,1.2c0.1-0.4,0.1-0.7,0.1-1c0-0.3,0.1-0.6,0.1-0.8
					c0-0.5-0.1-0.9-0.3-1.2c-0.2-0.4-0.6-0.6-1.1-0.6c-0.5,0-0.9,0.3-1.3,0.8c-0.4,0.5-0.8,1.2-1.2,1.9c-0.4,0.7-0.7,1.4-1,2.2
					c-0.3,0.7-0.5,1.3-0.6,1.6c-0.2,0.5-0.3,1-0.5,1.6c-0.7,1.3-1.4,2.5-2.1,3.4c-0.8,1-1.7,1.8-2.9,2.4c0.2-0.8,0.5-1.7,0.9-2.6
					c0.4-0.9,0.7-1.9,1-2.9c0.3-1,0.6-1.9,0.9-2.8c0.3-0.9,0.4-1.7,0.4-2.4c0-0.4,0-0.7-0.1-1.1c-0.1-0.4-0.2-0.7-0.4-1
					c-0.2-0.3-0.4-0.6-0.7-0.7c-0.3-0.2-0.7-0.3-1.2-0.3c-0.6,0-0.9,0.3-1.1,0.8c-0.4,1.1-0.9,2.2-1.3,3.5c-0.4,1.2-0.8,2.4-1.2,3.5
					c0,0,0,0.1,0,0.1c0,0,0,0,0,0.1c-0.7,1.3-1.4,2.5-2.2,3.5c-0.8,1-1.7,1.8-2.9,2.3c0.1-0.4,0.3-0.9,0.4-1.4
					c0.2-0.5,0.4-1,0.5-1.5c0.2-0.5,0.3-0.9,0.4-1.4c0.1-0.4,0.2-0.7,0.2-1c0-0.8-0.3-1.4-0.8-1.8c-0.6-0.4-1.2-0.6-2-0.6
					c-0.5,0-0.8,0.2-1,0.6c-0.2,0.3-0.6,0.8-1.2,1.6c-0.6,0.7-1.2,1.5-1.9,2.3c-0.7,0.8-1.4,1.5-2,2.2c-0.7,0.7-1.2,1-1.6,1.1v-0.2
					c0-0.9,0.1-1.9,0.4-2.9s0.6-2,1-3c0.4-1,0.9-1.9,1.4-2.8c0.5-0.9,1.1-1.7,1.7-2.4c0.2,0.2,0.3,0.6,0.3,1.2c0,0.2,0,0.4-0.1,0.6
					c-0.1,0.2-0.1,0.4-0.1,0.7c0,0.3,0.1,0.6,0.4,0.8c0.2,0.2,0.5,0.4,0.9,0.4c0.3,0,0.5-0.1,0.8-0.3c0.2-0.2,0.3-0.4,0.4-0.7
					c0.1-0.4,0.2-0.9,0.2-1.4c0-1-0.2-1.8-0.7-2.6c-0.5-0.7-1.2-1.1-2.2-1.1c-1.2,0-2.3,0.4-3.3,1.2c-1,0.8-1.8,1.8-2.6,3.1
					c-0.6,1.1-1.2,2.4-1.5,3.7c-0.7,1.3-1.4,2.4-2.1,3.4c-0.8,1-1.7,1.8-2.9,2.4c0.2-0.8,0.4-1.7,0.8-2.5c0.3-0.9,0.6-1.7,1-2.6
					c0.3-0.9,0.6-1.7,0.8-2.6c0.2-0.9,0.4-1.8,0.4-2.6c0-1.1-0.3-2-0.8-2.6c-0.5-0.6-1.4-1-2.6-1c-1.2,0-2.5,0.9-4,2.6
					c-1,1.1-2.1,2.6-3.2,4.5c0.2-0.6,0.3-1.2,0.4-1.8c0.1-0.7,0.2-1.2,0.2-1.7c0-1.1-0.2-2-0.7-2.6c-0.5-0.6-1.4-0.9-2.6-0.9
					c-0.3,0-0.6,0.1-0.9,0.2s-0.7,0.3-1.1,0.6c-0.4,0.3-0.8,0.7-1.3,1.1c-0.5,0.5-1,1-1.6,1.7c0.1-0.4,0.1-0.7,0.1-1
					c0-0.3,0.1-0.6,0.1-0.8c0-0.5-0.1-0.9-0.3-1.2c-0.2-0.4-0.6-0.6-1.1-0.6c-0.6,0-1,0.2-1.4,0.7c-0.4,0.5-0.7,1-1,1.6
					c-0.4,0.8-0.8,1.7-1.2,2.7c-0.4,1-0.8,2-1.1,3.1c-0.7,1.2-1.4,2.4-2.1,3.3c-0.8,1-1.7,1.8-2.9,2.3c0.3-0.9,0.6-1.8,1-2.8
					c0.4-1,0.7-2,1-3c0.3-1,0.6-1.9,0.8-2.8c0.2-0.9,0.3-1.6,0.3-2.2c0-0.4,0-0.7-0.1-1.1c-0.1-0.4-0.2-0.7-0.4-1
					c-0.2-0.3-0.4-0.6-0.7-0.7c-0.3-0.2-0.7-0.3-1.2-0.3c-0.2,0-0.4,0-0.5,0.1c-0.1,0.1-0.3,0.2-0.4,0.3c-0.1,0.1-0.2,0.2-0.3,0.3
					c-0.2,0.2-0.4,0.3-0.7,0.5c-0.3,0.2-0.6,0.4-1,0.5c-0.4,0.1-0.9,0.2-1.4,0.3c0.3-0.7,0.5-1.4,0.8-2.1c0.3-0.7,0.4-1.3,0.4-2
					c0-0.5-0.1-0.9-0.4-1.3c-0.3-0.4-0.7-0.5-1.1-0.5c-0.6,0-1.2,0.2-1.8,0.5c-0.6,0.3-1.1,0.7-1.5,1.2c-0.4,0.5-0.8,1-1,1.7
					c-0.3,0.6-0.4,1.2-0.4,1.8c0,0.6,0.1,1.1,0.4,1.6c0.3,0.5,0.7,0.8,1.3,1.1c-0.4,0.9-0.8,1.6-1.1,2.4c-0.4,0.7-0.6,1.3-0.8,1.6
					c0,0,0,0,0,0c-0.3,0.6-0.8,1.2-1.3,1.9c-0.5,0.7-1.2,1.4-1.9,2c-0.7,0.6-1.4,1.1-2.3,1.6c-0.8,0.4-1.7,0.6-2.5,0.6
					c-0.6,0-0.9-0.1-1.1-0.2c-0.2-0.1-0.3-0.3-0.3-0.5s0.1-0.6,0.2-1c0.1-0.4,0.2-0.8,0.3-1.1c0.8-0.2,1.6-0.5,2.4-0.9
					c0.8-0.5,1.5-1,2.2-1.7c0.6-0.7,1.2-1.4,1.5-2.2c0.4-0.8,0.6-1.7,0.6-2.5c0-0.4-0.1-0.9-0.2-1.3c-0.1-0.5-0.3-0.9-0.5-1.2
					c-0.2-0.4-0.5-0.7-0.9-0.9c-0.4-0.2-0.8-0.3-1.3-0.3c-0.9,0-1.6,0.2-2.3,0.6c-0.7,0.4-1.3,1-1.9,1.7c-1.2,1.4-2.2,3.3-3.1,5.8
					c-0.4,1.2-0.6,2.5-0.6,3.9c0,1.5,0.5,2.6,1.4,3.3c1,0.7,2.2,1.1,3.8,1.1c1,0,2-0.2,3-0.7c1-0.5,1.9-1.1,2.8-1.8
					c0.9-0.7,1.6-1.5,2.3-2.4c0.7-0.9,1.2-1.7,1.7-2.4c0,0,0,0,0,0c0.2-0.5,0.6-1.1,1-1.9c0.4-0.8,0.8-1.7,1.3-2.7
					c0.1,0,0.3,0,0.4,0s0.2,0,0.4,0c0.4,0,0.8,0,1.2-0.1c0.4-0.1,0.7-0.2,1-0.3c-0.7,2-1.3,3.8-1.7,5.2c-0.4,1.5-0.7,2.7-0.7,3.7
					c0,0.9,0.2,1.6,0.6,2.3c0.4,0.7,1.2,1,2.3,1c0.9,0,1.8-0.2,2.6-0.7c0.7-0.4,1.4-1,2.1-1.6c0,0.1,0,0.3,0,0.4
					c0,0.5,0.1,0.9,0.4,1.3c0.2,0.4,0.6,0.6,1.1,0.6c0.5,0,1-0.2,1.3-0.7c0.4-0.4,0.7-1,1.1-1.7l2.8-5.3c0.6-1.1,1.1-2,1.7-2.8
					c0.5-0.7,1-1.3,1.4-1.8c0.4-0.5,0.8-0.8,1.1-1c0.3-0.2,0.6-0.4,0.7-0.5c-0.3,1-0.6,1.9-0.9,2.7c-0.3,0.8-0.6,1.6-1,2.6
					c-0.4,1-0.7,2-0.9,2.9c-0.2,0.9-0.3,1.7-0.3,2.5c0,1,0.2,1.7,0.7,2.3c0.5,0.6,1.2,0.9,2.4,0.9c0.3,0,0.6-0.2,1-0.5
					c0.3-0.3,0.7-0.8,1.1-1.5c0.4-0.7,0.8-1.5,1.3-2.4c0.5-1,1.1-2.1,1.7-3.3c0.6-1.1,1.1-2,1.7-2.8c0.5-0.7,1-1.3,1.4-1.8
					c0.4-0.5,0.8-0.8,1.1-1c0.3-0.2,0.6-0.4,0.7-0.5c-0.2,0.9-0.5,1.8-0.9,2.7c-0.3,0.9-0.7,1.9-1,2.8c-0.3,0.9-0.6,1.8-0.8,2.7
					c-0.2,0.9-0.3,1.7-0.3,2.4c0,1,0.2,1.8,0.7,2.3c0.5,0.6,1.3,0.9,2.4,0.9c0.9,0,1.8-0.2,2.6-0.7c0.8-0.5,1.5-1,2.2-1.8
					c0.2-0.2,0.4-0.5,0.6-0.7c0.1,0.7,0.4,1.3,0.8,1.9c0.6,0.8,1.5,1.2,2.6,1.2c0.7,0,1.5-0.3,2.4-0.9c0.9-0.6,2-1.6,3.2-3.1
					c0,0.1,0,0.3,0,0.4s0,0.3,0,0.4c0,0.4,0,0.8,0.1,1.2c0.1,0.4,0.2,0.7,0.5,1c0.2,0.3,0.5,0.5,0.9,0.7c0.4,0.2,0.8,0.3,1.4,0.3
					c0.9,0,1.8-0.2,2.6-0.7c0.8-0.5,1.5-1,2.2-1.8c0.1-0.1,0.1-0.2,0.2-0.2c0.1,0.7,0.3,1.3,0.6,1.7c0.4,0.5,1.2,0.9,2.3,1
					c0.9,0,1.8-0.2,2.6-0.7c0.7-0.4,1.4-0.9,2-1.6c0,0.1,0,0.2,0,0.4c0,0.5,0.1,0.9,0.3,1.3c0.2,0.4,0.6,0.6,1.1,0.6
					c0.3,0,0.7-0.2,1-0.6c0.4-0.4,0.8-0.9,1.2-1.6c0.4-0.7,0.9-1.5,1.4-2.5c0.5-1,1-2,1.6-3.1c0.6-1.1,1.2-2,1.7-2.7
					c0.5-0.7,1-1.3,1.4-1.8c0.4-0.5,0.8-0.8,1.1-1.1c0.3-0.2,0.5-0.4,0.7-0.5c-0.1,0.3-0.2,0.6-0.3,0.9c-0.1,0.3-0.2,0.6-0.4,1
					c-0.1,0.4-0.3,0.8-0.5,1.4c-0.2,0.5-0.4,1.2-0.7,2c-0.4,1-0.7,2-0.9,2.9c-0.2,0.9-0.3,1.7-0.3,2.5c0,0.9,0.2,1.6,0.7,2.3
					c0.5,0.6,1.2,0.9,2.4,0.9c0.9,0,1.8-0.2,2.6-0.7c0.8-0.5,1.5-1,2.2-1.7c0.7-0.7,1.3-1.5,1.9-2.4c0.6-0.9,1.1-1.7,1.5-2.5
					c0.1-0.1,0.1-0.2,0.1-0.3c0-0.1,0-0.2,0-0.3c0-0.3-0.1-0.6-0.4-0.8C286.9,201.2,286.6,201.1,286.3,201.1z M197.4,199.1
					c0.5-1.1,1.1-2,1.7-2.7c0.2,0.3,0.3,0.7,0.3,1.2c0,0.2,0,0.5-0.1,0.7c-0.1,0.2-0.1,0.5-0.2,0.6c-0.3,0.7-0.8,1.4-1.3,1.9
					c-0.5,0.6-1.1,1-1.7,1.3C196.5,201.2,196.9,200.1,197.4,199.1z"/>
				<path class="st3" d="M68,194.1c1,0,1.9-0.1,3-0.2c1-0.1,2-0.3,3-0.6c1-0.3,1.9-0.6,2.7-1.1c0.8-0.5,1.4-1,1.9-1.7
					c0.5-0.7,0.7-1.6,0.7-2.6c0-0.9-0.2-1.6-0.7-2.1c-0.5-0.6-1-1-1.7-1.3c-0.7-0.3-1.4-0.6-2.2-0.7c-0.8-0.1-1.5-0.2-2.2-0.2
					c-1.3,0-2.8,0.2-4.4,0.5c-1.6,0.3-3.1,0.8-4.6,1.5c-1.5,0.7-2.8,1.5-4,2.5c-1.2,1-2,2.2-2.6,3.5c-2.6-0.1-3.3-0.2-5.8-0.4
					c-2.8-0.3-5.7-1-8.3-1.7c-1.6-0.5-1.9,1.7-0.1,2.3c2.5,0.8,4.9,1.4,8,1.7c2.5,0.2,3.1,0.3,5.7,0.4c0,1.3,0.3,2.4,0.9,3.4
					c0.6,1,1.3,1.9,2.1,2.8c0.9,0.8,1.8,1.6,2.7,2.4c1,0.7,1.9,1.5,2.7,2.2c0.9,0.7,1.6,1.5,2.1,2.2c0.6,0.8,0.8,1.6,0.8,2.5
					c0,1.2-0.3,2.3-0.9,3.3c-0.6,1-1.3,1.8-2.2,2.5c-0.9,0.7-1.9,1.2-3,1.6c-1.1,0.4-2.2,0.6-3.3,0.7l-0.1,0c-0.2,0-0.4,0-0.6,0
					c-0.2,0-0.4,0-0.6,0c-1.2,0-2.4-0.1-3.6-0.4c-1.2-0.3-2.3-0.7-3.3-1.3c-1-0.6-1.8-1.4-2.4-2.3c-0.6-1-0.9-2.1-0.9-3.5
					c0-0.7,0.1-1.3,0.3-1.9c0.2-0.6,0.3-1.3,0.3-1.9c0-0.3-0.1-0.6-0.3-0.8c-0.2-0.2-0.5-0.3-0.8-0.3c-0.4,0-0.7,0.2-0.9,0.6
					c-0.2,0.4-0.4,0.9-0.6,1.4c-0.1,0.5-0.2,1.1-0.3,1.6c0,0.5-0.1,1-0.1,1.2c0,1.9,0.4,3.4,1.2,4.7c0.8,1.3,1.8,2.3,3.1,3
					c1.3,0.8,2.7,1.3,4.2,1.6c1.6,0.3,3.1,0.5,4.7,0.5c0.9,0,2-0.1,3-0.3c1.1-0.2,2.2-0.5,3.2-0.9c1.1-0.4,2.1-0.9,3.1-1.5
					c1-0.6,1.9-1.3,2.6-2.1c0.8-0.8,1.4-1.7,1.8-2.6c0.4-1,0.7-2,0.7-3.1c0-1.1-0.3-2.2-0.8-3.1c-0.6-0.9-1.3-1.8-2.1-2.6
					c-0.8-0.8-1.7-1.6-2.7-2.3c-1-0.7-1.9-1.5-2.7-2.2c-0.8-0.7-1.5-1.5-2.1-2.3c-0.6-0.8-0.9-1.6-0.9-2.6c1.6,0.1,3.2,0.1,4.8,0.1
					C66.2,194.1,67.1,194.1,68,194.1z M63.2,189.1c0.8-0.7,1.7-1.4,2.7-1.8c1-0.5,2.1-0.8,3.2-1c1.1-0.2,2.2-0.3,3.3-0.3
					c0.3,0,0.7,0,1.2,0.1c0.5,0.1,1,0.2,1.5,0.3c0.5,0.2,0.9,0.4,1.3,0.6c0.4,0.3,0.6,0.6,0.6,1c0,0.7-0.2,1.2-0.7,1.7
					c-0.4,0.5-1,0.8-1.7,1.1c-0.7,0.3-1.5,0.5-2.3,0.7c-0.9,0.2-1.7,0.3-2.6,0.3c-0.8,0.1-1.6,0.1-2.3,0.1c-0.7,0-1.3,0-1.7,0
					c-1.5,0-2.9,0-4.4-0.1C61.8,190.7,62.4,189.8,63.2,189.1z"/>
				<path class="st3" d="M97.1,192.7c0.4,0,0.8-0.1,1.1-0.3c0.4-0.2,0.7-0.4,1-0.6c0.3-0.3,0.5-0.6,0.7-0.9c0.2-0.3,0.3-0.7,0.3-1.1
					c0-0.4-0.1-0.8-0.4-1c-0.3-0.2-0.6-0.3-1-0.3c-0.4,0-0.8,0.1-1.1,0.2c-0.4,0.2-0.7,0.4-1,0.6c-0.3,0.3-0.5,0.6-0.7,0.9
					c-0.2,0.3-0.3,0.7-0.3,1.1c0,0.4,0.1,0.8,0.4,1C96.3,192.6,96.6,192.7,97.1,192.7z"/>
				<path class="st3" d="M126.8,187.2c-0.2-0.2-0.6-0.2-0.9-0.1l-1.5,0.4c0.1-0.3,0.1-0.6,0.1-0.8c0-0.3,0-0.5,0-0.8
					c0-0.6-0.1-1.2-0.4-1.6c-0.3-0.4-0.7-0.6-1.4-0.6c-0.3,0-0.5,0.1-0.7,0.2c-0.2,0.1-0.3,0.3-0.4,0.5c-0.3,0.7-0.6,1.4-0.9,2.1
					c-0.3,0.7-0.5,1.4-0.8,2l-2.7,0.6c-0.4,0.1-0.6,0.3-0.8,0.6c-0.1,0.3-0.2,0.6-0.1,0.8c0.1,0.3,0.2,0.5,0.5,0.7
					c0.2,0.2,0.6,0.2,0.9,0.1l1.1-0.3c-0.7,1.8-1.3,3.4-1.8,4.8c-0.5,1.4-1,2.8-1.4,4.1c-0.3,0.8-0.5,1.5-0.7,2.2
					c-0.6,1.2-1.3,2.3-2,3.2c-0.7,0.9-1.6,1.7-2.8,2.3c0.2-0.8,0.4-1.6,0.7-2.4c0.3-0.8,0.6-1.6,0.9-2.4c0.3-0.8,0.6-1.6,0.8-2.5
					c0.2-0.8,0.3-1.7,0.3-2.5c0-0.5-0.1-0.9-0.2-1.3c-0.1-0.4-0.3-0.8-0.5-1.1c-0.2-0.3-0.6-0.5-1-0.7c-0.4-0.2-0.9-0.3-1.5-0.3
					c-0.5,0-1,0.1-1.4,0.4c-0.4,0.2-0.9,0.5-1.3,0.9c-0.4,0.4-0.7,0.7-1.1,1.2c-0.3,0.4-0.6,0.8-0.8,1.1c0.1-0.4,0.1-0.7,0.1-1
					c0-0.3,0.1-0.6,0.1-0.8c0-0.4-0.1-0.8-0.3-1.2c-0.2-0.4-0.6-0.5-1-0.5c-0.4,0-0.9,0.3-1.3,0.8c-0.4,0.5-0.8,1.1-1.1,1.8
					c-0.4,0.7-0.7,1.4-0.9,2.1c-0.3,0.7-0.4,1.2-0.6,1.6c-0.2,0.5-0.3,1-0.5,1.5c-0.7,1.2-1.3,2.3-2,3.3c-0.7,1-1.6,1.7-2.8,2.3
					c0.2-0.8,0.5-1.6,0.8-2.5c0.3-0.9,0.7-1.8,1-2.7c0.3-0.9,0.6-1.8,0.8-2.7c0.2-0.9,0.4-1.6,0.4-2.3c0-0.4,0-0.7-0.1-1.1
					c-0.1-0.4-0.2-0.7-0.3-1c-0.2-0.3-0.4-0.5-0.7-0.7c-0.3-0.2-0.6-0.3-1.1-0.3c-0.5,0-0.9,0.3-1.1,0.8c-0.4,1-0.8,2.1-1.2,3.3
					c-0.4,1.2-0.8,2.3-1.1,3.4c0,0,0,0.1,0,0.1c0,0,0,0,0,0.1c-0.7,1.3-1.4,2.4-2.1,3.4c-0.7,1-1.7,1.7-2.8,2.2
					c0.1-0.4,0.2-0.9,0.4-1.4c0.2-0.5,0.3-1,0.5-1.4c0.2-0.5,0.3-0.9,0.4-1.3c0.1-0.4,0.2-0.7,0.2-0.9c0-0.7-0.3-1.3-0.8-1.7
					c-0.5-0.4-1.2-0.6-1.9-0.6c-0.4,0-0.8,0.2-1,0.6c-0.2,0.3-0.5,0.8-1.1,1.5c-0.6,0.7-1.2,1.4-1.8,2.2c-0.7,0.8-1.3,1.5-1.9,2.1
					c-0.6,0.6-1.1,1-1.5,1v-0.2c0-0.9,0.1-1.8,0.3-2.7c0.2-1,0.5-1.9,1-2.8c0.4-0.9,0.9-1.8,1.4-2.7c0.5-0.9,1.1-1.6,1.6-2.3
					c0.2,0.2,0.3,0.6,0.3,1.1c0,0.2,0,0.3-0.1,0.6c-0.1,0.2-0.1,0.4-0.1,0.6c0,0.3,0.1,0.6,0.3,0.8c0.2,0.2,0.5,0.3,0.8,0.3
					c0.3,0,0.5-0.1,0.7-0.2c0.2-0.2,0.3-0.4,0.4-0.7c0.1-0.4,0.2-0.9,0.2-1.3c0-0.9-0.2-1.8-0.7-2.5c-0.5-0.7-1.2-1.1-2.1-1.1
					c-1.1,0-2.2,0.4-3.1,1.2c-1,0.8-1.8,1.8-2.4,2.9c-0.7,1.2-1.2,2.5-1.6,3.8c-0.4,1.4-0.6,2.7-0.6,3.9c0,1,0.3,1.9,0.9,2.6
					c0.6,0.7,1.4,1.1,2.5,1.1c0.7,0,1.4-0.3,2.2-0.9c0.8-0.6,1.9-1.6,3.1-2.9c0,0.1,0,0.3,0,0.4c0,0.2,0,0.3,0,0.4
					c0,0.4,0,0.7,0.1,1.1c0.1,0.4,0.2,0.7,0.4,1c0.2,0.3,0.5,0.5,0.9,0.7c0.4,0.2,0.8,0.2,1.3,0.2c0.9,0,1.7-0.2,2.4-0.6
					c0.8-0.4,1.5-1,2.1-1.7c0.1-0.1,0.1-0.2,0.2-0.2c0.1,0.7,0.2,1.2,0.6,1.6c0.4,0.5,1.1,0.8,2.2,0.9c0.9,0,1.7-0.2,2.4-0.6
					c0.7-0.4,1.3-0.9,1.9-1.5c0,0.1,0,0.2,0,0.3c0,0.4,0.1,0.8,0.3,1.2c0.2,0.4,0.6,0.6,1,0.6c0.3,0,0.6-0.2,1-0.6
					c0.3-0.4,0.7-0.9,1.1-1.5c0.4-0.7,0.8-1.4,1.3-2.4c0.5-0.9,1-1.9,1.5-3c0.6-1,1.2-1.9,1.7-2.6c0.5-0.7,0.9-1.3,1.3-1.7
					c0.4-0.4,0.7-0.8,1-1c0.3-0.2,0.5-0.4,0.7-0.5c-0.1,0.3-0.2,0.6-0.3,0.9c-0.1,0.3-0.2,0.6-0.3,1c-0.1,0.4-0.3,0.8-0.5,1.3
					c-0.2,0.5-0.4,1.1-0.7,1.9c-0.4,1-0.6,1.9-0.9,2.7c-0.2,0.9-0.3,1.7-0.3,2.4c0,0.8,0.2,1.6,0.6,2.2c0.4,0.6,1.2,0.9,2.3,0.9
					c0.9,0,1.7-0.2,2.4-0.7c0.8-0.4,1.5-1,2.1-1.7c0.1-0.2,0.3-0.3,0.4-0.5c0,0.7,0.2,1.4,0.5,1.9c0.4,0.6,1,1,1.9,1
					c0.9,0,1.7-0.2,2.4-0.6c0.8-0.4,1.5-1,2.1-1.7c0.6-0.7,1.2-1.4,1.8-2.3c0.5-0.8,1-1.6,1.4-2.4c0.1-0.1,0.1-0.2,0.1-0.3
					c0-0.1,0-0.2,0-0.3c0-0.3-0.1-0.6-0.4-0.8c-0.2-0.2-0.5-0.3-0.8-0.3c-0.2,0-0.4,0.1-0.6,0.2c-0.2,0.1-0.3,0.3-0.4,0.5
					c-0.7,1.3-1.4,2.4-2.1,3.3s-1.6,1.7-2.8,2.3c0.3-1.2,0.7-2.5,1.2-4c0.5-1.5,1.1-3,1.7-4.6c0.6-1.6,1.2-3.2,1.8-4.8
					c0.6-1.6,1-3.1,1.4-4.4l2.6-0.6c0.4-0.1,0.6-0.3,0.8-0.6c0.1-0.3,0.2-0.6,0.1-0.8C127.2,187.6,127.1,187.3,126.8,187.2z"/>
			</g>
		</g>
		<g>
			<path class="st3" d="M86.2,267.2c-0.1-0.1-0.2-0.2-0.3-0.3c-0.1-0.1,0-0.3,0-0.4l5.9-7.8c0.1-0.1,0.2-0.1,0.3-0.1
				c0.1,0,0.2,0,0.4,0.1l2.2,1.7c0.5,0.3,0.8,0.7,1.1,1.2c0.2,0.4,0.3,0.9,0.3,1.5c-0.1,0.5-0.3,1.1-0.8,1.7l-0.1,0.1
				c-0.5,0.6-0.9,1-1.4,1.2c-0.5,0.2-1,0.2-1.5,0.1c-0.5-0.1-1-0.4-1.5-0.7l-1.6-1.2l-2.3,3c-0.1,0.1-0.2,0.2-0.3,0.1
				C86.5,267.4,86.3,267.3,86.2,267.2z M89.8,263.4l1.6,1.2c0.5,0.4,1,0.5,1.4,0.4c0.5-0.1,0.9-0.4,1.3-0.9l0.1-0.1
				c0.4-0.6,0.6-1.1,0.5-1.6c-0.1-0.5-0.3-0.9-0.8-1.2l-1.6-1.2L89.8,263.4z"/>
			<path class="st3" d="M97.4,275.1c-0.5-0.3-0.9-0.7-1.2-1.1c-0.3-0.4-0.4-0.9-0.4-1.4c0-0.5,0.2-1.1,0.6-1.8l2.3-3.7
				c0.4-0.7,0.9-1.1,1.3-1.4c0.5-0.2,1-0.3,1.5-0.3c0.5,0.1,1,0.3,1.5,0.6s0.9,0.7,1.2,1.1c0.3,0.4,0.4,0.9,0.4,1.4
				c0,0.5-0.2,1.1-0.6,1.8l-2.3,3.7c-0.4,0.7-0.9,1.1-1.3,1.4c-0.5,0.2-1,0.3-1.5,0.3C98.4,275.6,97.9,275.4,97.4,275.1z M98,274.2
				c0.5,0.3,1,0.4,1.5,0.3c0.5-0.1,0.9-0.5,1.3-1.1l2.3-3.7c0.4-0.6,0.5-1.1,0.4-1.6c-0.1-0.5-0.4-0.9-0.9-1.2s-1-0.4-1.5-0.3
				c-0.5,0.1-0.9,0.5-1.2,1.1l-2.3,3.7c-0.4,0.6-0.5,1.1-0.4,1.6C97.1,273.5,97.4,273.9,98,274.2z"/>
			<path class="st3" d="M109.8,281.9c-0.1-0.1-0.2-0.1-0.2-0.3c0-0.1-0.1-0.3-0.1-0.4l0-4.8l-1.5-0.8l-1.9,3.8
				c-0.1,0.1-0.2,0.2-0.3,0.2s-0.3,0-0.4-0.1c-0.1-0.1-0.2-0.2-0.3-0.3c-0.1-0.1-0.1-0.3,0-0.4l4.4-8.7c0.1-0.1,0.1-0.2,0.2-0.2
				c0.1,0,0.2,0,0.3,0l2.4,1.2c0.5,0.3,1,0.6,1.3,1c0.4,0.4,0.6,0.8,0.6,1.3c0.1,0.5-0.1,1.1-0.4,1.7c-0.3,0.5-0.6,0.9-0.9,1.2
				c-0.3,0.3-0.7,0.4-1.1,0.5c-0.4,0-0.8,0-1.2-0.1l0.1,4.6c0,0,0,0.1,0,0.1c0,0,0,0.1,0,0.1c0,0.1-0.1,0.2-0.2,0.2
				c-0.1,0.1-0.2,0.1-0.4,0.1C110,282,109.9,282,109.8,281.9z M108.5,274.8l1.7,0.8c0.5,0.3,1,0.4,1.5,0.3c0.5-0.1,0.8-0.4,1.2-1.1
				c0.3-0.6,0.4-1.1,0.2-1.5c-0.2-0.4-0.6-0.8-1.1-1l-1.7-0.8L108.5,274.8z"/>
			<path class="st3" d="M120.2,286.4c-0.1,0-0.2-0.1-0.2-0.3c0-0.1-0.1-0.3-0.1-0.4l-0.4-4.8l-1.6-0.6l-1.6,4
				c-0.1,0.1-0.2,0.2-0.3,0.2c-0.1,0-0.3,0-0.4-0.1c-0.1-0.1-0.2-0.1-0.3-0.3c-0.1-0.1-0.1-0.2-0.1-0.4l3.6-9c0-0.1,0.1-0.2,0.2-0.2
				c0.1,0,0.2,0,0.3,0l2.5,1c0.5,0.2,1,0.5,1.4,0.9c0.4,0.3,0.6,0.8,0.7,1.3c0.1,0.5,0,1.1-0.2,1.8c-0.2,0.5-0.5,1-0.8,1.3
				c-0.3,0.3-0.7,0.5-1.1,0.6c-0.4,0.1-0.8,0.1-1.2,0l0.5,4.6c0,0,0,0.1,0,0.1c0,0,0,0.1,0,0.1c0,0.1-0.1,0.2-0.2,0.2
				c-0.1,0.1-0.2,0.1-0.3,0.1C120.4,286.4,120.3,286.4,120.2,286.4z M118.2,279.4l1.7,0.7c0.6,0.2,1.1,0.3,1.5,0.1
				c0.4-0.1,0.8-0.5,1.1-1.2c0.3-0.6,0.3-1.2,0-1.6c-0.2-0.4-0.6-0.7-1.2-0.9l-1.7-0.7L118.2,279.4z"/>
			<path class="st3" d="M126.1,288.4c-0.1,0-0.2-0.1-0.3-0.2c-0.1-0.1-0.1-0.2-0.1-0.4l2.8-9.3c0-0.1,0.1-0.2,0.3-0.3
				c0.1,0,0.3,0,0.4,0l4.9,1.5c0.1,0,0.2,0.1,0.3,0.3c0,0.1,0,0.3,0,0.4c0,0.1-0.1,0.3-0.2,0.3c-0.1,0.1-0.2,0.1-0.3,0.1l-4.3-1.3
				l-1.1,3.5l2.2,0.7c0.1,0,0.2,0.1,0.3,0.2c0,0.1,0,0.2,0,0.4c0,0.1-0.1,0.2-0.2,0.3c-0.1,0.1-0.2,0.1-0.4,0.1l-2.2-0.7l-1.1,3.5
				l4.3,1.3c0.1,0,0.2,0.1,0.2,0.3s0,0.3,0,0.4c0,0.1-0.1,0.2-0.2,0.3c-0.1,0.1-0.2,0.1-0.4,0.1L126.1,288.4z"/>
			<path class="st3" d="M136.6,291.3c-0.1,0-0.3-0.1-0.4-0.2c-0.1-0.1-0.2-0.2-0.1-0.4l2-9.5c0-0.2,0.1-0.2,0.3-0.3
				c0.1,0,0.3,0,0.4,0c0.2,0,0.3,0.1,0.4,0.2c0.1,0.1,0.2,0.2,0.2,0.3c0.1,0.1,0.1,0.3,0.2,0.5l2.1,7.7l1.5-7.3
				c0-0.1,0.1-0.2,0.3-0.3c0.1,0,0.3,0,0.4,0c0.2,0,0.3,0.1,0.4,0.2c0.1,0.1,0.1,0.2,0.1,0.4l-2,9.5c0,0.1-0.1,0.2-0.3,0.3
				c-0.1,0-0.3,0.1-0.4,0c-0.2,0-0.3-0.1-0.4-0.2c-0.1-0.1-0.2-0.3-0.2-0.5l-2.2-7.9l-1.5,7.3c0,0.1-0.1,0.2-0.3,0.3
				C136.9,291.3,136.8,291.3,136.6,291.3z"/>
			<path class="st3" d="M150.2,293.7c-0.2,0-0.3-0.1-0.4-0.2c-0.1-0.1-0.2-0.2-0.1-0.3l1.1-9l-2.3-0.3c-0.1,0-0.2-0.1-0.3-0.2
				c-0.1-0.1-0.1-0.3-0.1-0.4c0-0.1,0.1-0.3,0.1-0.4c0.1-0.1,0.2-0.2,0.3-0.1l5.9,0.7c0.1,0,0.2,0.1,0.3,0.2
				c0.1,0.1,0.1,0.3,0.1,0.4c0,0.1-0.1,0.3-0.1,0.4c-0.1,0.1-0.2,0.2-0.3,0.1l-2.3-0.3l-1.1,9c0,0.1-0.1,0.2-0.2,0.3
				S150.4,293.7,150.2,293.7z"/>
			<path class="st3" d="M163.9,294.7c-0.1,0-0.2-0.1-0.3-0.2c-0.1-0.1-0.2-0.2-0.2-0.3l-2-4.3l-1.7-0.1l-0.2,4.3
				c0,0.1-0.1,0.3-0.2,0.3c-0.1,0.1-0.3,0.1-0.4,0.1c-0.1,0-0.3,0-0.4-0.1c-0.1-0.1-0.2-0.2-0.2-0.3l0.4-9.7c0-0.1,0-0.2,0.1-0.3
				c0.1-0.1,0.2-0.1,0.3-0.1l2.7,0.1c0.6,0,1.1,0.1,1.6,0.3c0.5,0.2,0.9,0.5,1.1,0.9c0.3,0.4,0.4,1,0.4,1.7c0,0.6-0.1,1.1-0.3,1.5
				c-0.2,0.4-0.5,0.7-0.8,0.9c-0.3,0.2-0.7,0.3-1.1,0.4l2,4.2c0,0,0,0.1,0,0.1c0,0,0,0.1,0,0.1c0,0.1,0,0.2-0.1,0.3
				c-0.1,0.1-0.2,0.2-0.3,0.2C164.1,294.7,164,294.7,163.9,294.7z M159.7,288.8l1.9,0.1c0.6,0,1.1-0.1,1.5-0.4
				c0.4-0.3,0.6-0.8,0.6-1.4c0-0.7-0.1-1.2-0.5-1.5c-0.4-0.3-0.8-0.5-1.4-0.5l-1.9-0.1L159.7,288.8z"/>
			<path class="st3" d="M172.6,294.6c-0.6,0-1.1,0-1.6-0.2c-0.5-0.2-0.9-0.5-1.2-0.9c-0.3-0.4-0.5-1.1-0.5-1.8l-0.4-7.1
				c0-0.1,0-0.3,0.2-0.3s0.3-0.1,0.4-0.1c0.2,0,0.3,0,0.4,0.1c0.1,0.1,0.2,0.2,0.2,0.3l0.4,7.1c0,0.7,0.2,1.2,0.6,1.5
				s0.8,0.5,1.5,0.4c0.6,0,1.1-0.2,1.4-0.6s0.5-0.9,0.4-1.6l-0.4-7.1c0-0.1,0-0.3,0.2-0.3c0.1-0.1,0.3-0.1,0.4-0.1
				c0.2,0,0.3,0,0.4,0.1c0.1,0.1,0.2,0.2,0.2,0.3l0.4,7.1c0,0.8-0.1,1.4-0.3,1.9c-0.3,0.5-0.6,0.8-1.1,1.1
				C173.8,294.4,173.2,294.5,172.6,294.6z"/>
			<path class="st3" d="M184.1,293.4c-0.1,0-0.3,0-0.4-0.1c-0.1-0.1-0.2-0.2-0.2-0.3l-0.5-3.6c0-0.1,0-0.1,0-0.1l-3.7-5.1
				c0,0,0-0.1-0.1-0.1c0,0,0-0.1,0-0.1c0-0.1,0-0.2,0.1-0.3c0.1-0.1,0.2-0.2,0.3-0.2c0.1-0.1,0.2-0.1,0.3-0.1c0.1,0,0.2,0,0.3,0
				c0.1,0,0.1,0.1,0.2,0.2l3.2,4.6l1.8-5.3c0-0.1,0.1-0.2,0.2-0.3c0.1-0.1,0.1-0.1,0.2-0.1c0.1,0,0.2,0,0.3,0s0.2,0.1,0.3,0.1
				c0.1,0.1,0.1,0.1,0.2,0.2c0,0,0,0.1,0,0.1c0,0,0,0.1,0,0.1l-2.2,6c0,0,0,0.1,0,0.2l0.5,3.6c0,0.1,0,0.3-0.1,0.3
				C184.4,293.3,184.3,293.4,184.1,293.4z"/>
			<path class="st3" d="M197.6,287.8c-0.1,0-0.2,0-0.3-0.1c-0.1-0.1-0.2-0.2-0.2-0.3c0-0.1,0-0.3,0-0.4c0.1-0.1,0.1-0.2,0.2-0.2
				l4.5-1.2c0.1,0,0.2,0,0.3,0.1c0.1,0.1,0.2,0.2,0.2,0.3c0,0.1,0,0.3,0,0.4c-0.1,0.1-0.1,0.2-0.3,0.2L197.6,287.8z"/>
			<path class="st3" d="M216,284.8c-0.6,0.2-1.1,0.4-1.7,0.3c-0.5,0-1-0.2-1.4-0.4c-0.4-0.3-0.7-0.6-0.9-1.1c-0.1-0.2-0.1-0.4,0-0.5
				c0.1-0.1,0.2-0.2,0.4-0.3c0.1-0.1,0.3-0.1,0.4-0.1c0.1,0,0.2,0.1,0.3,0.2c0.1,0.3,0.3,0.5,0.6,0.7c0.2,0.2,0.5,0.3,0.8,0.3
				c0.3,0,0.7,0,1-0.2c0.6-0.2,0.9-0.6,1.1-1c0.2-0.4,0.1-1-0.1-1.6l-2.5-5.9l-1.7,0.7c-0.1,0.1-0.2,0-0.4,0
				c-0.1-0.1-0.2-0.2-0.3-0.3c0-0.1-0.1-0.2-0.1-0.4c0-0.1,0.1-0.2,0.2-0.3l2.4-1c0.1-0.1,0.3-0.1,0.4,0c0.1,0,0.2,0.1,0.3,0.2
				l2.7,6.5c0.3,0.7,0.4,1.3,0.3,1.9c-0.1,0.5-0.3,1-0.6,1.4C217,284.3,216.6,284.6,216,284.8z"/>
			<path class="st3" d="M226.6,279.9c-0.5,0.3-1,0.4-1.6,0.5c-0.5,0-1-0.1-1.5-0.4c-0.5-0.3-0.9-0.8-1.2-1.4l-3.3-6.3
				c-0.1-0.1-0.1-0.3,0-0.4c0.1-0.1,0.2-0.2,0.3-0.3c0.1-0.1,0.3-0.1,0.4-0.1c0.1,0,0.2,0.1,0.3,0.2l3.3,6.3c0.3,0.6,0.7,1,1.2,1.1
				c0.5,0.1,1,0.1,1.5-0.2c0.5-0.3,0.9-0.7,1-1.1c0.1-0.5,0.1-1-0.3-1.6l-3.3-6.3c-0.1-0.1-0.1-0.3,0-0.4c0.1-0.1,0.2-0.2,0.3-0.3
				c0.1-0.1,0.3-0.1,0.4-0.1c0.1,0,0.2,0.1,0.3,0.2l3.3,6.3c0.4,0.7,0.5,1.3,0.5,1.8c0,0.5-0.2,1-0.5,1.4
				C227.6,279.3,227.2,279.6,226.6,279.9z"/>
			<path class="st3" d="M238.9,272.5c-0.1,0.1-0.2,0.1-0.3,0c-0.1,0-0.3-0.1-0.4-0.2L234,270l-1.4,0.9l2.3,3.6
				c0.1,0.1,0.1,0.2,0,0.4c-0.1,0.1-0.2,0.2-0.3,0.3c-0.1,0.1-0.3,0.1-0.4,0.1s-0.3,0-0.3-0.2l-5.3-8.2c-0.1-0.1-0.1-0.2-0.1-0.3
				c0-0.1,0.1-0.2,0.2-0.3l2.2-1.4c0.5-0.3,1-0.5,1.5-0.7c0.5-0.1,1-0.1,1.5,0.1c0.5,0.2,0.9,0.6,1.3,1.2c0.3,0.5,0.5,1,0.6,1.4
				c0.1,0.4,0,0.8-0.2,1.2c-0.2,0.4-0.4,0.7-0.7,1l4,2.3c0,0,0.1,0,0.1,0.1c0,0,0,0,0.1,0.1c0.1,0.1,0.1,0.2,0.1,0.3
				c0,0.1,0,0.2-0.1,0.3C239.1,272.4,239,272.5,238.9,272.5z M232.1,270.1l1.6-1c0.5-0.3,0.8-0.7,1-1.2c0.2-0.4,0-1-0.3-1.5
				c-0.4-0.6-0.8-0.9-1.3-0.9c-0.5,0-0.9,0.1-1.5,0.4l-1.6,1L232.1,270.1z"/>
			<path class="st3" d="M243.5,269.2c-0.1,0.1-0.2,0.1-0.3,0.1c-0.1,0-0.2,0.1-0.3,0c-0.1,0-0.2-0.1-0.2-0.1c0,0,0-0.1-0.1-0.1
				l-3.6-9.4c-0.1-0.1-0.1-0.3,0-0.4c0.1-0.1,0.2-0.3,0.3-0.4c0.1-0.1,0.3-0.2,0.4-0.2c0.2,0,0.3,0,0.4,0.1l8.3,5.8
				c0,0,0.1,0,0.1,0.1c0.1,0.1,0.1,0.2,0.1,0.3c0,0.1-0.1,0.2-0.1,0.3c-0.1,0.1-0.1,0.2-0.2,0.3c-0.1,0.1-0.2,0.1-0.3,0.1
				c-0.1,0-0.2,0-0.3-0.1l-1.8-1.3l-3,2.3l0.8,2.1c0,0.1,0,0.2,0,0.3C243.6,269.1,243.6,269.2,243.5,269.2z M242.4,265.7l2.6-2
				l-4.6-3.3L242.4,265.7z"/>
		</g>
		<g>
			<path class="st3" d="M93.5,71.3c-0.5,0.4-1,0.6-1.5,0.8c-0.5,0.1-1,0.1-1.5-0.1c-0.5-0.2-0.8-0.4-1.2-0.8
				c-0.1-0.2-0.2-0.3-0.2-0.5c0-0.1,0.1-0.3,0.3-0.4c0.1-0.1,0.2-0.2,0.4-0.2c0.1,0,0.3,0,0.4,0.1c0.2,0.3,0.5,0.4,0.7,0.6
				c0.3,0.1,0.6,0.2,0.9,0.1c0.3-0.1,0.6-0.2,0.9-0.5c0.5-0.4,0.8-0.8,0.8-1.3c0.1-0.5-0.1-1-0.6-1.5l-3.9-5.1l-1.5,1.2
				c-0.1,0.1-0.2,0.1-0.4,0.1c-0.1,0-0.2-0.1-0.3-0.2c-0.1-0.1-0.1-0.2-0.1-0.3c0-0.1,0-0.2,0.2-0.3l2-1.6c0.1-0.1,0.2-0.1,0.4-0.1
				c0.1,0,0.2,0,0.3,0.2l4.4,5.6c0.5,0.6,0.7,1.2,0.8,1.7c0.1,0.5,0,1-0.3,1.5C94.3,70.5,94,70.9,93.5,71.3z"/>
			<path class="st3" d="M100.2,66.3c-0.1,0.1-0.2,0.1-0.4,0.1c-0.1,0-0.2-0.1-0.3-0.2l-5.3-8.2c-0.1-0.1-0.1-0.2,0-0.4
				c0.1-0.1,0.1-0.2,0.3-0.3l4.3-2.8c0.1-0.1,0.3-0.1,0.4,0c0.1,0.1,0.2,0.1,0.3,0.3c0.1,0.1,0.1,0.3,0.1,0.4c0,0.1-0.1,0.2-0.2,0.3
				L95.6,58l2,3.1l1.9-1.2c0.1-0.1,0.2-0.1,0.3,0c0.1,0.1,0.2,0.1,0.3,0.2c0.1,0.1,0.1,0.2,0.1,0.3c0,0.1-0.1,0.2-0.2,0.3l-1.9,1.2
				l2,3.1l3.8-2.4c0.1-0.1,0.2-0.1,0.4,0c0.1,0.1,0.2,0.1,0.3,0.3c0.1,0.1,0.1,0.2,0.1,0.4c0,0.1,0,0.2-0.2,0.3L100.2,66.3z"/>
			<path class="st3" d="M116.1,57.4c-0.5,0.2-1,0.4-1.5,0.4c-0.5,0-1-0.1-1.5-0.4c-0.5-0.3-0.8-0.8-1.2-1.5l-1.9-4
				c-0.3-0.7-0.5-1.3-0.4-1.9c0.1-0.5,0.3-1,0.6-1.4c0.3-0.4,0.8-0.7,1.3-0.9c0.6-0.3,1.2-0.4,1.7-0.4c0.5,0,1,0.1,1.4,0.4
				c0.4,0.2,0.7,0.6,0.9,1c0.1,0.2,0.1,0.4,0.1,0.6c-0.1,0.1-0.2,0.2-0.4,0.3c-0.2,0.1-0.3,0.1-0.4,0.1c-0.1,0-0.2-0.1-0.3-0.2
				c-0.1-0.1-0.2-0.3-0.3-0.4c-0.1-0.2-0.3-0.3-0.5-0.4c-0.2-0.1-0.4-0.2-0.7-0.2c-0.3,0-0.6,0.1-1,0.3c-0.6,0.3-0.9,0.6-1.1,1.1
				c-0.2,0.4-0.1,1,0.2,1.6l1.9,4c0.3,0.6,0.7,1,1.1,1.2c0.4,0.2,1,0.1,1.5-0.2c0.4-0.2,0.6-0.4,0.8-0.6c0.2-0.2,0.3-0.4,0.3-0.6
				c0-0.2,0-0.4,0-0.6c0-0.2-0.1-0.4-0.1-0.5c-0.1-0.1,0-0.3,0-0.4c0.1-0.1,0.2-0.2,0.4-0.3c0.2-0.1,0.3-0.1,0.5-0.1
				c0.1,0,0.3,0.2,0.4,0.4c0.2,0.4,0.3,0.9,0.2,1.3c-0.1,0.5-0.3,0.9-0.6,1.3C117.2,56.8,116.7,57.2,116.1,57.4z"/>
			<path class="st3" d="M125.7,53.5c-0.6,0.2-1.1,0.3-1.6,0.2c-0.5,0-1-0.2-1.4-0.6c-0.4-0.3-0.8-0.9-1-1.6l-1.5-4.1
				c-0.3-0.7-0.3-1.4-0.2-1.9c0.1-0.5,0.3-1,0.7-1.3c0.4-0.4,0.8-0.6,1.4-0.8c0.6-0.2,1.1-0.3,1.6-0.3c0.5,0,1,0.2,1.4,0.6
				c0.4,0.3,0.8,0.9,1,1.6l1.5,4.1c0.3,0.7,0.3,1.4,0.2,1.9c-0.1,0.5-0.3,1-0.7,1.3C126.7,53,126.3,53.2,125.7,53.5z M125.3,52.4
				c0.6-0.2,0.9-0.5,1.2-1c0.2-0.4,0.2-1-0.1-1.6l-1.5-4.1c-0.2-0.7-0.6-1.1-1-1.3c-0.4-0.2-0.9-0.2-1.5,0c-0.6,0.2-0.9,0.5-1.1,0.9
				c-0.2,0.4-0.2,1,0.1,1.6l1.5,4.1c0.2,0.7,0.6,1.1,1,1.3C124.3,52.6,124.8,52.6,125.3,52.4z"/>
			<path class="st3" d="M133.6,50.8c-0.1,0-0.3,0-0.4,0c-0.1,0-0.2-0.1-0.3-0.3l-2.5-9.4c0-0.1,0-0.3,0.1-0.4
				c0.1-0.1,0.2-0.2,0.4-0.2c0.2,0,0.3,0,0.4,0c0.1,0,0.2,0.1,0.3,0.2c0.1,0.1,0.2,0.2,0.4,0.3l5.3,5.9l-1.9-7.2
				c0-0.1,0-0.3,0.1-0.4c0.1-0.1,0.2-0.2,0.4-0.2c0.1,0,0.3,0,0.4,0c0.1,0,0.2,0.1,0.3,0.3l2.5,9.4c0,0.1,0,0.3-0.1,0.4
				c-0.1,0.1-0.2,0.2-0.4,0.2c-0.2,0-0.3,0-0.5,0c-0.2-0.1-0.3-0.2-0.4-0.3l-5.5-6.1l1.9,7.2c0,0.1,0,0.3-0.1,0.4
				C133.9,50.7,133.8,50.7,133.6,50.8z"/>
			<path class="st3" d="M146.4,48c-0.6,0.1-1.2,0.1-1.6,0c-0.5-0.1-0.9-0.3-1.2-0.5c-0.3-0.2-0.5-0.4-0.5-0.6c0-0.1,0-0.2,0-0.3
				c0-0.1,0.1-0.2,0.2-0.3c0.1-0.1,0.1-0.1,0.2-0.1c0.1,0,0.2,0,0.4,0.1c0.1,0.1,0.3,0.2,0.5,0.3c0.2,0.1,0.4,0.2,0.7,0.3
				c0.3,0.1,0.6,0.1,1.1,0c0.4-0.1,0.7-0.2,1-0.4c0.3-0.2,0.5-0.4,0.6-0.7c0.1-0.3,0.2-0.6,0.1-1c-0.1-0.4-0.2-0.7-0.4-1
				c-0.2-0.2-0.5-0.4-0.8-0.5c-0.3-0.1-0.6-0.2-1-0.3c-0.4-0.1-0.7-0.2-1.1-0.2c-0.4-0.1-0.7-0.2-1-0.4c-0.3-0.2-0.6-0.4-0.8-0.7
				c-0.2-0.3-0.4-0.7-0.5-1.2c-0.1-0.5-0.1-1,0.1-1.4c0.1-0.4,0.3-0.7,0.6-0.9c0.3-0.3,0.6-0.5,1-0.6c0.4-0.1,0.7-0.2,1.1-0.3
				c0.3,0,0.5-0.1,0.8-0.1c0.3,0,0.6,0,0.8,0c0.3,0,0.5,0.1,0.7,0.2c0.2,0.1,0.3,0.2,0.3,0.4c0,0.1,0,0.2,0,0.3
				c0,0.1-0.1,0.2-0.1,0.3c-0.1,0.1-0.2,0.2-0.3,0.2c-0.1,0-0.2,0-0.4-0.1c-0.2-0.1-0.4-0.1-0.7-0.2c-0.3,0-0.6,0-1,0
				c-0.3,0.1-0.7,0.2-0.9,0.3c-0.3,0.1-0.5,0.3-0.6,0.6c-0.1,0.2-0.2,0.6-0.1,0.9c0.1,0.3,0.2,0.6,0.4,0.8c0.2,0.2,0.5,0.3,0.8,0.4
				c0.3,0.1,0.6,0.2,1,0.2c0.4,0.1,0.7,0.1,1.1,0.2c0.4,0.1,0.7,0.2,1,0.4c0.3,0.2,0.6,0.4,0.8,0.8c0.2,0.3,0.4,0.8,0.5,1.3
				c0.1,0.7,0.1,1.3-0.1,1.8c-0.2,0.5-0.5,0.9-0.9,1.2C147.5,47.7,147,47.9,146.4,48z"/>
			<path class="st3" d="M156.7,46.7c-0.6,0-1.1,0-1.6-0.2c-0.5-0.2-0.9-0.5-1.2-0.9c-0.3-0.4-0.5-1-0.6-1.8l-0.3-4.4
				c-0.1-0.8,0-1.4,0.3-1.9c0.2-0.5,0.6-0.8,1-1.1c0.5-0.2,1-0.4,1.6-0.4s1.1,0,1.6,0.2c0.5,0.2,0.9,0.5,1.2,0.9
				c0.3,0.4,0.5,1,0.6,1.8l0.3,4.4c0.1,0.8,0,1.4-0.3,1.9c-0.2,0.5-0.6,0.8-1,1.1C157.8,46.5,157.3,46.7,156.7,46.7z M156.6,45.6
				c0.6,0,1.1-0.3,1.4-0.6c0.3-0.4,0.4-0.9,0.4-1.6l-0.3-4.4c-0.1-0.7-0.3-1.2-0.6-1.5c-0.4-0.3-0.8-0.4-1.4-0.4
				c-0.6,0-1,0.3-1.4,0.6c-0.3,0.4-0.4,0.9-0.4,1.6l0.3,4.4c0.1,0.7,0.3,1.2,0.6,1.5C155.6,45.5,156.1,45.7,156.6,45.6z"/>
			<path class="st3" d="M165.1,46.2c-0.1,0-0.3,0-0.4-0.1c-0.1-0.1-0.2-0.2-0.2-0.3l0.2-9.6c0-0.2,0.1-0.4,0.2-0.5
				c0.1-0.1,0.3-0.1,0.4-0.1c0.2,0,0.3,0,0.4,0.1c0.1,0.1,0.2,0.1,0.3,0.3c0.1,0.1,0.2,0.3,0.3,0.4l2.2,4.4l2.4-4.3
				c0.1-0.2,0.2-0.3,0.3-0.4c0.1-0.1,0.2-0.2,0.3-0.2c0.1-0.1,0.2-0.1,0.4-0.1c0.2,0,0.3,0,0.4,0.1c0.1,0.1,0.2,0.2,0.2,0.5
				l-0.2,9.6c0,0.1-0.1,0.3-0.2,0.3c-0.1,0.1-0.3,0.1-0.4,0.1c-0.2,0-0.3,0-0.4-0.1c-0.1-0.1-0.2-0.2-0.2-0.3l0.1-7.6l-2.3,4.1
				c-0.1,0.1-0.1,0.2-0.2,0.3c-0.1,0.1-0.2,0.1-0.2,0.1c-0.1,0-0.1,0-0.2-0.1c-0.1,0-0.2-0.1-0.2-0.3l-2.1-4.2l-0.1,7.7
				c0,0.1-0.1,0.3-0.2,0.3C165.4,46.2,165.2,46.2,165.1,46.2z"/>
			<path class="st3" d="M177.5,46.8c-0.1,0-0.3-0.1-0.4-0.2c-0.1-0.1-0.2-0.2-0.2-0.3l1.2-9.5c0-0.2,0.1-0.4,0.3-0.4
				c0.1-0.1,0.3-0.1,0.4-0.1c0.2,0,0.3,0.1,0.4,0.1c0.1,0.1,0.2,0.2,0.3,0.3c0.1,0.1,0.1,0.3,0.2,0.5l1.7,4.6l2.8-4.1
				c0.1-0.2,0.2-0.3,0.3-0.4c0.1-0.1,0.2-0.2,0.3-0.2c0.1,0,0.2-0.1,0.4,0c0.2,0,0.3,0.1,0.4,0.2c0.1,0.1,0.2,0.3,0.1,0.5l-1.2,9.5
				c0,0.1-0.1,0.2-0.2,0.3c-0.1,0.1-0.3,0.1-0.4,0.1c-0.2,0-0.3-0.1-0.4-0.2c-0.1-0.1-0.2-0.2-0.1-0.3l0.9-7.6l-2.7,3.8
				c-0.1,0.1-0.2,0.2-0.2,0.2c-0.1,0-0.2,0.1-0.3,0c-0.1,0-0.1,0-0.2-0.1c-0.1-0.1-0.1-0.2-0.2-0.3l-1.7-4.4l-0.9,7.6
				c0,0.1-0.1,0.2-0.2,0.3C177.8,46.8,177.7,46.8,177.5,46.8z"/>
			<path class="st3" d="M189.8,48.6c-0.1,0-0.2-0.1-0.3-0.2c-0.1-0.1-0.1-0.2-0.1-0.4l2.1-9.5c0-0.1,0.1-0.2,0.2-0.3s0.3-0.1,0.4,0
				l5,1.1c0.2,0,0.2,0.1,0.3,0.2c0,0.1,0,0.3,0,0.4c0,0.1-0.1,0.3-0.2,0.4c-0.1,0.1-0.2,0.1-0.3,0.1l-4.4-1l-0.8,3.6l2.2,0.5
				c0.1,0,0.2,0.1,0.3,0.2c0,0.1,0.1,0.2,0,0.4c0,0.1-0.1,0.2-0.2,0.3c-0.1,0.1-0.2,0.1-0.4,0.1l-2.2-0.5l-0.8,3.6l4.4,1
				c0.1,0,0.2,0.1,0.3,0.2c0,0.1,0.1,0.3,0,0.4c0,0.1-0.1,0.2-0.2,0.3c-0.1,0.1-0.2,0.1-0.4,0.1L189.8,48.6z"/>
			<path class="st3" d="M205.1,52.8c-0.1,0-0.2-0.1-0.3-0.2c-0.1-0.1-0.1-0.2-0.1-0.4L208,43c0-0.1,0.1-0.2,0.3-0.2
				c0.1,0,0.3,0,0.4,0c0.1,0.1,0.3,0.1,0.4,0.2c0.1,0.1,0.1,0.2,0.1,0.4l-3.1,8.5l3.7,1.4c0.1,0,0.2,0.1,0.2,0.3c0,0.1,0,0.3,0,0.4
				c0,0.1-0.1,0.2-0.2,0.3c-0.1,0.1-0.2,0.1-0.3,0.1L205.1,52.8z"/>
			<path class="st3" d="M215.9,57.3c-0.5-0.2-1-0.6-1.3-1c-0.3-0.4-0.5-0.8-0.6-1.4c-0.1-0.5,0.1-1.1,0.4-1.9l1.8-4
				c0.3-0.7,0.7-1.2,1.2-1.5c0.4-0.3,0.9-0.4,1.4-0.4c0.5,0,1,0.1,1.6,0.4c0.5,0.2,1,0.6,1.3,1c0.3,0.4,0.5,0.8,0.6,1.4
				c0.1,0.5-0.1,1.2-0.4,1.9l-1.8,4c-0.3,0.7-0.7,1.2-1.2,1.5c-0.4,0.3-0.9,0.4-1.4,0.4C216.9,57.6,216.4,57.5,215.9,57.3z
				 M216.3,56.3c0.5,0.3,1,0.3,1.5,0.1c0.4-0.2,0.8-0.6,1.1-1.2l1.8-4c0.3-0.6,0.4-1.2,0.2-1.6c-0.2-0.4-0.5-0.8-1.1-1
				c-0.5-0.3-1-0.3-1.5-0.1c-0.4,0.2-0.8,0.6-1.1,1.2l-1.8,4c-0.3,0.6-0.4,1.2-0.2,1.6C215.4,55.7,215.8,56,216.3,56.3z"/>
			<path class="st3" d="M225.4,62.2c-0.5-0.3-0.9-0.6-1.2-1c-0.3-0.4-0.5-0.9-0.5-1.4c0-0.5,0.2-1.1,0.6-1.8l2.2-3.8
				c0.4-0.7,0.8-1.1,1.3-1.4c0.5-0.3,1-0.4,1.5-0.3c0.5,0.1,1,0.2,1.5,0.5c0.6,0.3,1,0.7,1.3,1.1c0.3,0.4,0.4,0.9,0.5,1.3
				c0,0.5-0.1,0.9-0.3,1.3c-0.1,0.2-0.3,0.4-0.4,0.4c-0.1,0-0.3,0-0.5-0.1c-0.2-0.1-0.3-0.2-0.3-0.3c0-0.1,0-0.2,0-0.3
				c0.1-0.1,0.1-0.3,0.2-0.5c0.1-0.2,0.1-0.4,0-0.6c0-0.2-0.1-0.4-0.3-0.7c-0.2-0.2-0.4-0.4-0.8-0.6c-0.5-0.3-1-0.4-1.5-0.3
				c-0.5,0.1-0.9,0.5-1.2,1.1l-2.2,3.8c-0.4,0.6-0.5,1.1-0.3,1.6c0.1,0.5,0.5,0.8,1,1.2c0.4,0.2,0.7,0.3,0.9,0.3
				c0.3,0,0.5,0,0.7-0.1c0.2-0.1,0.4-0.2,0.5-0.4c0.1-0.1,0.3-0.3,0.4-0.4c0.1-0.1,0.2-0.2,0.3-0.2c0.1,0,0.3,0,0.4,0.1
				c0.2,0.1,0.3,0.2,0.3,0.3c0,0.1,0,0.3-0.1,0.5c-0.2,0.4-0.6,0.7-1,0.9c-0.4,0.2-0.9,0.3-1.4,0.3
				C226.5,62.7,225.9,62.5,225.4,62.2z"/>
			<path class="st3" d="M231.7,66c-0.1-0.1-0.2-0.1-0.2-0.2c-0.1-0.1-0.1-0.2-0.1-0.3c0-0.1,0-0.2,0.1-0.3c0,0,0-0.1,0.1-0.1l8-6.2
				c0.1-0.1,0.3-0.1,0.4-0.1c0.2,0,0.3,0.1,0.4,0.2c0.1,0.1,0.3,0.2,0.3,0.4c0.1,0.1,0.1,0.3,0,0.4l-3.1,9.6c0,0,0,0.1,0,0.1
				c-0.1,0.1-0.1,0.1-0.3,0.1c-0.1,0-0.2,0-0.4,0c-0.1,0-0.2-0.1-0.3-0.1c-0.1-0.1-0.2-0.1-0.2-0.2c0-0.1,0-0.2,0-0.3l0.7-2.1
				l-3.1-2.2l-1.8,1.4c-0.1,0.1-0.2,0.1-0.3,0.1C231.9,66.1,231.8,66.1,231.7,66z M234.8,64l2.7,1.9l1.8-5.4L234.8,64z"/>
			<path class="st3" d="M240.7,72.7c-0.1-0.1-0.2-0.2-0.2-0.3c0-0.1,0-0.3,0.1-0.4l6.3-7.5c0.1-0.1,0.2-0.2,0.4-0.1
				c0.1,0,0.3,0.1,0.4,0.2c0.1,0.1,0.2,0.2,0.3,0.3c0.1,0.1,0,0.3-0.1,0.4l-5.8,7l3,2.6c0.1,0.1,0.1,0.2,0.1,0.3
				c0,0.1-0.1,0.2-0.2,0.4c-0.1,0.1-0.2,0.2-0.3,0.2c-0.1,0-0.2,0-0.3-0.1L240.7,72.7z"/>
		</g>
	</g>
</g>
</svg>
