<?xml version="1.0" encoding="utf-8"?>
<!-- Generator: Adobe Illustrator 24.0.1, SVG Export Plug-In . SVG Version: 6.00 Build 0)  -->
<svg version="1.1" xmlns="http://www.w3.org/2000/svg" xmlns:xlink="http://www.w3.org/1999/xlink" x="0px" y="0px"
	 viewBox="0 0 302.9 329.1" style="enable-background:new 0 0 302.9 329.1;" xml:space="preserve">
<style type="text/css">
	.st0{display:none;}
	.st1{display:inline;fill:#161616;stroke:#000000;stroke-miterlimit:10;}
	.st2{fill:#FF960B;}
	.st3{fill:#FFFFFF;}
	.st4{fill:#202020;}
	.st5{fill:#326645;}
	.st6{clip-path:url(#SVGID_2_);fill:#326645;}
	.st7{clip-path:url(#SVGID_2_);fill:#202020;}
	.st8{fill:#DC97C2;}
	.st9{fill:none;}
	.st10{fill:#1F1F1F;}
	.st11{clip-path:url(#SVGID_5_);fill:#1F1F1F;}
	.st12{clip-path:url(#SVGID_7_);fill:#1F1F1F;}
	.st13{clip-path:url(#SVGID_9_);fill:#202020;}
	.st14{clip-path:url(#SVGID_10_);fill:#202020;}
	.st15{clip-path:url(#SVGID_12_);fill:#202020;}
</style>
<g id="Ne_pas_altérer" class="st0">
</g>
<g id="Calque_1">
	<g>
		<polygon class="st10" points="142.2,145.4 132.8,145.4 132.8,125.2 128.8,125.2 128.8,149 142.2,149 142.2,145.4 		"/>
		<polygon class="st10" points="161.3,145.5 150.8,145.5 150.8,138 160.6,138 160.6,134.5 150.8,134.5 150.8,128.8 161.3,128.8 
			161.3,125.2 150.8,125.2 149.3,125.2 146.8,125.2 146.8,149 149.3,149 150.8,149 161.3,149 161.3,145.5 		"/>
		<polygon class="st10" points="140.4,176.2 133.4,159.4 128.8,159.4 140.4,184.6 152,159.4 147.4,159.4 140.4,176.2 		"/>
		<path class="st10" d="M174.4,174.7c-0.4,1-1,1.9-1.7,2.7c-0.7,0.8-1.6,1.3-2.6,1.8c-1,0.4-2.1,0.6-3.2,0.6c-1.2,0-2.3-0.2-3.2-0.6
			c-1-0.4-1.8-1-2.6-1.8c-0.7-0.8-1.3-1.7-1.7-2.7c-0.4-1-0.6-2.2-0.6-3.4c0-1.2,0.2-2.4,0.6-3.4c0.4-1,1-1.9,1.7-2.7
			c0.7-0.8,1.6-1.3,2.6-1.8c1-0.4,2.1-0.6,3.3-0.6c1.2,0,2.3,0.2,3.2,0.6c1,0.4,1.8,1,2.6,1.8c0.7,0.8,1.3,1.7,1.7,2.7
			c0.4,1,0.6,2.2,0.6,3.4C175,172.6,174.8,173.7,174.4,174.7L174.4,174.7z M175.8,162.5c-1.1-1.1-2.4-2-3.9-2.6
			c-1.5-0.6-3.1-0.9-4.9-0.9c-1.8,0-3.4,0.3-4.9,0.9c-1.5,0.6-2.8,1.5-3.9,2.6c-1.1,1.1-2,2.4-2.6,3.9c-0.6,1.5-0.9,3.1-0.9,4.9
			c0,1.8,0.3,3.4,0.9,4.9c0.6,1.5,1.5,2.8,2.6,3.9c1.1,1.1,2.4,2,3.9,2.6c1.5,0.6,3.1,0.9,4.9,0.9c1.8,0,3.4-0.3,4.9-0.9
			c1.5-0.6,2.8-1.5,3.9-2.6c1.1-1.1,2-2.4,2.6-3.9c0.6-1.5,0.9-3.1,0.9-4.9c0-1.8-0.3-3.4-0.9-4.9
			C177.8,164.9,176.9,163.6,175.8,162.5L175.8,162.5z"/>
		<path class="st10" d="M188.9,162.9h3.2c0.9,0,1.7,0.2,2.4,0.5c0.7,0.3,1.2,0.8,1.6,1.3c0.4,0.6,0.6,1.3,0.6,2.2
			c0,0.8-0.2,1.6-0.6,2.2c-0.4,0.6-0.9,1.1-1.6,1.4c-0.7,0.3-1.5,0.5-2.4,0.5h-3.2V162.9L188.9,162.9z M196.8,173.3
			c1.3-0.6,2.3-1.5,3-2.6c0.7-1.1,1.1-2.4,1.1-3.9c0-1.5-0.4-2.8-1.1-3.9c-0.7-1.1-1.7-2-3-2.6c-1.3-0.6-2.8-0.9-4.5-0.9h-3.3h-1.6
			h-2.4v23.8h4v-9h2.5l6,9h4.9l-6.7-9.5C196,173.6,196.4,173.5,196.8,173.3L196.8,173.3z"/>
		<path class="st10" d="M219.1,173.7h-6.5l3.2-7.5L219.1,173.7L219.1,173.7z M204.3,183.2h4.5l2.7-6.1h8.8l2.7,6.1h4.5l-11.6-25.1
			L204.3,183.2L204.3,183.2z"/>
		<path class="st10" d="M241.9,159c-1.7,0-3.4,0.3-4.9,0.9c-1.5,0.6-2.8,1.4-3.9,2.5c-1.1,1.1-2,2.4-2.6,3.9c-0.6,1.5-0.9,3.2-0.9,5
			c0,1.8,0.3,3.5,0.9,5c0.6,1.5,1.5,2.8,2.6,3.9c1.1,1.1,2.4,1.9,3.9,2.5c1.5,0.6,3.1,0.9,4.9,0.9c1.7,0,3.2-0.2,4.4-0.6
			c1.2-0.4,2.2-1.1,3.2-1.9v-4.8c-0.5,0.6-1.2,1.2-1.9,1.7c-0.7,0.5-1.5,0.9-2.5,1.2c-0.9,0.3-1.9,0.4-3.1,0.4
			c-1.1,0-2.1-0.2-3.1-0.6c-1-0.4-1.8-1-2.6-1.7c-0.8-0.7-1.4-1.6-1.8-2.7c-0.4-1-0.6-2.2-0.6-3.5c0-1.3,0.2-2.4,0.6-3.4
			c0.4-1,1-1.9,1.8-2.7c0.8-0.7,1.6-1.3,2.6-1.7c1-0.4,2-0.6,3.1-0.6c1.1,0,2.2,0.1,3.1,0.4c0.9,0.3,1.7,0.7,2.5,1.2
			c0.7,0.5,1.4,1.1,1.9,1.8v-4.8c-1-0.8-2-1.4-3.2-1.9C245.1,159.2,243.7,159,241.9,159L241.9,159z"/>
		<g>
			<defs>
				<rect id="SVGID_4_" x="3.6" y="37.6" width="288" height="274.1"/>
			</defs>
			<clipPath id="SVGID_2_">
				<use xlink:href="#SVGID_4_"  style="overflow:visible;"/>
			</clipPath>
			<polygon style="clip-path:url(#SVGID_2_);fill:#1F1F1F;" points="270.6,163 270.6,159.4 260.1,159.4 258.6,159.4 256.1,159.4 
				256.1,183.2 258.6,183.2 260.1,183.2 270.6,183.2 270.6,179.7 260.1,179.7 260.1,172.2 269.9,172.2 269.9,168.7 260.1,168.7 
				260.1,163 270.6,163 			"/>
			<path style="clip-path:url(#SVGID_2_);fill:#1F1F1F;" d="M92.3,213.3c-7,3.6-12,12-10.7,18.4c3-1.4,5.7-3,7.7-5.6
				C92,222.3,94.9,218.6,92.3,213.3L92.3,213.3z M109.2,233.8c-0.3-8.6-1.9-16.6-7.3-23.5c-2.7-3.4-2.9-3.4-7.1-1.5
				C93.9,218.3,101.6,231.9,109.2,233.8L109.2,233.8z M79.4,234.9c-2.6-8,2.3-17.6,12.8-25.1c-0.9-0.1-1.4-0.3-1.9-0.3
				c-8.7,1.3-16.7-0.7-24.2-4.9c-3.7-2.1-7.3-4.4-10.9-6.7c-1.1-0.7-2.1-1.4-3.6-2.3c-0.2,5.9,0.5,11.3,2,16.4
				c1.2,3.9,2.7,7.8,4.5,11.5c7.4,14.8,17.4,27.4,30.1,38c16.6,13.9,35.3,23.7,56.4,28.8c19.9,4.8,39.4,2.9,58.8-3.3
				c29.2-9.4,51.3-27.7,67.8-53.2c6.9-10.8,10.7-22.9,13.8-35.2c4-15.7,5.4-31.6,3.1-47.7c-2.1-15.1-5.8-29.9-13.8-43.3
				c-4-6.7-7.9-13.4-12.1-19.8c-9.5-14.3-22.6-24.7-37.2-33.3c-11.3-6.7-23.4-11.4-36.5-13.5c-10.2-1.6-20.4-1.4-30.5-0.2
				c-29.2,3.6-54.8,15.3-76.2,35.6c-10.3,9.7-18.1,21.1-23.6,34.2c-0.2,0.4-0.5,0.8-1.1,1.6c-0.5-1-1.1-1.6-1-2.1
				c0.7-2.1,1.4-4.2,2.4-6.1C69.8,81.9,87.1,65.7,108.8,54c21.4-11.6,44.3-16.9,68.6-16.3c12.3,0.3,24.1,3.1,35.3,7.9
				c14.4,6.2,27.3,14.7,38.6,25.5c5.2,5,9.8,10.7,13.9,16.6c8,11.6,15.3,23.6,19.6,37.2c5,15.8,7.8,31.8,6.6,48.5
				c-1.5,21.6-6.5,42.3-17.8,60.8c-14.7,24.1-35,42.2-61.9,52.3c-13,4.9-26.3,8.4-40.3,8.8c-14.1,0.5-27.8-2.1-41-6.8
				c-22-8-41.1-20.5-56.8-38c-4.2-4.7-7.9-9.9-11.4-15.2c-5.3-8.3-10.1-16.8-12.4-26.5c-1.3-5.2-1.8-10.4-1.3-15.8
				c0.1-0.7,0.3-1.5,0.5-2.2c2.1-0.6,2.9,1,4,1.9c6.7,5.8,14,10.6,22.6,13.1c13.6,4,25.2-0.1,35.2-9.4c4.8-4.5,5.9-10.7,6.7-17
				c1.2-9.1-1-17.2-5.9-25.1c-8.3-13.4-20.7-19.9-35.5-22.3c-6.7-1.1-13.6-1.2-20.5-1.2c-3.1,0-6.4,1-9.3,2.2
				c-11.7,4.8-20.7,12.9-28.2,22.9c-5.9,7.9-8.7,16.8-10,26.5c-2.1,15.4-2.7,30.9-2,46.4c0.7,15.4,2.9,30.6,6.6,45.5
				c3,12,8.4,23,14.8,33.6c0.6,0.9,1.1,1.9,1.6,2.9c-0.2,0.2-0.4,0.5-0.6,0.7c-0.7-0.3-1.6-0.4-2-0.9c-1.1-1.4-2.1-3-3-4.5
				C14.7,290.7,9.3,274,6.7,256.1c-2.6-18.2-3.9-36.5-2.6-54.8c0.1-1.4,0.2-2.8,0.1-4.3c-0.1-9.4,1.9-18.5,4.3-27.4
				c2.2-7.9,6.9-14.4,12.3-20.4c7.9-8.8,17-15.8,28.5-19.4c1.6-0.5,3.3-1,4.9-1c10.7-0.2,21.4,0,31.8,3.3c14.6,4.7,25.2,14,31.3,28
				c4.8,11.1,3.7,22.3-1.2,33c-2.3,5.1-6.8,8.4-11.5,11.2c-1,0.6-2,1.1-3.2,1.8c6.9,7,9.4,15.7,10,25.1c0.1,1.6,0.8,3.6-0.9,4.7
				c-1.9,1.2-3.7,0.1-5.4-0.9c-3.8-2.4-6.2-6.1-8.6-9.9c-0.6-0.9-1.1-1.9-1.9-3.3C91.3,228.6,86.4,232.9,79.4,234.9L79.4,234.9z"/>
		</g>
		<path class="st10" d="M75.2,186.2c0.1-3-3.1-6.5-5.9-6.5c-3.5,0-6.6,2.5-6.7,5.6c-0.1,2.9,3,5.8,6.4,5.9
			C72.3,191.2,75.1,188.9,75.2,186.2L75.2,186.2z M69,193.5c-4.7,0-8.8-3.9-8.8-8c0-4.5,4-8.1,9.1-8.1c4.3-0.1,8.4,4.4,8.3,9
			C77.4,190.4,73.7,193.5,69,193.5L69,193.5z"/>
		<path class="st10" d="M83.8,161.3c-3.2,7.6-12,7.4-16,2.1c-1-1.4-2.1-3,0.1-4.9c0.4,0.8,0.8,1.4,1.1,2c2.1,4.6,7,5.7,10.8,2.5
			c1-0.8,2-1.5,3-2.2C83,160.8,83.3,161.1,83.8,161.3L83.8,161.3z"/>
		<path class="st5" d="M109.2,233.8c-7.7-1.9-15.3-15.5-14.4-25c4.2-1.9,4.4-1.9,7.1,1.5C107.3,217.1,108.9,225.1,109.2,233.8
			L109.2,233.8z"/>
		<path class="st5" d="M92.3,213.3c2.7,5.3-0.2,9.1-3.1,12.8c-2,2.6-4.7,4.2-7.7,5.6C80.3,225.2,85.3,216.8,92.3,213.3L92.3,213.3z"
			/>
		<path class="st8" d="M75.2,186.2c-0.1,2.8-2.9,5.1-6.2,5c-3.4-0.1-6.6-3-6.4-5.9c0.1-3,3.3-5.6,6.7-5.6
			C72.1,179.7,75.3,183.2,75.2,186.2L75.2,186.2z"/>
	</g>
</g>
</svg>
